<mxfile host="65bd71144e">
    <diagram id="QcSrlYmEOJeIjFpcHWHf" name="数组">
        <mxGraphModel dx="1086" dy="779" grid="1" gridSize="10" guides="1" tooltips="1" connect="1" arrows="1" fold="1" page="1" pageScale="1" pageWidth="827" pageHeight="1169" math="0" shadow="0">
            <root>
                <mxCell id="pOiSYCZk9DxUySAxYVqE-0"/>
                <mxCell id="pOiSYCZk9DxUySAxYVqE-1" parent="pOiSYCZk9DxUySAxYVqE-0"/>
                <mxCell id="pOiSYCZk9DxUySAxYVqE-2" value="" style="shape=image;verticalLabelPosition=bottom;labelBackgroundColor=#ffffff;verticalAlign=top;aspect=fixed;imageAspect=0;image=data:image/png,iVBORw0KGgoAAAANSUhEUgAABGUAAAFwCAYAAAARycbRAAAgAElEQVR4Aey9C3Bc13nnqUrNVE1qq6Yqm6rs7lSmb+PdeKMBNLrRQAPdQAP9AEmAINGQLFC2SYvUyzYhy7YkUw9KtKkH9aQUiqIoisRjnC1XdjeTpDI7tTOeJLOJt3YSJ1PjZKfGjh8bZzbK2JYdy7Ye/G+de8+5fe/t2933Np4N/FVFNdC4fe453/c7557z7+9855ZAIAD1b2lpCcvLy+bv6n2+Fm1EW9AWZIAMkAEyQAbIABkgA2SADJABMkAGyMBmMHCLtZB4PI65uTmKMhahymof/sxORwbIABkgA2SADJABMkAGyAAZIANkgAxsFgM2UWazCmU5BJQMkAEyQAbIABkgA2SADJABMkAGyAAZIAOVGaAow6gYRkaRATJABsgAGSADZIAMkAEyQAbIABkgAzvAAEWZHTA6lcLKSiHtQ/uQATJABsgAGSADZIAMkAEyQAbIwH5gwCbKhEIhhMNhqmMUasgAGSADZIAMkAEyQAbIABkgA2SADJABMrDFDNhEGZ6+RCVyPyiRbCM5JwNkgAyQATJABsgAGSADZIAMkIHdwABFmS1WvXaDk1kHDjZkgAyQATJABsgAGSADZIAMkAEyQAZ2HwN7RpQJ5iM4uJZB5lSLe3hVcgAHro8hOlbdCc1LcRy+HEVvqPq1hJo2IgNkgAyQATJABsgAGSADZIAMkAEyQAZqYWCPiDIN6Hs0jcU34ugPW0Do7sTYUzFExjUEYr2YvjyKSDSAhsk+TD47hB6L6KKNhZE+P4CePg3BmSEcuhRBZ0BD89EIsuf60MaIGnexi3ahXcgAGSADZIAMkAEyQAbIABkgA2SADNTEgE2UicfjmJubq6mgWhShTftMpBdT1/KYfbgDDRYQgskepC5mULiewvjJMNIvDSN61zAOXs/j6KvDiCSDZlubZgeQuZJD4cooYh8fQv65QUSWxzC/lsP8hUH09FjEHss9Nq0NLNP0BW1K1sgAGSADZIAMkAEyQAbIABkgA2RgPzBgE2Xqs8Ea2u8bx8JKCiPTWunCvqEBnZ+I4cBbOSyu51G4Oo7knSE0N7gA3tSE3vsTOLya1689emkUo7c2I0jBpNSutAltQgbIABkgA2SADJABMkAGyAAZIANkYEMM1L8o0xJC4pUcjj5TZotRQwM6liJ6FIwQZRaujCFRTmgRosy9w1LAyeHIxWFEZxqhEbINQVafYp+LaEcOyAEZIANkgAyQATJABsgAGSADZIAMbCIDdS/KNC3GMLc+jcmlxhIwituXJjBxbz/SF0cw/Mk4ZleF4BJz3750dQzxTwxh5qUhRD+bxJHVLA4/y+1LFFYo0pABMkAGyAAZIANkgAyQATJABsgAGdhcBmyiTCgUQjgcLhE3dq/RmxD5UgaLr0VtSXvN+vZ3I/VMFP3DGgIjYWSvWBL9Xoiit7NozGB2AFNPhtHVp6HxSBSz1kS/Xwyj3W270yaqY2adWWYd8Vfkh/6jLcgAGSADZIAMkAEyQAbIABkgA2TALwM2UWZpaQnLy8t1syjWxvuRW8lhZrmt+hYjHoldN371CzGv58BHBsgAGSADZIAMkAEyQAbIABkgA/XIQB2LMkF0fXYChbcSiI4QvnqEj3Umt2SADJABMkAGyAAZIANkgAyQATKwnxmoX1GmuxOp1/M4/EQ3mrnlh1EwZIAMkAEyQAbIABkgA2SADJABMkAGyECdMVC3okzL8VEcWZvE+OEgoasz6PazCsq281sAMkAGyAAZIANkgAyQATJABsgAGVAM2ESZeDyOubm53S9yNLRi+LksFl4aQCcT8O5+f1E0oo/IABkgA2SADJABMkAGyAAZIANkgAyUMGATZZRSs9tfg/kIDq5lkDnVUtKg3V531o+KKBkgA2SADJABMkAGyAAZIANkgAyQATIgGKhDUaYBfY+msfhGHP1hOpEdmQyQATJABsgAGSADZIAMkAEyQAbIABmoTwbqT5SJ9GLqWh6zD3eggaFPjBQiA2SADJABMkAGyAAZIANkgAyQATJABuqUgToTZTS03zeOhZUURqY1Qlen0FHBrU8Fl36j38gAGSADZIAMkAEyQAbIABkgA5vLgE2UWVpawvLyMsUOih1kgAyQATJABsgAGSADZIAMkAEyQAbIABnYYgYoymyxgakibq6KSHvSnmSADJABMkAGyAAZIANkgAyQATKwVxigKENRhsonGSADZIAMkAEyQAbIABkgA2SADJABMrADDFCU2QGj7xVFj+2gOk0GyAAZIANkgAyQATJABsgAGSADZKB2BmyiTCqVwrFjx6iOUaghA2SADJABMkAGyAAZIANkgAyQATJABsjAFjNgE2WobtWubtF2tB0ZIANkgAyQATJABsgAGSADZIAMkAEy4IcBijI+VK/R0V/B8eO37Ni/O+74JaqUPvzlpyPwWg6cZIAMkAEyQAbIABkgA2SADJABMrDdDFCU8bHIpyjDDrrdHZT3I3NkgAyQATJABsgAGSADZIAMkIG9ywBFGYoyjL7xwQAHw707GNK39C0ZIANkgAyQATJABsgAGSAD282ATZRZWlrC8vJy3SzSM5nMttaXkTL7p4M2zEVwcCWPhUtR9HXtn3Zv9wDE+5EtMkAGNpMBLd6Hqas5LF5LIJqkbTfTtvu+rLYOJF7NYXFlEuOLDXUzV973fuMXb2R1sxngWECmNpupQAD7RpTRZiI4tJrAUE/tk7RNE2UePI/v/Bx4/+1/geeq5ah5+rfxQwA/++ZnwZwytfvO36QkiJ6H01hcz2NxPYNUYbvuy/sEevuQXc9j4fl+tG/BgOePg23wR1sHxl/bgfaGWjHw4Bhmr+Uk53ks3hjH8BYuYhsORzG7nseRRzr5MN8PbO9QG5vuGpNMZ5G7r7WENePv7n8rGR/keGQ8C8TzYP/xq/pt0QblbVe0vWGrvfb8tNqi7scx+exZvBZD3w711ZL+VrYejYg+uxXPKFmuPteTzNaFPbZhblLWF3v83sFGdN87goNXsyiYXJSuA/bUWLBffb0L2723RZlQN5LPRdEf1RAYDCO7EsdAIIBgOozp5wfR5dMhTlHmM1/5Gn4K8d/7+NGf3+Y9ATBFmZKJsveH8/Y8EMxImZcj6C0bKaOh/c44Dr6eQGwLF7ObZZvGQgT51yaR3CmRqb0TiRfTmP1ChUU5RZmt7xtaIwbPZYpijJp4bECUCU70If1KGpl7SxfBil81ian7xYzP54ZqP1+3Z+xWkTKF10cx5DIuU5Tx5wfVb/ekKNPciqEnJzD3TNjblwDq2/EbKSQO7+JIGS/toiiDQICizG55LnmZQ2x9XYPoeiBlEWMqiMsex4Ld0S5/Y/7W25n1KWfjPS3KaKlepC9lsXg9icRtA5i+HMXQyRHMreZx9JUY+mP+wLCLMr+Or3zrh7j582/jv/0E+PBHv4vL1aJe1N8pymz9wnNbFk4yomYDi9lyHXMr3jcWI6WK/1bcy7VMKbhUXJRTlNnyvqElBpBfz6NwOY5IugHaJvQVY+FW/ht0wYNa3FX0/ybUxZU9lrvlXNWL3X2JMlZuvIxf1uv34M9e+rniYMefN17sv1ORil7qtpFrvLSLooxjTJQCDSNlHHbxt05S/d/vq5+xxW/Znq/v6MLE1TwWr49jdKEZDRvpg/Kzu6Jdm9AOzzbkvTbUf2yiTCqVwrFjxzZU4HY6rr+/H9lstnJ9tQZ0nopjdsVQPAtXxpE80VZTZ7OJMp95CN/66U28+83H8dZf/h3w4f+LP/0Nj8dlU5Sp7LO66dQUZXz1dy+LGooyW943tmKS4KVM45r9t/3DVx+pm7FveybqW2E7ijK1+85LP1c+oyhTu52VDWt+pShTw3OUokzNvG3Cc8vP2LJl9fQyR/XZ1l3RLp913jL7sh5VxyWbKLMnHSFEmeNR5ETiP5Gr4nICIwvNCNYAh1WUMbYu/RTf+71fx/KX/0/8FO/jB3961GUL0z/B2a/8S3z/nXfw/of6Xifc/OAX+OCmS06ZT2i4/NU/wtv/8K7+d+AmPnz/PYiPleSUCbWi/4FRHFQ5IVYyOPjFAfRGtKpOL+vnYCO6PjGE6VemcXTVELEWrk4g+2A32ppqm2DoE7O1aSQX5D5NWd+Fq0kkj7WUfksvc13MXZf+ujaJ7EM9aG+T929uw+jFPAqvlN9+1viRYcyvZzF9Z5NPW3gLZVWLy2I4twpxLL6WRANUa1cgAN1WIuom34mxi1kU1rI4+FAnmhO9mLycw+JaBtl720ptVoll+ZCpVNeS/C0ubM29GEdsttGnPYXPXGyqtsuoV2ukkazv0af6EEr1IvnSFBbEdSvTmDnjwqEWRPuxIeRel/t/VzI49OwQBpLBGupqYdyDvwJq4nshjI5kN8YupI1+s5bFoS8OoKfPUp7uIw1NB8KYeDGNI1IkXryR0T9T4oNKPnX+zae/Nm2SoL5pVX50e7V862jcN4fZBzvQfHQA05ekz65PYupT7Wh2tkvt7VZj3I0p5M+Gt2mMk4KrqL9g7EQMM2/IMelqEmO3Nln6ocG47sNgI3pPJ3BIjl9HL40gmrGyqKFpphdjT01gXl6zeGMaBwWzo8Wxu/nEKI6uC1u1l3Lc3oXUGyLSKYreGsflss8Aiw+KnLSh7XZLHyvjL623HbGzSaix261d6r6l104hf8YyzlvrkezG6FMTZp9ZuDaBqU93oMXWdmseMDkOW8cVS3lKLJj4SAO67h7GjBw7yj6T1GcrTNi3zl9+OAwg4LnPeONQ+Uu9Fpkov01RXavsXDYnm+hXSxFMv5Ixxvi1HI68nsTkvS5jQSAAd2aczwQv7XJhpWTsskeUGm0pPt/L5cpR9hHPadtzqUyfCTieM/bntL0Oyq7lX322S47fhctD6Al3Iv70ZOXn16Y+axsw+MUsFt+KY6DM9nAjolONgXIecX0UQ4lWRB5J4rB4hq7lMP9i1DZ26vbxyZZhU3kPyzOrxNae+5fz2V/hdy2I0MKAbV6wcC2tP+vscwg/Y4GfZ1IADYlOxM8miznmVjJwzvmC+QgOrudx9KletKgxUb02tmD4+RwWbyQQHa7QVnW9evU5h9D9IXxwT3HcXlzLYv7VMYy5rSfUfby+VhjjFQuexoJa2uW1jryudE60h2yyp0UZc/vSjQkkPzqA6avDiN2TwPxqDkcubmT70v+IL/+XHwDv/SW++tgtOF428uUf4dxX/xN+ftMQY5z/tyf6/XX8i//0fbzvvEj+bhNlGpsx9JRLTogNJiE0JhTWiYf6OYdDD3ZYFiHeB11jAMth7rWp0n2aKymMTFvKampB9Gn3dh19rh8d+iRcPswrPDj1ewoh6KilbE+dVj6UrRM0l/uUt5OylyMawFO7pCizMoH8yxYbXB9D9kVLMtarMfTZFiNV2uhXlKlQ18XVNFK3+RVmXGxqta/42bp4kvVdeCWln35ln6TmcGC5zTIgawjdlcARZ3ni9+tjGE4XF7nqgerptYINihwGoESZwrU05t4q+l7V+cgT3Wi0cNf0kWEclmKnuka91izKVKir1V+lEwmX+vpNwOtz4mH0mxzmLk5g3mmHtWlMHrPkaNAa0PvwZOmYoW+7iiFcInhV6QfSD+X7rnOMkxPg6wkkH3eph23yaTBeeHUYSZfxyyaeVLBZ4dIQelTf7upB+rq78NJ46zAOrzv7grf2e+LfZqsc5l6ZKO1ja1lkrfmDujoxfskyTln7pLMvtnVgzPXa0u1vIj/MtEvfKl0UuyxIreOKtR/qiYCzOPBcsrRdq5NIljtVp9KEfcv85YNDP33GK4cWuwl2jP5T6ic3rowxp5ywUGHsFmLkI102kVYb78O0/GJNjZnGq6N8T+1yYcXKq/6zvdzS8dP+d9V+NcYdeS1dypZzjKswj3Ntm8MX6p7FV5/tkrYqvJ7CARfb2p9fFfzl7N9V6ynGKg2dD6Tsz37H5xRr2Xtail/u3JjAjDj9yuGvhZcH0Gl+vkJdXdgq2k/OVVzmfPo1fvqXWRcP43KFOdqRp/rQapblYyyQX4Z5eiZV+uLsrVEMKZFFfiHqJrxoo/3IreZhZ8ZD2yv0V9PHVn9U8IEQZ3L3+fzS0hzTSudD5v0dB094Ggv8tsv0sQeb8VrLGmDv2WtPizKBgV5MPhNBX1SDNj6AGVui30hxAuwRcjNSZnkZ/+WnwHvffw2P6XliOvF//M27wPt/ja89Z9nCdOYV/M0vgJsf/D2+8wdLOHOf+Ns/wedeuYbvO05fuvf1f413bgI3f/Et/MVvTeGBu27B8U/8Gh5d+bd4xxkpIwfxo+f7EOoyFp5aRzN67oxh+rMVkqhWaadIbjv1xAD6s43G9i4tiJa5AeTEpPhqFL1VPl98uBU7SnEAy2HuKRnJ09KE8CPidKMs8p9S37hpaLsroX87PPdkHzrDxrfLwYF2xM5PoWBOaILofmjS8jCXD3fzGxf19zHEEsV6uNWt8ntVHtC6LeRDsszk3yjfa7ukKCMmG7r40YzeM/IEKFF+ugmR81lLu/23rfIkWZSnIfTJcX0hvPBKDIMy34jW3YbBh4wFjH3y47MOlRY1ii3rBOXamLGvV3D4kZh+cs/Ci/3okNdqI33I6AvXOIYUsy1N6Ll3VBc/fE8Q9HK9+0uJMvrDWwi/H2tFQ0BDY6Yf2et5LF4bRlgtsmV0gzhKdfLONjTrkV8aGkd6MPF6racvefdXsR+Wn3yURHcpn3h4VRNot9NuVD8zrjHuv/CazGcTbEDnp8ZwVAjKj3eZwq+69ugLEfQljLw3RQ5rFyS8j3GWBc5aFgce6UGHGGuDjebYZSwWRB+wCI+raUx/uhOtwr+hVgw/m8WiVSBu68Dol+KILykGAggOdGDkuYz9ukADwo9NYXEtjfF5q7jYgP6z0/6/kfTgQ+Un9ap8IPg2xwPxDfRHh3Fo1RqtKOu6bozxfcOOsVv41iJQGuXmcPDBTtkPAgj2tyH86Tgm71bPA2NsUWPW1KkWNOp9SUNjrANDZxJIlBXdK4/Lxb5gqa/49nV5TF9IHznXYxNTlT3UyXDu/WSr/OWdQ+UvT33GM4f2Md64x8ZFGbWIW9THzTbDt8EGdHxsCDNivmH9wqaxBdFnslhUfMnxQGfm9DBGrBz4bZdcPPkRxRWTbhFAygeqz+gRm2XGuGAmggN634oirPcZDY2TPZgQgqV1MVxD31XPportsi4cxXPpE8IP7s+vrXjWNp1MoGA53bLx4yM4ujqB0Zzs++Lv5thpGWNFxPBnjDE2GOlC6jXBSxLDk8bnfLFls23lOZ/yraf+ZSvX3ofM8URd09OLiQtRDM1ZxjjFwQ3rPNb7WODrmRRoROSxMYyf7CiuJ8ScT/8yIovic07NN7LInGq2LIw1hD6ddHlWVWm3ar989TK2GF9I5CGSuMdVzhfLnG/xzfKRVyV2t923/LxI78tlTgOtNBao+3lpl7qWr/6Y2Yv22tuijKXTb+aR2MZ2pV/g7a9Nm9uVHvvqX+E92N978k++hQ/dtjWVRNbIyJubP8F3fvfXzTKPC8HH7Uhs9a2cGJjmrWH0WwF05QdVtU6hJsC2CAOLOm1OcLUmRJ/JuYfkD4T1Y5LnzxiCk17mWhpjswEEtCbELogBNYP0R8U37UFDzLCq6xYOqtW3+Hcv7a48+dfL8tsusYA514PmgHoAq2/wPdyrSjurPkAaWxB/UUSuuISgmuGpGzg22Y8o4/z2TU0gLX5tvktM2pyLVgsTtQiJPvylJr7WiBSDH8mORazTJ5xu0Q01LApMRmv011ZMEryUaVwjoj8ckS6Si+ICQrHuwmGoE0khYl0II1SFd9NOVa9z6+uyDi7fvpW2VX7eJZKsap+TdXO7ToWLzz/SaYpVAZmI0CpyeG+nv+eD8tfCCypKUX5e9pFFtWCQdbJFBCmbKzHS0m+Li9FY1W2Gqt+Ygr4qt+Kr4sd9rDJsncPc4922aAyzP5cbN6qMX1vjL68cqjZvrM+4cWjlq5T98kyVL0su4tadiztRVnHhpwRelZi8hMOKDNjrVbYuNYy/ZcuyzGuqj3EBGKJEqcBVqXyrLyr+7KVd6plaMm6VPr+24lmrWDK2mct523oOBz8T0hf8LfeOWb6EknUqGY8l96a4448tuw3dngOKo83pX/b7qbLdXtX9rGOYfK/EBm4RbBt/Jin/qH6o1z3ci6nrji+R5DxkQ1/YmX2ntD8UbSa/kHCb86kvMUwO3Gzq4b0qY3yxLkZZXvqqqx19jF3Oe/J3D36sY/vaRJlCoYDTp09bFNDd3fiJiQmcOnVq2+prRMpIAcWZ2PfJNbz9IfDef72Kc3r0zD/FFZEAGD/GN/9nS/SM+FuJKNOLr/7tz0ojbcqJMmLicmLE3AqxcDWFqc+H0bfRPBpyr2b+NbnH2xoiaplU+xkUjEGrdKA1BirLNh81QbDe0/Gz2stqfDaDids0BIRA9WYK2eenYSxejIdRcYFXK8OVHtCqTLcHp/qbfPXRLvsAL8s2HzIe7lVlILKX76in+GzFiZyMSDLr4/L5Kvev/E2zLK9kge6wo8mhsk+FbzjE/vOIz3r68Jey16JZJ3UvyY4pyqiJokvIe0Wbq/LKvFb8bHl/bcUkwUuZJX1e8VLic2k/R//XI5Lke3oeBPV5P6+exzg//c3LWKF86JJXyGyngw8lhFq2LOoiheukVJW/ea9l/aUEY8V3xYms3G6qrhW+EiHoDxS3Dh19bQyp5R50ueVDa2pB5Jzc+iryR7w8irF7O4s5xlx9X9l35Z5J5rfLJf1Z2rRiOwMIbIm/Krel+Cz222d8cGixsZd+rupU/nlTuU1KtFNf2KgccbbFoaVO6n7Gq892VRxD3ftS+XapxbFlXqPqWTLGBdAwOySjPyMwossskTKWiBF7+9zrVHKNl3bJa6o/v6S/zHHK5Zlby7NWt4mMlta3xmSQfTYFY+4m72n2ReczVdlB1U2Nnf7Ystut0jjut3+p+nl4NfPfFHM5ms8667jpHHcVW66vldpSWqcGmbfLzHNm+to5d5cRgZZ6Gf3VTWAtvY/d3va/Vx9bKrfJEPCd9bXfo9L99b9VG+Mdtq40Fqh7VW+Xzzo66qDuw9e9YUebKLO0tITl5eVtEzk2ClEmk9nW+uqijNy6VCb1C/Def8YfnhMiTAP+t2+LjUdeRJkE/sMPROZfx/ansqKMAZ/W3YrwJ2PImonysjh0xr4X27ONK+3VFAO0+XD0B365CXDJhF9NEMyHQemDX4kyxuLeGHzFhO3wK4MI35XAgkh82W4kArZuhfBsA9tgV/kBYJRZeQKgX+OjXfYB3t9kw0sb7eW7+LHiRE4u8s1wYpfP2+zn8ncvDzyXyavNjiaHyj6lnJgTmlomij785V2UkVvq3AStijZ3saHVxhU/W95fWzFJ8FJmSZ9XbSnx+RZNgH2NcR76tqq/2r5kslneb41Ho/rWH5NR23inFhbq8zJqQG3d1Br1LYwb/UbSy1ghrinrL+fioGK/VqKMNQzfaJ/Ymhr5/IiZaLd8InMNjRNdGD4zZklsP4lk2fxWlX1X7pm0YVFGRXlsqr8qt6XoS399xh+HikfFhLeFT/nnTeU2KVFGRcb6WWz5blfFMbTY7qKd1TZjZ181ri3bZ0rGOEPEi10Q27JKn2H2XCLu9bDWqeRnL+2S15TO7SRL5sJb+sulnmbdN/CsFeKbHg31VhyR26KY1SN1jXGjuF3ZWSdlE1U35Q9/bNntJu/hOo7761/2clVd3V4r5b9x5Ntzjrvm88et3EptsV8v8jVlXPN2CS5L+7o9p1kQXZ+bQC3bhpw2qj6HqNwmNU4Ut1vZ2+m8n+vvFZ9lpeWVH+OK11ZvV/Fa1zpV9DM/u9dsRlHGB/BClDG2LpWVZET2F3z/q736FqSnv/43tt/17UjH/xEe//0/w7u205ea8bvf+Qlw8+/xjevWqJr/Hle+/l09+a8t0a9LncXe2rGXs1is9RsWuSVq8fq4kcfDvEflgbBahyg3AS6ZvMgQyEqnKpn3klsY5s90oefhSeOEkoE+ZFbSGFvowPhrxRBY8zNme7wOYl7aLScAaiuV2z18tMs+wPubbHhpp/JF2VOpKiRyCzS1Ii4SDtcy+VJ2kQ88U1xT71tf3Sav4u8lE0gZfVIr79Z7Wn/24a/SOim2JDvmpFZN5EtPBFOLiJoiu2r011ZMEowy1UkZyg7215I+r+xe4nMZpmzmibKX44V112t8jXGVJ/f28r2MFaINUqBYyyL/gMw7I21g7/uW9spwcbFdqUn/eePfSNrrbrmX8od8LeuvlhASr+aLJ6eo7bRup0H1dmFCPylqCD2O8ov10NA41YepNyxllrtW5Je6dQgHRC6psifwVfadGgdLIi+krcuW62XCvun+qtyWog399JkaOLQxUbpQK9ajyFNZplWS1zLbl9o/nUTBcnqiiigxtvUWyy+9Zw3tks8VP5F35dulRCtvkTJiu9uB1RwOv5oyTyxbEKdNbuC0S9MmXtpV8kxVtnU+v7boWSu3noutqN0iYb841Uevk3hOtiL6rLGV20iW76yTqqtznqQiRN3GSQ1Otkx76XxXGsf99C9VNw+v6hm+mpY5fdRn3Pq923vqeudrpbZYr1X2ymHuyV4jb1q1vi7Hf/3LAf3nHOYequ0gEKv9q88hVP9227LeiP7HjRxselqDcs+Pau97GeMtZVQaC1TbqrfL6g/+rOy2X18pylg6WDUIRkfbjFOXbr6Db37ll+25X47fgnuv/Bv8GMUEwErA+fAf/i/8/vlfwSdOJ/C//MVfm6cxWU9fMvLP3MR7b/8W3nzgl3HqzAn80bf/zjyNySrKFJNVNsnkhwGIRL/9InlurZEMcjAqXBnGoEo6F+tA5MEEZsXRg67fHlQfQMpNgEsn/FJxF0k1H+1Dj0zm5+oTuXA++mwUqVenkVrU9MU2AeYAACAASURBVNBxIRrMnY0ja5nQuX7ek8+9PNTUtpQcDp/rsz3Qivf13i77AO+cbPh5ILv7xQgDz2PhRRUu7bxO1lUce+hMsPrIhH5s6Ya+wZO5JxZvJJFQSdqcvihZoMs6ukwgVQ4HkYS0mCTP2Sa/v3v3lx9RRn37K3INDIj+ZU1O58juX2SnWt1r85fR97wtrLzWReV9KFwZwZBMEO38bGmfl+1z8bk6Ynju6cFi4nEnK35/9zXG+elvXsYK0VZ53doUJj7WrCdT1xO0f2II0+LIe7dIKrVX/kYCIw8kUKiSyNA8peb6RIVIkmpcGX83/fVEL1pkQnkz8bo1ea+M4NETsdqStHcg/uw0CusqL5ZRbtMnhpF9uA89KZlQPiAS/YaMpMgqT43u2yB6HhjF5OludEaMZM8i50hjvNtI7lku90uVb5TVM2nmMx3FhNsxmWzZLe+T4kzyo7bVOPk2flfh/d785V6G1T/eOfTeZ2rh0MqEt7HD/jyztikANXYbXwLJBKci0e/HY8ape9ZEtyovkUy4rQ4B0COFbYl+a2iXnEssrk0hfUomHFb+LvNaqV1mn3GeZFcyxsnoyZUkRudb0BYv9oXqTNht6Xq9l3a5PFONsqQdLV8qKH9t7rPWEDoKl4eRPD8NQyQ13jv6/DDSr1lF/tI6GXV1zpN8smXzsbxHmbmu9/7lwT/qvsoHN8YxMmOMcUbS82HjRCyLD0S+xJ6H05Y8O5XuU7ktRWaU/bLIL4eM9URLIzpuHcDEy2LsduvrKoIzjdRyFLPWpNyqXTW8eplDGD4QeekchzucHtNPdLSdYFhDHTxtsbeUW2ksUDb20i51re7j+8f1thx9NVrzKZPF8ioxwr/tRjvZRJlcLoeTJ0/WzfalWCyG+fn5bavvaOYu/OWPgZvv/jG+Ik5H0nPHWF7V1iZ1VPa9R/Af/tsvHGE1N/H+D/8M3/8xYBVljj/4JXxbhM/Y/vsA7/7dn+PtnwM2UeZwVN+LbIaOWsJKax6Umtsw8nLpUYPiHoXV3DaIMgEEKh2raluwSMVctNv8Nl0q/qs5S8Z+n4OOnDi52VW85xbNYHzb5RJ+bJ2UeWyXfYBXD0tvYbmeBpe+HqRdwlRt7apU12tjiNV6zLR4kGmNGDxnOe5bcWudeJRMXqUP1eTFOmGqsh2l8uKpAhuVbGDl0K1O+gPbZQJZ5vjThZdjmHzRnS1PPq1U1zL+2gpRJtASwuhFl/HD4i/vC5YAApWO+nadKFbwp5pE+RrjtmICrKHz/pTrMd+LYtyysqXqbNlGJMZhW9JfyzWKFSN5qDEebTQZsvKX23joTGRaKQR+4ZI9sbMxzpWOmeI+dtFXjYFu19qFHlMgVWOK89XCYaX7OxPSV7rWLbRf+EHZzYu/lN/Kv/rg0HOf8cNhJR8Iv6jnk+h/ctxz2l79bh3nK43d4nSde+1H26qIwlIWrff30y41XgTR9YBbn7SW671dyvclz56S55pKaOzC9loW86+MYHi2cQNzWw/t8vP8quQv0W+t8x2XccmdbxWlIU6cLJ66ZOTNyqGwaj35x+WZqt9H8WnxV6W6OtnyM+fz3L8UW15eGzDwpMucSM27rX1mS0SZABrviJce3y76rP5MchNlAgiIyHRxAt9qznVe7O7vKvbwMIeoOC9YqbSltcq9FbOSh/I8ex8LTBt4aZe6v+qT+phpYVr9na8bGBM9MrDDNraJMiZEO1yp3VqPzJN/oEfC/OJ7T+MzTkFG/11uQ8JP8b3fM05R+sTjT+Ibf/8jfCCOu/7wH/Cj734Zqw+N4+s/dIgyx2/BJ19bxffe+Sk+BHDz/R/g7f/nWTz9yHl8xyHKiGNZu+8ZhjUh78LVCWQf6qmSALEylNpIN8YupHF0NY/FtRyOvD6O5J0dGBBHM1smtX78Y0xqSwf2cpMXrbcdsbNJzF5zLvCsA1TxYW7dCqOiERZtD7LKbba1xc8D2uwjGto+EsG0yusjJ6DOQd1LuwxbqXY6Jxs+Judm3Urb3pgLY+Il6WNZV5soEwhA1XXuuvTBjSnkz4bR65aIs8K9bLZV13WEED2bNMO19Um21V8lk1fZBvWwcnLo0hfUxN3pA9f6qHo5XpUNKnJYrk5qcWJtlyi/qwPxpyeN/rUyjZmzYfT0GQ95pw9qqatXfxl9r7RP+rmn27XaSBdGn5rAERFZJ9myjhvl+rz6dqrEBqFW9D8wioNXsw4ho/a6ex/j/PQ3OVFzsulgSrdZUwv6Hxwz+V+4lkb+kT70HBNCu+r7jn6rtgt5SfCrthmWEZHd/FbuPeUv05eiTFHfMmOBShap/K9vxXB7Jjn9qj9rkpi8twMt+rHXxfaX9EOxYH11DGP68fPF6/yIMsF0D8bOJTH7RjGhvf78dNk2UosoIwRKfXuXF3+5MWJ7zw+HxjHsnvqMZw7Vc8jSp1Xf1l+tzPpcsMixe+Z12b/Xsjj8Yhwx1xMlSxP4um718dwuCzviM2Kcsc05amuX6jMlzx6351qX2Got5lpZzF+pluTVUl8bHxXer9Yuv8+vLXjWGnlAROSDZXuj2mZqGw8lW85nqhIqbNcGoObIVdnyO+dzjl1mX6j9mRQQc6IvFp+bYiyaeqAb3fdZT58SfvYzFvh4JmkN6LpnpMj/jWkcPD+I/gP9etR5yTZPwZ8ZHem2TawCk1XYrTaH0J9Vygeqv65kcOjZoaon+ZV7ztnelzyU9F+z3j7HOPk5T+3Srw2ih5Eye154sTFnsmX0G4oyDoNUMpZx+pIlMsZVmNm6v99xxy/ta1gr+YZ/q/1BSNvRdmRgFzMg87JUT/CroXEohOj5aehbiTa4z7/sAtPHM3NfcuXZX7uYOfp4a+daKmr0xjjimaD9Xi3NGHxS9GFrpAhZ2ZdjyW7th0r8r7Kdlj5jvyUD/higKONj0KMo4w8udkbaiwyQATJQKwPGEbmpV3MQOS8mbq+wncHxja9ze1EtPqAo49dvPvzlY95Ri+/4Gb++2+brVZSKyK9WaJW5jUSERwNacz2YuCT6fBobSlpKxuxiF+2xKfYIDqhcYeI4c/s2Q4472zyOkOlNYXo3cUtRxgfUFGU44Oymzsu6kEcysBcZcG4ZyWH2kS40V3pWqe0Rm7CNVTFFUcYrWzX4q5Iv+bc9N9FWfcp8LZNjrLhVMIe5J3rQShb2Pgt14mPnVk5n/i2T7TppD+vr9fnG67aTFZsoUygUcPr06boZBCcmJnDq1Kltqy9FGXbO7eycvBd5IwP7kYHiIl/PL/Dp0lwr28EFRRmv7O0Of20HE7yHVyY8XCdzYxyw5DbS88u8OobxO9tL8ivR9h5sSkFgy9ZDSpTR84qd2Vj+SrJMlsmAOwM2UWZpaQnLy8tb1qk32wmZTGZb60tRxh2izfYry6OdyQAZIANkgAyQATJABsgAGSADZGA/MEBRxoeyTlGGg8J+GBTYRnJOBsgAGSADZIAMkAEyQAbIABnYHgYoylCUqZvIKA4K2zMo0M60MxkgA2SADJABMkAGyAAZIANkYHsYsIkyuVwOJ0+erJtFeiwWw/z8/LbVt6fnf0A2+9/t6D92jO3pGLQz7UwGyAAZIANkgAyQATJABsgAGSADW82ATZTZ6puxfAJNBsgAGSADZIAMkAEyQAbIABkgA2SADJABgwGKMj62LxEaDhxkgAyQATJABsgAGSADZIAMkAEyQAbIwGYxQFGGosy2bf/aLGhZDgdAMkAGyAAZIANkgAyQATJABsgAGdgLDFCUoShDUYYMkAEyQAbIABkgA2SADJABMkAGyAAZ2AEGbKLM3Nwc7rvvvrpxRCKRwLFjxzzVV5uJ4NBqAkM9VBP3gprINpBjMkAGyAAZIANkgAyQATJABsgAGah3BmyizNLSEpaXlz2JHLuh4ZlMpnJ9Q91IPhdFf1RDYDCM7EocA4EAgukwpp8fRNcOqGC7wW6sAwcuMkAGyAAZIANkgAyQATJABsgAGSADO8/AnhZltFQv0peyWLyeROK2AUxfjmLo5AjmVvM4+koM/bGddwA7AX1ABsgAGSADZIAMkAEyQAbIABkgA2RgfzKwp0UZHWqtAZ2n4phdyWNxPY/ClXEkT7ShgVEydRMRxcFpfw5O9Dv9TgbIABkgA2SADJABMkAGyMBeZ8AmyuzJnDJClDkeRe5qThdlFi4nMLLQjCBFGYoyZIAMkAEyQAbIABkgA2SADJABMkAGyMAOMmATZfaaAmVuX7oxgeRHBzB9dRixexKYX83hyEVuX9pr/mZ7qKKTATJABsgAGSADZIAMkAEyQAbIQD0xsKdFmcBALyafiaAvqkEbH8CMLdFvBD1NhLWeYGVdySsZIANkgAyQATJABsgAGSADZIAM7CUG9rYoYwlB4pHY7Lh7qeOyLeSZDJABMkAGyAAZIANkgAyQATJQ/wzsG1GGsNY/rPQhfUgGyAAZIANkgAyQATJABsgAGSADe4kBmyizJxP9WqJl9pLj2BYORGSADJABMkAGyAAZIANkgAyQATJABuqbAZsos7S0hOXl5brJvJzJZOqqvuws9d1Z6D/6jwyQATJABsgAGSADZIAMkAEyQAY2kwGKMoykqRsRbjPBZ1kcSMkAGSADZIAMkAEyQAbIABkgA2RgpxmgKENRhqIMGSADZIAMkAEyQAbIABkgA2SADJABMrADDNhEGeaUoUq40yoh708GyQAZIANkgAyQATJABsgAGSADZGC/MGATZfZLo9lOdnAyQAbIABkgA2SADJABMkAGyAAZIANkYKcZoCizA+FJO+103p8DDxkgA2SADJABMkAGyAAZIANkgAyQgZ1ngKIMRRnuGyQDZIAMkAEyQAbIABkgA2SADJABMkAGdoABijI7YHSqkTuvRtIH9AEZIANkgAyQATJABsgAGSADZIAM7DQDNlEml8vh5MmTdaOOxWIxzM/P1019d9rZvD8HHDJABsgAGSADZIAMkAEyQAbIABkgA7uHAZsos7S0hOXl5boROTKZTF3Vl+DvHvDpC/qCDJABMkAGyAAZIANkgAyQATJABnaaAYoy3L5UNyLcTncW3p8DNhkgA2SADJABMkAGyAAZIANkgAxsJgMUZSjKUJQhA2SADJABMkAGyAAZIANkgAyQATJABnaAAZsoUygUcPr06bpxxMTEBE6dOlU39d1MNY1lUZ0lA2SADJABMkAGyAAZIANkgAyQATJQ3wzYRBk6s76dSf/Rf2SADJABMkAGyAAZIANkgAyQATJABuqHAYoyOxCexA6y+zuIlh/EgZU8Cq8Po79n99e3bphqCGH0YhaLq2lM3N7IKDeOP2SADJABMkAGyAAZIANkgAzsawb2jSijzURwaDWBIS6w9zXw3sQLDV2fn8Tieh6L6zlMHqMo481u1e2k90PdrnksPNFNFvkAJgNkgAyQATJABsgAGSADZGBfM7C3RZlQN5LPRdEf1RAYDCO7EsdAIIBgOozp5wfRVQP82qEhzIpF5Y04Bposi1CtCdFnc/pCnotNi11qsPFmCQDWcrREDyYuTiF3us1Th1eRMguXouijkOfJZlZ7l/1ZRcqsTGK8wEiZsnbaJf2G9dt9Yxl9Qp+QATJABsgAGSADZGBvMWATZXK5HE6ePLl5C7AtXljEYjHMz8+Xra+W6kX6UhaL15NI3DaA6ctRDJ0cwdxqHkdfiaE/5t+ZwROjevREYTWLyWNa8d5C9FkVkRWMANiNg4QRoZHDgWVvosxubAPr5L+/0ma0GRkgA2SADJABMkAGyAAZIAO7mQGbKLO0tITl5eWi0LDFospGDZPJZKrXV2tA56k4ZlcMwaRwZRzJE21oqLFtuiizOobMsznMP9qFoCyn5e4xLLyWQOYSRZmN+nUrPk9RhgPxVnDFMskVGSADZIAMkAEyQAbIABkgAxthYH+IMsejyF2VW4suJzCy0GyKKX6Np4syK3FEToyicDWGPiHK6FuXssh/uhuJS3kUnupFkxJ9dFEohvzlDAp6Lo0s5n9jHMmPtxbr0N6Nyet5LKry1Gf1Vw29X0hjcW0aqVstkTktLQh/dgyzbxntKrw1idwXetER2liHaMz2IfViGkdV1M/VJCbcRCwtiLbbIsiqdq1mMPtcFJHJYFHUa+7F9HoOB+4PofuBpF7mwmsx9Pc2Y+CxSSys53H0hQF0WraBNWZ6kDifwmHZrsUb0zj0XBSD45a2BzREzostZMPo7wwh+mQKR3TRLYcjF4eL1zaEdH8YuWEMUa7kZ7mlzeBAlitznujX2v7uYltx/8eSph9EfWce70HI0ia9bOGv5VEcuJY1ctUIez01iD6xtc7mb5d7OP+uBTHwZEZnIrlQer02H8Xcet4mGga8+EvcR9pM34LX0oLBh5OYU7Z9WW4FtNbHY7uMCDOrDyrk6tHrOoipixmdEZHX58iVFNKf6kCz5d5KaJs53WZn8UYa0/fbr/VtY8t9+NlSxmgT2oQMkAEyQAbIABkgA2SADGwOA3talDG3L92YQPKjA5i+OozYPQnMr4rFey3blzR0PjCBRbFQb+/F1Oo09EWxnq9mHMOJBgw9nUfh4iA6xKJOC6L7cxNSjLEuSMXPOczcHzKEmUqL7MYOjL9uCDZhtdAPNiNyflomorWXu/DSoE3k8NNRtHwEB6UYYxMv1lIYSduBaz0xiiNW8UL9vJLCSFYKDVKUOfRC0nJtDrlnxyw2sWwDqySiXImhT7VfiTJracxeNkQpW30vRYx8QZXKM+tr5Bky7ORTlIn1Ii3FPtv9ncmBtSYMfrGMv2pMdttwRxxHhfByptMh6riLeJ78JZiVNis8G0Py1VLbFl7oR0gJFj7a5UeUKVvX9TwOP9FjCjMqafCR19IWvlR/yGLqBHPW+On/vNY+xtEetAcZIANkgAyQATJABsjAdjBgE2UKhQJOnz7tWOTtXkdMTEzg1KlT5es70IvJZyJ6NII2PoAZW6LfCHrMRb7XNspTeUQ5MrHv7IPtaDwxigV9sWos6pUooyIWFt8Yw+itLcaWqeZGdN1l5LVZvDGKiEwiq651LrKN93M49Nl2s50tJ0b1Bfnh82F09RuRKcG+EKLn0iis17oYlW1bSyP5kUajrpqGpolODD8xgmGrKDPQiykR2fPGKKJ5ea2lXQvnZaSQLsoYi2SxmG5RSZJF9MxnQmjUhQVLnpeGEEa+NILRj4bQLCN+gn3tGH5GCBpZTNyu/GQRT9amkb2/E61NAQT7OjF+KY/FtQmMZtW1xquKqvCeU0beo1ykjNaEyPmMLozNPzuI8HiDLrAFe1vRd18cCbOuAQSkHQrP9iPULQWr9iZ0H48i+1CNJxBZxDo9WksJJep9JUyJ9736yyLKGFFCk3qUVJPoJ50dhm1Xk4inpG1rbJch0JSJlFG5mVYs99Ya0L4UQf6a8O0kEjNWnxp8LVwaNqK0xLX3JPT+sXCupxiNpuzDV3Mc2Y4HDO9hH4doD9qDDJABMkAGyAAZIANkwMmATZRx/nEv/a4vyjd8JLZFlAkEoOeRuRhB4nwW+U+2ICAjOAxRRkPfI1Ol2470RaGMZrBGVDS0YuSicwuTvG51HMOjEl6tAZHzOX2rkxk5oxaaHX2YFluCztay0NcQOp3UI3gOna28DUqIUAXndipRB82IFNK3FYnflShzI4Gh/gBUZMOijHrxKpSULuKVKGOJNpJ2NY6yLl3we71XkfkqoowQD9aNqCjr9qvi5y2DTVM3JnQRa2xDW+fsZWvouD9VsoVJiXgGj0YdPPtL2FBFF1kjnqy2tUZN1diuUn8WbdVyz5jOoLX+qt2ivxWEoCeTNZs8vRHHQH+xDMWdEkfV5/lqsZHuU/5OJsgAGSADZIAMkAEyQAbIwE4zsG9Emc0xtBRaVPSE/q1+DoUVJZrIhbzIdaK22KhrHYug4O3DOGpZYApBp2SRLaMebFtG1KJZbb9xeS1cCKPVcT9P7W9rR/wFtc0mi7nnhzF6ol2PQil+XgpTLvc1t/CsjiEmTraSoow6Ilwtou2/FxfZ4h56TpsXJmWOGLUVRbxahRZpZ6tAYBUObNcag8xmizLaQgyHbf6rPJi13jGsn/olbFS4lkLmwX6Erfl3avCXNjmIA7YtTC4iXsCHv0Qd1PYltQWvSr1qaVd5UUZFa5VulxNs6NFultPNnDyZjKoIHo9tMD9Xpa28rjLjtA/tQwbIABkgA2SADJABMkAG/DNAUcbXQswQAwqvDKJTfE5rQuyCJYeMTYipHGmhRJmZ063F7QRy64bawmREPTi2I22lKKO3SUNzvgeJJy3Ja6+PI67yxPhZ5PsUZRoOlclpowtAu0uUUf5TURueBp8OsbUpiqwlge3c2WKOFE9lWHmVW+jMBNFSxDO3j+nXbq0oo9fZZ7s2KsqoSDCKMv4HfN+MWXnjz8WxmragLcgAGSADZIAMkAEyQAY2iQGKMr4MKUWZst/AW4UYDf1njRNybKcmiftpQfSdMU5Usp2eY9ma1BeQUQ9XY7BtU5JC0OLlIXT7qnsNCziRn+NEXD/Jx3qilL7FZC2NsdkqZfoSZaS9RALkh7rQZjlFqnQRL+3sO1LGLTFuuTZYfVl6jZaN4KCI2niqz0w862fBK/LfjL4o+PBgxwp+VluTBEe6iOeyrcyzv8R9fEbKONvspV2l/lT2LW6hc9u+1HqPsX0pd2+z/gCgKKPsxlcnh/ydTJABMkAGyAAZIANkgAzUCwM2USaVSuHYsWN1o3j19/cjm81uY32rizK6ELMygsGmANQJOSUJce8TJ0DloXKrWGHRP7M2jeStxnHO8492OZKVym1O6zkcOhtGr0wway2jtp81DJ4ZR/LuDnTI5MEBkeh3Mozp63kUXhpAuxQH1LaZhUtxROdboSeCdRMOfIoy+jHXa9NI3ymTIotkuB+PYPqSOEZ6Y5EyAZkDZvFaArGMkZS3sp0qizIBlVBX90OvmXA5oEeN2BP9avlBTJ0bxMBMc9FW7U3oe3jSkcC4hoFTHqc+f6YLej4dp4gntv3IbU5V/eVTlKm1XeVFmWJdF1dSGLtNsqUn+o3igDiae2UMMZlfqSZRRmtC/yPiOPYcjjxnP469Mg81+MatT/C9bRyv6TMyTQbIABkgA2SADJABMrD7GbCJMktLS1heXq6bSXMmk9ne+laNInDkxKhwdPXiahoTdzSV2lou9ueeHcMhy0kzts7U1o6Ey3HFRk4Xq3jhB0ApQrjmiskid69IZCzLq3jUdx4qZ4y/nDIaQp8atxyVbckns5rTE7xOHlPtkXX1ESkTaGhF/KXSI571481Vu6SIZObGcdjCmTi2/HYruw+UeOBaru2ob9U+P68your1MWQv2U/p8u0vYYeqjBfr5r1dldgSJypZcshUZCuL/Gl5jLwQm2YiOGTJMWO2V/rR6S/971YfW++rGOBrsZ/TFrQFGSADZIAMkAEyQAbIABnYcgYoyviBrOqC1SHKiLJbWhBeHsWBayLaI4/F1Qxmn4sax/e63lsusuXJPh2u14gjikOIPjaOWVWuKSDYBQFzoVquHMv7wZEujJxP4fBbUrxYzeDwSyMYXmh2ROsYJy11noohfymDBfPe8njiJ+TpT74iZQIIBJvR99kxzMr7F96awszjYfTcNoRDG42UEe2MdurtOyIiLlSdrYmYrQt29XfLq9si35mYuPDWJHJf6EHIety61gCnrRbeFNdVPuXKq++M3EMOccPiV70clzooG5gimvhMVcaLoow4bctbu3yIMqIOqtzLGSnSZTHvwmFNogwjZbb8oeKVW15n6UvO/srfySkZIANkgAyQATJABvYNAxRlCPu+gZ2LQC4CyQAZIANkgAyQATJABsgAGSADZGA3MUBRhqIMRRkyQAbIABkgA2SADJABMkAGyAAZIANkYAcYsIkyu0ktYl2oXpIBMkAGyAAZIANkgAyQATJABsgAGSADe5kBijI7oITtZaDYNg6YZIAMkAEyQAbIABkgA2SADJABMkAGvDFAUYaiDEPUyAAZIANkgAyQATJABsgAGSADZIAMkIEdYICizA4YnYqhN8WQdqKdyAAZIANkgAyQATJABsgAGSADZGAvM2ATZVKpFI4dO1Y36lh/fz+y2Wzd1Hcvg8S2caAkA2SADJABMkAGyAAZIANkgAyQATLgjwGbKLO0tITl5eW6ETkymUxd1Zdw+oOT9qK9yAAZIANkgAyQATJABsgAGSADZGAvM0BRhtuX6kaE28sdkW3jg4YMkAEyQAbIABkgA2SADJABMrD/GKAoQ1GGogwZIANkgAyQATJABsgAGSADZIAMkAEysAMMUJTZAaNT/dx/6id9Tp+TATJABsgAGSADZIAMkAEyQAbIgJMBmyjj/CN/JzBkgAyQATJABsgAGSADZIAMkAEyQAbIABnYGgb2jSijzURwaDWBoZ6tMSQBpV3JABkgA2SADJABMkAGyAAZIANkgAyQAT8M7G1RJtSN5HNR9Ec1BAbDyK7EMRAIIJgOY/r5QXRx6xL3DJIBMkAGyAAZIANkgAyQATJABsgAGSADO8TAnhZltFQv0peyWLyeROK2AUxfjmLo5AjmVvM4+koM/TEqeH4UPF5LXsgAGSADZIAMkAEyQAbIABkgA2SADGweAzZRJh6PY25urm4Usu7ubiQSicr11RrQeSqO2ZU8FtfzKFwZR/JEGxp2SAUjvJsHL21JW5IBMkAGyAAZIANkgAyQATJABshAPTNgE2WWlpawvLxcWeTYRWJGJpOpXl8hyhyPInc1p4syC5cTGFloRnAXtaOeAWLdOQCSATJABsgAGSADZIAMkAEyQAbIABmojYE9LcqY25duTCD50QFMXx1G7J4E5ldzOHKR25fYaWrrNLQb7UYGyAAZIANkgAyQATJABsgAGSADm8HAnhZlAgO9mHwmgr6oBm18ADO2RL8R9DQRos2AiGWQev6EkwAAIABJREFUIzJABsgAGSADZIAMkAEyQAbIABkgA/4ZqGtRRuSTOXbsmKftVjwS2z8c7FC0GRkgA2SADJABMkAGyAAZIANkgAyQga1jwCbKhEIhhMNhTyIHnbJ1TqFtaVsyQAbIABkgA2SADJABMkAGyAAZIAN7nwGbKEOH732H08f0MRkgA2SADJABMkAGyAAZIANkgAyQgd3BAEUZnsLEyCgyQAbIABkgA2SADJABMkAGyAAZIANkYAcYoCizA0anIrk7FEn6gX4gA2SADJABMkAGyAAZIANkgAyQgZ1kwCbKxONxzM3N1Y065ifR704amfdmJycDZIAMkAEyQAbIABkgA2SADJABMkAGnAzYRJmlpSUsLy/XjSiTyWTqqr5O4/N3dkgyQAbIABkgA2SADJABMkAGyAAZIAP7lwGKMty+VDciHAeq/TtQ0ff0PRkgA2SADJABMkAGyAAZIAN7kQGKMhRlKMqQATJABsgAGSADZIAMkAEyQAbIABkgAzvAQF2LMhMTEzh16hTB2QFw9qJCyTZReScDZIAMkAEyQAbIABkgA2SADJCB7WTAJsqEQiGEw2GKHBQ5yAAZIANkgAyQATJABsgAGSADZIAMkAEysMUM2ESZ7VSDeC+qj2SADJABMkAGyAAZIANkgAyQATJABsjAfmaAoswWq177GS62nYMrGSADZIAMkAEyQAbIABkgA2SADJCB8gxQlKEow3A0MkAGyAAZIANkgAyQATJABsgAGSADZGAHGLCJMvF4HHNzc3XjiFgshvn5+bqpL9XB8uogbUPb1BMDodA/Qyz2qzv6r57sxbqyf5MBMkAGyAAZIANkgAyQAXcGbKLM0tISlpeX60bkyGQydVVfQugOIe1Cu9QbA6Ojv4Ljx2/ZsX933PFLdTNO15tvWV+OR2SADJABMkAGyAAZIAPbyQBFmR0IT9pOB/NeHFDIwOYzQFFm821KTmlTMkAGyAAZIANkgAyQgf3IAEUZijL8xp0MkAGfDFCU4YRhP04Y2GZyTwbIABkgA2SADJCBzWegrkWZiYkJnDp1igtKnwtKdqTN70j1YlMtP4gDK3kUXh9Gf8/+tcNG/UVRhuxslCF+ngyRATJABsgAGSADZIAMCAZsokw4HEYqldqTIoc2E8Gh1QSGNnEh2pjtQ+rFKSys57G4nsX8S8OITAb3pP04YNQ6YGjo+vwkFtdzmDxWaxmb9TlVF8HrbqjPZrVr+8vZNFHmoafw3Z8D77+9jgvVctQ88y/xQwA/++ZnwJwy2+9zjoG0ORkgA2SADJABMkAGyMBWMGATZbbiBjtaZqgbyeei6I9qCAyGkV2JYyAQQDAdxvTzg+jaQIRJ64kRzN+YQvruNjQ1BRBobkTXJxM4spLCSFajMCNtq4thumglhADnvxwOLLc5bKWh9zPjmH1jWPfVjvJTjo/mXkyXtKW0bYYIo4SQ3SGCqEiZhUtR9JUVKDWEPh7HgSvjiKd3/8CrHR5E/tIUJrZR9KIos/u52JVjR7kxhe87ngPki/ySATJABsgAGSAD+4eBPS3KaKlepC9lsXg9icRtA5i+HMXQyRHMreZx9JUY+mO1OVrLR3BwdQqTdzTZJ5JaEH1n0lg434smTrJ129QiykTO57EoBbRdORjVsSjjzZ5SSFpLYaQORJngidFtj/yhKFPb2OmNP5ZNO5EBMkAGyAAZIANkgAzsHwb2tCijg6w1oPNUHLMrRiRD4co4kifa0FCraBJsRuxCDvNPdLsKL8Y2qTHEahR89nLnMwQat+gYa4fTsOtFGQc7ldu1uyJlvPFFUaaanSjKWPssf67GC/9ORsgAGSADZIAMkAEyQAbKMWATZeotp0wsFsP8/Lw9WsWxYA4IUeZ4FLmrOX37zMLlBEYWmhF0Xufxd20+irm1SSRmykDV3IP0ahYTtwdgXay3LkaQvZxBQWx7uZHG9P0daHbcMxjvwPBj45i9ljW2+qxmcPilEQzPOyJy9EgNKW50dmD4/ASOrgrRKYvZp/rRFbLUTQui7XA/Ui9M4ogSpt6awsy5fvT2q+sMIaRwcRBdByOYeSuHxRuTSN7eiNZjw4agdX0c8Q1uy7LawwmkEe3g3AJk/d1FzOkMIfpkymzXwtUU0p/qRKvYTqbbdufbFQgogWMayUIDej45ioPCvut56Cw6fSu21410IfFsWvo0hyOvbVBIDEihy7rlyiUSyfCP1ealPy880W3vby0tCH92DLOyTYW3JpH7Qi86TAZl+8X9Yr1IX8licTWD3Cfb0HBwwOiXq2lMOKPOHH3DyUvAQ7SS4LnDWo6o6/IoDlTrX9bPlPnZFGXu6sdvfu1rePsf3sUHNwHgJj74+dt4+6+exdN33YLjtjwxv4yzX/kdfP+dd/C+fi1w84Nf6J8rySlzZxCvf/WPbOV++P57EB9jThnVv/la0i/K8MrryAoZIANkgAyQATJABnYvAzZRZmlpCcvLy/ZF1y6e5GUymYr1Nbcv3ZhA8qMDmL46jNg9Ccyv5nDkYi3blzT0fiENc7EX7cL4S4bQsvDmFA6/OYyBhhASl3KYvrNRijJ5zL0ygSPWBbH+cw4zp635VFwWzuozK2OIjVogkgvSuSeimLpWunCef7SrKDpVWLwuXAgjpPtXihe/MY68pbzChTFkdbHHuIdYkNcqZolBYFNFmbZ2JF41xA1nrprDT/RIwWvn21UUZaZw4OVpQ5RTfhWvN0YRseZ2ifW6+lQk5p25P1Sj/V3Y2gxRJtiMyPlpl1xBeSy8NIhOXRyTosxqEvmXiv4q/MYYsq8X2TX7lNfxpgLXigdbmRXqurjmshWxSj2UKPPQ730dPxdaTMl/H+DH37gLd5mizD/GF//dN/ALKcY4L7eLMv8cX/7G3+J950Xyd4oylrGwip84+aCtyAAZIANkgAyQATJABnY7A3talAkM9GLymQj6ohq08QHMyIWokeg3gh4zosIjqMEWxF/KY/bBdgQaWhG3LDLFQlBfBEpRRiSwtUYeLFwaRiTTgKCIXPlIDAeF2HF5CN3mokLD4JlxJO/uQKhbJgruaEX/mQkUxIL8dGtRLLMuSN8Yw+itLfp2rOBoH6avi4X+MPpVuc09SL4QQ3S+1UhIHAigMdmNpBA0VpOIp0TbLYv2N+IYiLRj7DVjwSza1Nndjcnrsn2q3BpeK4kyxY4i6+IiGlivUScazTzUZdpLtCvxwjQWzUim3dAuKUpIIW7ui2F0Cv92tCL2VEbPhZL+mPS31oTI+QwW16YxdXcIzSLaRNPQPNOH9GURveQQcGrwgelrL/atklOm5cQojq7ncfh8GF39xqljwb4QoufSKKxnMXWiUWfL8JXIEySSYDdg6Gkpxrw5gsFIK0YubiyHkJecMi13j+mCmNkPhe1E//rcuCGYXor4SvxtijK/8+/xX7/3O/j91ztwnxBg7vw1PPXbX8WP3gduvvtHWFeizKOv4vu/EJExf4/v/MHtOHOfiKL5ZXz+lbfwfcfpS/de+dd45yZw8xffwl/8VhoPiIibO38Nj67+W7zDSJniOFgT/x7HepZNO5MBMkAGyAAZIANkgAxsEwN7W5SxGFEXBDZ6JLa+NSkHsYjWtzGJBekTPWhtacbwC3noWztcRBld2LAKQFoDIuetokj5hYKrkKFEGSGgmFuQLOJKxQW3cZ2+UDYX3Uq8yGL6ziYE9DbkISIIkgua+bst8sBi26JYUr4d4hrXtpSU40GUkfUrvNAvI32K99UODWHWFLF2Q7uKokwxgseorxITzBOo2nsxtZqHLdJJ2qfxZELfnia2xXm1t/t1HuxrbrmqkOhXMXw1hrCVbVHfjj79dKqjZ8VWJ9X+HA492I6gKQBmkbu3pSgIVmW2fLuVHcseOa41IXYhj8XVcQxbI85EXbUmRJ/NYdHsC+XvY7WnEmXs25PUdqUUvq6fXf3H+E0pypz7k2/hQ7yHH/zpvH1LU8mR2P8TvvzNHwA3f4xv/86v26/lkdgbZN+bb61+5s+0GRkgA2SADJABMkAGyMBWM7BvRJnNMKSWjeDg2gRGsxo6H5jA4qpM6CvFGn1xbRVuZiI4JHKHOPNwqIWqYyEocomMnE/hsMzPobZhiK0r5sJdLCSlKFNarkuHEZE5tw1i6uK0zFFS3DJSXIg6FupKlFELZSWCOHN0SMHAq203TZRRopR1G5Dj5/kznaUL/h1pV1GUcIoGSkxQvjXsY/GPo02Cg9y9zRtcmDp87epDWWcHnzY/K1uW1LFY/8KFMFpLWJf3N8v2Uh8Xri31VnZ02tesb0V+NYROJ32f3mSKMnf14yt//g288+7P9Xwvth1HP1OizD/FG3/5NoAf45u/qYQb+VoiyvTh3/3tz4D3v4U/ueC4lqLMBtmvzJHJi4UtvkebkQEyQAbIABkgA2SADGw1AzZRpt4S/W61cZzl64tmfTEpF5Jy+5GKzhCLQn2b1No0kgsqMsSjKFM2l4hY5NYuyrSeGHXJZyMXzuUWxmrBTVHG0yKwsthEUcY1KqscezUsiDdHlDGSczv7fLnfdVHmzjD+1XfeKRVjlDJjijKN+O1v/9ijKDOOP/3BTYoyNXBQzld8nxMpMkAGyAAZIANkgAyQgd3MgE2U2c0V3Q11KxFlbsQx0NGCIZHsdC2Nsdkguh+cxKLcJqUiH0oiWhpkHg1zO5X6tt7Iz6HnHJGLEtcFv9dIGZkDx8hR0mbmlDG3lJRbGO8GUUZFIbktzho7kXwjj8JTva7HkhdZcURh7Ei7vIsygcEwsusyZ5FbuzflPYdNXMtUkTKGuFi0p2UwV1uCbHmRLH83y1Vlqa1Q8v7l2DM/51aW+3tKlCkbRaT6gdv2JXnEvRn15vH+uihzbh1vfwjcfO/b+I9fGTFyyujblUq3Lz3z9b8B8C6+/296LVuS/jEe/1d/hneFBvP2Oi7on23B7333J8DNt/GNt6yRMr+KN77+PT35LxP9unPgyqlHf/KztCkZIANkgAyQATJABsjATjFAUcbHpN0qyujii9q6sZbBUZFgV/6+cN4QC5QoUzjfh1aZvLeYCDUPdZ0pkoiImM+2G+JJcyPaF/qRekmc2FNjpIwSIdZSSMw26Cf3BHtb0XffMGbEEeHlFsbqczsUKdP3yJQRHfRwF9rMo5Utg4QWxMCTRkLc7Od7zCSzpZ3IIUDsSLt8iDJKrFuZxKQ14bMPRkttYLGbXo7DJmXKbrlnTOf5yNMyMXHJdRo67k/pfjp0NozecYOv0vtvvSijLcRwWE+0HUV41Eg4bK+HqmseCy8PIazqKhL9PpzCgthiaJ5E5rSX+++6KCO3E9386f+N//1Lv2Ik7n3+UXztW9/Bz/Szq9X2pVuw/OU/xk8BfPiTr+H3v/QruPN0Av/rf/xr8zSmoihzC4z8Mzfx3tu/hasP/DLuOvMJ/Ptv/515GhNFGXef2H3Oa2gPMkAGyAAZIANkgAyQgfpggKJMyWKzvOOMnDLyG/9YL9JC2FjNIHe6HQOPTGFhPYcjL0cRlsl3lSijxBrbqyNJb/C2YfdtRqu52kWZgIbw4+5HFhdWt0eUqWgDp9gkfdFwu5stHMJUpe1eu0ps8iHKBAJoOBQxTuZSgp/1VYlkPpjVB+IqOXjcEjhrEwOYsRyHrti1RX1VOJZcbLkzcrxsvSgTCHVjwnKUu6qrrV2V6np9HPGsPAHLo211UWb5NP7zT9zOuL6JmzdvAub2pVtw/N4F/Ol/+4Xa2CRfb+L9H/4Zvv8Ta6TMLTj+0Hl8W4TP2P77AO/+f3+Ot38OUJQpP0Zz4kHbkAEyQAbIABkgA2SADNQbAzZRpt5yyvT39yObzXrK+7EpjrEk8fVSnpsgUXhrCjPnBvRjum1laEF03BnHgWtZI+LmxjQOPR3BQFacZOMQJLxuXxILzNY2DD2ZwpEVI5Jn4c1JTH++B513jW5LpIybDdSiuSRXjloQ67aIIX85ox9jbFzvsEEggLKJketYlBFMNGb7kHph0vSZaa9tFGVEPVoXRYLojB5JoupgE2WEvzpDiD42jlnFrSkibaMoI1hI9yH1YtqWzNomyph1TWJWJdK+Me3eFxWHFV51Ueb4LfjUK5fx1z/8CT4QGsrND/Deu9/Ft/7wC/jD7/3ELsocvwV3Pv4kvvH3P9KvvfnhP+BH3/kyVh80tjpZI2XEiU6fem0N3/vxT/V8NTff/wHe/qtn8fSjT+G7FGW2b7yv4H/b2M3r6BMyQAbIABkgA2SADJCBDTBgE2WWlpawvLxcNwbNZDLbW1+ZR8PtyGK3SboSJEoWshtwmNt9+B7VYDKwvQwoUcb9SGxrLpit+fmOO36pbsZpsrm9bNLetDcZIANkgAyQATJABuqLAYoyPgWSlrvHUFgZQ2y0uqMpylS3EQcM2qgeGaAoQ27rkVvWmdySATJABsgAGSADZGD3MUBRxqcoE2gIYfTVHApXRhDNyOSmMinv5Ll+dFjKoyiz+4DnIESfbAYDFGXI0WZwxDLIERkgA2SADJABMkAGyABFGYuI4rlDiDwtj1lyU6xmcPjlBMZOhmxHNFOUYQfzzFQtHPIzO7aFh6IM+zb7NhkgA2SADJABMkAGyAAZ2AwGbKJMPB7H3Nzcji10NqNBLIMdgwyQga1mgKIMGdtqxlg+GSMDZIAMkAEyQAbIwP5gwCbK0On7w+n0M/1MBjbGAEWZjdmP/NF+ZIAMkAEyQAbIABkgA2TAYICiDLeAMDKKDJABnwxQlOEkgpMIMkAGyAAZIANkgAyQATKwGQxQlPG5GNsMo7MMdl4yUN8MhEL/DLHYr+7oPzJU3wzRf/QfGSADZIAMkAEyQAbIgGDAJsqEQiGEw+G6+da8v78f2Wy2burLTsdORwbIABkgA2SADJABMkAGyAAZIANkgAwoBmyizNLSEpaXl+tG5MhkMnVVX2V0vrIDkgEyQAbIABkgA2SADJABMkAGyAAZIAMUZbh9qW5EOA5YHLD2BAMDPUhfzWHx+jiG0/TpnvApnyN8jpABMkAGyAAZIANkgAzUyMC+EWW0mQgOrSYw1LN5i6DGbB9SL05hYT2PxfUs5l8aRmQySBhrhHFbF2cNISQu5VG4OIiOeqjvrqujhq7PT2JxPYfJY5vXp7aVgR2yafDEKBb1MSOHA8ttHC92yA/7gTW2kWMTGSADZIAMkAEyQAZ2PwN7W5QJdSP5XBT9UQ2BwTCyK3EMBAIIpsOYfn4QXRtYDLSeGMH8jSmk725DU1MAgeZGdH0ygSMrKYxktW1YaGno/cw4Zt8Y1tu0FzpbcbEqRC7nv01e/O9mUaaxA6MvTOLw493bwJHbIKUh9PE4DlwZR7xsJAdFmZr7nIqUeWMM0bL2DUA7PIj8pSlMUPTaoX7g1jf4Xs3cb+B5y3uSOzJABsgAGSADZGAvM2ATZeLxOObm5vbMBFhL9SJ9KYvF60kkbhvA9OUohk6OYG41j6OvxNAfqw1uLR/BwdUpTN7RZLeVFkTfmTQWzveiacsnoBoi5/NYlELTXoCUoozksbkX0+t5LDyxc6KMHgWzlsJIWdGAosxW9zmjP2yyGLnl41JtY+pW25Ll0y9kgAyQATJABsgAGSADu5UBmyizWyu5oXppDeg8FcfsihF5UbgyjuSJNjTUujgJNiN2IYf5J7pdhRdjm9QYYjUKPt7buvdEGWvbt3xBupsjZSjK2MXOWvtqnX9uy/tAndvHOl7wZ06yyAAZIANkgAyQATJABuqVgf0hyhyPIicSa4rog8sJjCw0I1jjgkSbj2JubRKJmTLQN/cgvZrFxO3i74Zwouct0RrQ88lRHHxL1WMUwzOO/DNSQDpwLWts37kxjZlzA+gT269kfStHkwjhyZqnQgo3JREPblEO8j0ReaMF0faxKPJXjHoUrqWQXCraTBee1nOYOd2GttsiyF7OoCC2G91IY/r+DjTXaFvVRvFaeUEq23VjGP2dIUSfTOGILrrlcOTiMAbHi/ZSZer5f16YlNeJumZwdNUlp4xou7VNqxnMPhe15wrSgug/O23Y+jMhO0uxPkxfz2PxzREM9pdhxNU+sk0l27Ys27icftTrOoipixmZ1yiHI1dSSH+qNh8YfrXcz6UuxegdycvaNJIFJ9sJjMw7osiET0e6kHg2rdtdcHrktY0JpL45rNa/gi2Iv5TH4uUhdLv6KABtIYbD6znk7m02+6RirPKr6nMW+zr9Ke4pBbnS7XvFz5XkQarWLtWfxP3y7Rh9SfTXLGYf6UZTtBspEU24nkX+tIPlMjao3E4/zPNa2pIMkAEyQAbIABkgA2SADOxpUcbcvnRjAsmPDmD66jBi9yQwvyoW77VsX9LQ+4V0MTlstAvj+gInj4U3p3D4zWEM6BEYOUzf2WiKMouX40ieF4v44sJK//lqDGGRj0YsfrQguj83YYgbzuveiGNALvC3XJRZHUPyjEs9VscxPGrUVS3ej7yWxhFnXdezmDoh2r6xzuVJlFlLY/ayIXLZbHspYssX1LAQ1bes2a6R9XYucFtPjLq0SWwTc+QKamvH2KU8FtdSGFU5hILNGHoqg8U1l61tVe3hX5QpW9f1PA4/0eNbHFN+dbOTeq9UlJnCgZenS7m9MYqINal2rBdT1xz86z7IYeb+2sQAVV9PHHrqXxr6z2Yqbgk0uFSiqx/Gt0iU8dQuKXKuTSL/omUcWh1D9oKl/9yIY0CNR1V59dN2XrvR8ZCfJ0NkgAyQATJABsgAGdi7DNhEmVAohHA4vOEF9XYB093djUQiUb6+A72YfCaiR5po4wOYsSX6jaDH7wJEfpM++2A7Ag2tiL9kWdCsy6gLKcoYp6pYFtpr08je34W2UACBlhZExeJ9vbi4UwvMhZeHEB5vMKIvOlrR/7lxHFnP4dBn2x3tlGVXzCkjryn5Rl4tEK35KtR7YuGcw6Gzvejs1hAQET4PG6fszJxu1eug6ioW6guX5IlTWgPa70ngqHjvXI89eqSGBZ4nUUYs6nW7dqK1KYBgXyfGdaFkAqNZ2WkbOzD+eh6LqyIpcwjNwv6BABoiXUi+5oiUGejFlIhyeWMU0XyjscVNJHC+y8hD5MwV1HBI5BYyyuhsCqD1pGh/DocebN9Y+71sXxKJq1eFWDSJiRMy2bTwwVIEeSF+VIrmquoPyUIJN9aB0M7L3BfDBi8drYjpbOeQ/piMWNKaEDkvxKppTCkfaBqaZ/qQFqKaU8CpWj+jHn44VNdW7l8aOh+Y0IU2I5eOhtDpJBbNU9vk31eTiKestvD7sxf7VosWs9ugcrtUWYILQzDsflD0aSUqNmDgSeGfSjmE/LaR12/Xc5D3IWtkgAyQATJABsgAGahvBmyizNLSEpaXlx2L/93bwEwm47m++qLMXFzV2CZ9a5Kx2NS3McmIhNaWZgy/IBOzuokyLpETdtFBLtIs0Shmx2psx5gQD14aQLttsbpVokxp5IKxoC1ui1IL3EVLBI9eXykmOKNPzLbY6l/ZB3b7OK9VYpezrkooKIpNwduHDaHEKWq55JRpPDGKwto0Urc6tj9pDRh6Wmx5Gka/rQ0a2k8nURBbxs4M6duWFl4ahBBoammz+RkPokzLPWO6eJb/ZEvJvVruHjPqVPNxy15EA2Xr0qgc5TvzuOf2Xkyt5jH/aFeJWNV4MmETJ00b2Ozsbk/vHHrvX3rdxZasBRG9Jv2+Xox808WMikKoe13t7fJiXyWkFFm2lyHu47NdQjB9qg/N6nNi/DrTiaD6naJMSV8qtbkX//Ia2o0MkAEyQAbIABkgA2TAOwP7RpTZDCi0bAQH10QUhvrGXCb0lWKNvgi1CDcqp0z1E5KUyOC2vUO+dzWGPttCdYtEGQ8LM7UYLm5lkcBttyhTUlclFBQXskq8mHQeK1wiyqjPVvDBqksCZ7VlSUQdrCQrHCHtvVOqvCIl9jX9X3lRr0eFiQV4zac3VS7f6EvKXkVbqz7mFGUUL2oLVOlrLTlaAlDllrSzhEPv/csoU0b5NHVj4toEshemdFsK8UKceLZx0dGLfb2JMvoJbPo2sDLcynFD+cToB07feauP8i9fffRls8/yM+SGDJABMkAGyAAZIANkwJ0BijI+Js36gk0XAuQiTyYE1Q4NYXbdWJzqC2L1TbtcxFGUcYevUqe0LyKdn5f2ryrKSPFM+sZ2v80SZdrakXhVbmNbm8TYrCPKxgdfZv2qRspUXkQrUebo2VqP1K5cvlFP58K+6CPlOxUpo8STUjFGCQm7R5QxBDEjKkxP6nt5CH0igkrkf2oxEgFvfHueF/tSlDH7Qy19iJ9h1A8ZIANkgAyQATJABshAnTBAUcaHo0pEGZEYs6MFQyKJ71oaY7NB6NsbzG1SUjyout1BQ98jU5bcFcUFbvmFiSzbLXrDbFMZ8aKtHSMvipw21igHbwtFUR+1yK4eoeClHe7XqIV9SYSL3rYy7VLbMCztUuU4T8ux5oPpkPbSo2p0P7rXqcQXKsnq2hQmPt6LCZHLxbmly/SFxzLF9SrS40IYra6fl7lO1nNw277Ueo+xfcnZ5pL6u5Yt6qlYkNt4XK/zLsoERP6b9Tz0XEyuZfmwjeXz3jn00b/kdkEhaHV9fhLzZzoR0LdfTSN5awiJS5vRDmXfyjlcyrFb9KP3dqmyGClTG2tFm/PztAUZIANkgAyQATJABsjA5jJgE2VSqRSOHTtWN4paU1MTRHLi7YLCKsqYiTL1ZJkZHBUJYuU2gmJCWK+iTAANd8T1JLnzFyIYUElmLQvQ0jbKBZnIZ/KwTCBccn1x4XzgYZkMVxxL/II6gWXvizIqakSIJZHRIAKWxL3CX9atKNrkIA7oyYvjiM63oqlKbpjmj4/oJzWpk46cv5f6zGPnbexE8g0jCev4rS1GwmGHb1VdxalQY7fJuuqJfqM4II4HXxlDTJ6WVUs9jG1feRx5WibwddzfFG7FCfc/AAAgAElEQVQsApi6jxIAVKSMSIo9ctFISjx5dwdCIoF0SXkebWP5nHdRxkf/0poQu5BH4bkoki9nMXlMJLs23ps/G8d0TcdhO9vmTZQxjt8WjEYRFuxa2q5+9jpuKJ9QlHH6gr8rlvhKFsgAGSADZIAMkAEysDMM2EQZOqGyE4ycMvLb7Vgv0ldzWFzNIHe6HQOPTGFhPYcjL0cRlsdXe88pE0Ag2IyI27HZutBTTLJr9VHD7cMuxzfbr1UJiZVgZLzmMHs5vesiZYyFY1Hccta5GDXjPVJGLKgHv6hEqGLZC5dimBCL74uDUJEyFY8ld+ZoUUc8vzmCQeVvM79MDjOn21wX0Vb/lf1ZC6L/bGmdbafjqCgd13wiWeRP13bMtKqTNjGAGXG6k6P8YnRUUfAr+sXoP0oAMEUZcdqVPKnKWZ7+e9VIMvd+6UeU8d6/5LHYot2WiDfjFKYcCpYT05StPL3K7XKu7Rf3crNBSOS0KfWBjVmP44byCUUZd5Y8+dBFFOPnaE8yQAbIABkgA2SADJCBjTJAUcbPRNuWxNcLfN4jZXRHtrQgvDyKA29kULAthu1Ci+l0LYiOO2PIX7Ze77hWvyaOg28ZeU8Wrib1I5QbF2I4bIty8Pbtvbi3r8WwD/tuiSgj7t/Wjtj5CRwVIsNqBgfO9aO33/CNbYErrtUa0HkqhvylDBZsPrAkzm0IYVTkkVmbRvrjTXbxJdann8IkIlhGshuICGltw9BjScxKv+mLeWcOHVVX0/9ZzL80guGF5pJTjkxmfPijdXEQUxftdqhVlBH3b8z2IfXCJI6ISB6rbd0ECQ/19M2hp/6ltoblUbBsHzMjrpw+8FBP3fa1iDKBAILpPqReTBvsSpuVMOuhXRRlvIzXvKaWcYKfITdkgAyQATJABsgAGdgYAxRlvC6qxHVqG4PL0b4EcWMg0n60HxkgA2SADJABMkAGyAAZIANkgAzsNwbqWpTp7u5GIpGwRyr4EVlquLbl7jEUNpivY79BxvZyYCUDZIAMkAEyQAbIABkgA2SADJABMlDKgE2UWVpawvLy8raKHBtxSiaT2f76yq0rhSsjiGYajG0izY1oX+jH5Ln+Yn6SGgSfjdiCny2FmzahTcgAGSADZIAMkAEyQAbIABkgA2RgNzNAUaYW8cSZ72M1g8MvJzB2MoSmWsrjZ+pGCNzNnZl148OGDJABMkAGyAAZIANkgAyQATJQXwxQlKEgQkGEDJABMkAGyAAZIANkgAyQATJABsgAGdgBBijK7IDRqVzWl3JJf9FfZIAMkAEyQAbIABkgA2SADJABMrAVDNhEmVQqhWPHjtWNOtbU1IRQKFQ39d0KB7JMDgxkgAyQATJABsgAGSADZIAMkAEyQAbqkwGbKEMn1qcT6Tf6jQyQATJABsgAGSADZIAMkIH/n73zAI+iWt94sNfrtaEIbiqkkBCSEBJSCemhhJaEEkQTCF3JRZEuCKKIIk1EekkiIFKSVVTA/1XB3kGwX71XvHIFBBUEIXn/z5myO7M7m2x6Nrw8T5gtszPnfN/vnJ159/u+QwbIABlwPQYoyjB9CV273oC8PLdG+xs06DJGOzVTDiMjb240rlSm+cVUP19MPXpc3ai+Feenb+vHt7Qr7UoGyAAZIANkgAyQgYZjgKJMM70Zrs4goijTcAOuOn5pDvtSlGm+bFGUab6+bQ5zD/tAPskAGSADZIAMkAFXYcClRRlRTyY0NJS/ltZSWKIowwmrviYsijLNly2KMs3Xt/U1H/C4ZIYMkAEyQAbIABkgA/YM6ESZ3NxcFBYWuozIkZqa6lLtbaoAUpSxHxhN1Veu1q6LRpTx8kPMkjTkbExCwmBPl5lDa8MTRRnOG7Xhh58lP2SADJABMkAGyAAZkBm4aEQZ9+7h6FUUi84d6g5+r7SOSFiYjKySDOSUpKHvoi4IT/RwuRuyOhNlZi7BkXPAXz+vxtyqatQ8/SpOATj95XA0ZE0Z97AARD3aDX3XpyNH8lsGclZ0RodaRhtVOqF0CUWGei5l23uyf+NzorSrPttSZ6JM4VR8dwYoP7EDS6tia9oWHAPw1w9zpJonlfqmjvwuzS+Kb7MeDmp839ZRvyqzXV2JMiOL9+E0ynHq4OAqa9SM2/8NgAs4sscN4vyVta+5vhc2W8xdMQj3rLvvsuZqq2r1a2gUsksykJznflFyVS1bNcD8wvZwfJMBMkAGyMDFxEDzFmX8gtD1yQiERrjD1CkEaRujEGYywSMpBCkLOiGwFhcW7fKj0XdDMpJG+cLb2wSTjxcCx8Wi38YERKe51kWdrSgz+cWP8SfEv79w/IPuVd4oqQVV82ojyhgIFzkbU5G5MBoxuW3hUQtfWQZ0QADintaIMapQ0tREGT9fRD7SDZmPdIRvXfTb0TEaQZQZt/FN/CGxVY7fDxU4z1ZtRJm2wUgpyUD24jAE2NrCyx+xzzh4z3bfyp5bImUSEZ91MUbKXIVnD/1P8iwqTuLrTc4XDq+VKJPcCT2KhSju+K/XA35wr8x3LvZew4sybdFloWLflREIbq5iUIOJMh2QVOSY15y5wa7Na88wpD+TgkSKWxT3XGxutVwrst1klwyQgUZgoFmLMu4JwUh6Jg0567sidmAYUp6NQOeCaPQuykD/pZEIjayZAumeEY6eRclIvMtbD627BzpOS0LWo8HwbgRn1vQLRS/KtMOLP/yGijPf4/hp4MLxrVhYVWSC+n5dizKWG610ZD4cDD+vmvlLtYvP3dHoV5KBfvPDEBzRSBFNzgghQYFIWJGB/o83N1HmJmz86jjw1/c4fgqo+H0v1qvsVLVt6qKMC413dTzUdquLlBkxCId+A8qP/YBfUYEzX//DacGtfkWZFHQb1EhjvZ6YaHBRJjYMGcXpSJsfh+ySZHTt51o/OjjNOUUZ/fVMTfltMDvW7nrAaS5qagd+rm54oh1pRzJABi4SBnSiTHp6OgoKClzG+U4V+nX3RPsRUcjcKP8ylb0yHl3zfeFZUwd7+CDyiXT0fTjIUHiR06TiEFlDwacxLhR0oszkR/HDnxX444v7sfnrE8D5f+HdJ5381bsORBmtEOEZ0hYd74tBb8l3qUgd0bZWbLYbF4+ckiTEZTbixdzFLMqMG42v/gDO/fA4lh34L1B+FAdXOckWRZlasV8f84pWlBnx7F78hr9wZG83fHQCqDj9OoqqEtqU92slyjiax8M6InVjBvrNDKybKDtH52mE1xtalPG7tytyimIQ3rkjUosz0HtKgGtHcjjyWaOICUrUjKtHx2ht2ih2bMTvdG3f+bjJfU/Vx3cfj8nxRgbIQH0woBNl6uMEjX5MIcrkRSB9tZy2kvVsLKKzfGp8oe7eNwK9ixMR290BkD7iIisN3QYr77t7wHdgJyQvSVVqz6Sj3zMO2qAISD3Wpsnh+BtS0H1OGDqK9CvbL/u2bRHyQBwy18n9yl6XiPSpwQjwc9Au289rnmtFGTl16RS+23YbJu78AGdwDr+8m2Lwq/e1mLvzZfx86jecr1CyFi6cQ3mFQU2ZgrZYu+8dHD99RnofqED5+b8gPmapKaOIFVpRRu1z27uj0VeknyzthPaadsv1YRLRTxJt0tF/RTwSRvrDx0FEjTOijHuYPzpPiUXP1WlSfYGc4jT0WRqL2IE+uhsR+Vj2QpH3gEj0LsmAwzotDkUZT4Q8lFxpGoa9oOQOnz5hSFmWamlr7wWRiOjlpWurZEcPTwTc3RmpT6egv5LukbVO7qPDtmpsrfqiulttTRk5deksfnrNE2PW/BO/4wJOHRxqwNblmFqyDT+ePInz5Qpb5edwocKgpsywVli655/43++npffF3uXnz0F8zFJTplrpSx4IfzQDOeu7ILS9HyJmJ1j46rekCzrF68eix7AYG5+lITHXwRi0mwsykLUmEb2eSUafh6x1aORjpqNHoa9u3Kt1a+xq1oi5YGIcMpU6SbWZC6rjX6soo6QulX+DtyZfgaUHfwYqTuDLIgPBLd8D6979BCdP/yn5SPVXhUFNmfxxqXj586/x27lz0lwBlOP8+QtO1JTxRud56chZ0wWh7ex94ZkUjG6LUyy1wPotiUH0APvvBEn8WBaOQA8PBI2ORg9lrs1aEYvoTJsUNT9fhE+Lt8zHUurlU5EI72YQpSP2nZWAvhvkHwqy1iYguTAQvj72bfWIbI+oRxLQRzl3TlEq+kufa6iaMkrq0hMh8HH3QZcF6chZEYEOHvq2WoQi33aavqWj/9NR6KyzgS9ilmYgR9g1vD1i5iWin5TKk4bej4ejY7j+uIJHp/wlCQHpSLrbEwHDuqD7Gvk7NHtdNyQOb2f/fe/tg473RaP7KmXuLElH/3XyZxq2pkwVokxN+6X0X/CS+Xg4QqJqwaHUhkTEppvg2SMESUsVm21MQmphALzchc+qSMkSUa/SWLL3b3XmHO5L+5EBMkAGyEBzZaBZizKW9KUN3dB1aBhSVndB5OhY9C1KR78lNUlfckfw1CRkL+kk16aICET8IvkCJWtNMvqs6YIwTz/EPpOOlOFe0g2Vzz1yyoxdzQOlvo0FLHcPBE3sJt9cW9J2lLzzVVEIC9UMQg8fhD+aYnMzqFzgL+qE9qLGTTVuqK2ijCd2fn8KOPspXp7iBsc1Yq7Ak299hXOKGCPfNlv/1xf6bYdtXx6FuJUy+ueMKGMKCED88gzkrItF52i5b+6hgUh41qA+TEk6ek5ur0QxOSN0aIWVSvbfmICYDOsNeVMQZXwGRSLTqJ7Gxm6I66+9afRE0D+6or8tV8rzhhFlbsCaL34BLnyDt+a4Ic9h5MulmPrqJzjrgC19od+bsO7TH3HeCKzaijLFScg04Cv7mXBdLSrnRRl3BE5IUIQAZVxr/KEVWqolykhzQaqDuSCs2nNBdeYNiyhT0AcHRTra8RfwWJ4bHEa+5LdC2b9OKQKLrdNsCv2OGIAPj8uVrWz3rKrQr8+IWGSVGKcteaR3Qg8lalI/J6cgOc9HN29KQsPKKMTPMZhr10UhzFeZZ739ELPYaC7KQE5RN8T20NwQV7Jvv0eC0Va6wVWOG9sRKavtWZHb3UCiTJdQpBdnIOM+OUqx/YRuyCmRb9C1rMiiTCJ6LDWww5podApRv5MUUWZlN/Qw6JsQ3gM1go/T/lKiM3o/m2TwHZqE+N7WudtkaovOjxn4VBmPTU+UyYBz/fJC2MMO+mUbiVMdDiXbJiNpajT62n3fpCIxV/BNUUY7HvhYHe/ckgUyQAbIgLMMNGtRxhQWjETx61uEO9zjw9BdV+g3HB2qKV6YPNoialEGMif5w+TZDlGL9BegklijiDLyr9zu8q/uRbHoEu8p/1rn7oG2PYMRP78zQjXCieVX8MWdEaLuG9AOoRPj0a8kHb0esK7W0zY/RrrB7vNoCAJD5Qt+j45+iJgjLkjTkJwvC0LOQmARZSbOxPdngLP/mY8pUmpBNPYdPQv89RXenKv51XvuWhw9D1ScP4rvXsvClDHivWsxacUm/Gyz+tK9RW/g9wqg4uxX+GhLV0wY4Ya8glaYuXU/fncyUsZk8kHkk8LWauqRIp4UpyJtfAB8A8QFtzu804LRdXEqcjbEIzJBTAKViCyWG2K9KNPxwRh0GxeIgGDZru6+Puh4vyxoZD5o9UHdizKaScuZmjLKPjlr4xDVty28RHSQpxfa50eix/oMZC0Ihb/Cl0dSJ3QvzkD2qljrvh4e8OneCd0ri+rR8OksS7b7WSJlxuThi9+BC0c3Yo7E1p146d9/AOU/4qOlGrbun4d/nxXhLr/ix7fyMeNe8d7luP/JZfjPn/pImZELzTgh2Prr3zhUmoGJo9yQN+xmTFvxCk7UVpQRfBSnIO0f7dHO2wSPkPaIf0a81g0xqRpfaWwkiykOImXCQ5AmIgJEfasB7eAl5h53d3gnd5JW5qqpKNN2mNFc4G+dC/K04pxxu2195uxzVZQpWPoKTqEcxz+Mk6OeRk3Dd2eBilOvYIUmhWnUtvcgufbPL/D+xo4YL97Lb425r3yIM7pImcsw54MfJPHmwsk38NISH4zOc0P+WD8s/OT7yiNlKk1bUgSBom7oOrgdvKXIFA/4DeyENCEQ2ESAyEKDEEVSkP5AEPz8TTB5+yD8ESGCiagM+UY/6MFESRTrtyAcofGyvT2C/BD+cKIkEGQ/3hE+itgiixrp6Dk1CP7B8uc9YwIR84S4mdaKB14If0zMeWnoMdm6r0eQDyIeFa83jCjTbmw8sku6IipGYadnZ0kIti2ebGgrP19EKOJH2ij1O0nxgRhfRUlIGuEn+UFEBMUvEf3S1qyphr8UUUYIVsIPUmSItyc6PChEpAyIuVst9uw9LEYSR7MWRyA0wUv+Xvb2RLtRMZK/mqIo40y/LMLIk2EWtkx+Xggc2hlp0zpY+i/Gt/McmmCysa3MuDvaDZN/cMqeoz+2un/D2rFu5zZn50DuR7uTATJABshAXTHg0qKMUzVllJsmudZLLZfEllKT5ItxKY2pJAN9Hu6Adm190OWpDEg3VjaiTOisVN3NnbHj3BEoLuyL4tFFvfhVb/a8/BG3PAPZi8Lkm2x3T4SLi/LVkQixFZUCOkqrzPSfZU2FMD6ffgCpooycrvQnfn4z2pJSMu/tb3Ee+tee+vA/KDdKa7KrKeOBHSLypuJXfLv1dssxpdWabJfEriR9ySquKKKMIkhIvyyrdlK23oO6oE9JKlKG6X/1FnZwJn3J0F4GKUeNLcrIaVKpSM6zKTZt8kLozGTkrItBuFTXyANBkxKRU5yMhBybG3SDfhn238bG1dlHFWXkdKXzOPFRHwsHD7x6AOegf23SG1/iglFak11kjRJ5gz9xZK+n5ZgSW7ZLYtckfakkDd0L/TRpD8oYLXEguohV3aRUJuP3246Jk26wU4bZ+EtpW41EmSrmgtSSDPSfGaiL/qiO76raVxZl1HSlozi4QhXXrkfZD38AFdrXbsDuI+cM05rsImuUyBtc+ApvTlaPKW8rXxK78rQlk7JSU4/CdnY2Cbxf3Lx3Q0yydW6UhQb7CBr9TWcA4leIKD5N5IxlvMhzt1VAUUSGxZ3gr4kGkeycHo6exRnoeb+SsqZEqGgFHdUfcrsaQpRR0pV0aSdKf3WvmSC3KRUpw23mXcXm1ht3VZRJRJw2gkiMn6FRklhisUF1/KUIB9lLwxHU1upD1efWFY2UPhXFIkIbfSp8phyjYcUEZ9KXROpuVf0SfW6PhLUZyFkTj1iDdDyVH5OpGhxq7GIXyaVGx9hG4TSKHTU+t4w/vmb1OW1BW5ABMkAGmjoDOlEmOzsb48ePt7tgbaqdSE1NRWFhYYO11z1NXDh3Q0yaO9qLi/gipaCvItZI0TEa4UayW0QQuqlpEEWp6DGvM7oMsC00rETUWKI3DELWV0eio7jYkEQfg/c1n81+IgTtqnFhIosySuqSbWHfp7bhRDlw7sgizJB+9b4ZJaIAME7gi7X6Gyb7dKc4vPU/g0gbcZxqiTKy6JVTnIS4niaYFDFBDuM3skU6ek7ws+PCGVFG1KnpMjsBvdUaDhq7atN8GluUkc9v1HfltaJuiEkXE7AXOs1J1aV+WcZzg4kyioBiW9h30ir8fAG48MtzmCexdTUWiQLA+BM/lNmwZSfKuOPVH8/YR9qI49SFKFOUgOgk7RdYbUQZd3Scnowcu2OaYKqNKKMs5+14HGSgunOBhQ0n5g9JlFFTl2wK+47ZfRDnUY4TH6fJgtmwSKkAMMoPYo/ka6t/7USZ0bPxg0GkjRDcKhNlKktbkvql+cXf2Gap6DbImubinPhR+U11x+kiqkZN96k6xUOIaFJER+/O6F2cAduIFNEP59qlZbeGjxVhyLawr9ynBERL0YjyseU2qf3Uns/WPqooYyAqKSKMpc/V8Zeyr+WzKr/KMa2ijLGopOWjKYoyVfdLtrmU0qosty3q6aRNCUNIio0Yr4opmu822/Fg4VDYsboiS3X3V33Frd01S3XmY+6rnXf4mDyQATLgegzoRJnc3NwGFTlqC0yDizLdw9GrWNysKSLKs50RZDLBvVdnZJakI3GISU6TKk5B1ywNDO6e8MsKRfx8tWhoBrJXdNHUiWkCooySumRfv0F55dxB7J4hbqQC8cqPfzgpyvTGZydF5V+b9KfqijIdg5Ao0gvWRMs2qydRxnGdGlnocE1RRkn90tTjsYy7hhJllNQlh2xd+BfenSfYuhWbv/3VSVHGD+/8Iir/2qQ/NUlRxgOdHklvlqKMnLrk0LOoOLETC4RPRg7Hl2LacEaUGbsaP4u0NJv0p0pFmUrTlpS5uDo3+U6LH7aig2beN5kgCxhqBE41RJlcOWrE7mbc6Xbp22EZ89W48ZVTlxwLv9qII9cRZYKQKGoK2UT6SPZpFDGhcn5UQcSOAzuxSeNvv7YIHt0ZqZZi1unoM0dbr6gaHFKUoVBSjTmjJvMMP6MZu7Q1xxsZuKgZoChTjQEgpUBpRZkNUQgLaIvOouiuiOLIVFJFiipJk/LxQrBao0TUppHOr/6SXsnn1Ha6eyPyiQzkKIJQXXyhiUgZOXXJ8c0V8Dv+87Kv9Kv3ss//B+1zKWUk7wrMfe2gVKDVWui3I/YeOQ2U/xefLrf+Mp6X1wobP/9JKv5bdaFfD7S/L14Ka7ekK4V2QNLaDPR5KBBeql2c2FYVKdO2QBQIzUC/+WEIjtAU5zQQLwwjZTy8EDKlm3QMrYCj85HBsXTvi34o6Vm2q01p9/O5W+Tzp6DbANtfQW2/4JW6OpbIGfV9DwSMi5NqEzlsqxM21bbJ6LFIX5JTlypj6y8cfStCYmva+6JmiPW5zNalmLTzXZzWrb50O7Z9dxKoOImvN2vZug5L3v+XVPzXsvqSkgJomPIXHoJ0sbKXmh5oUlZfsotqqV2kjJSeWJyChAHWSAxhr3bDYtCvREl9VOxtWOhXFAJXijVbUp08vBH5ZAZylsvisJH96/O1Hj1ukFdaqsy1Ff/Gh48J/9yE/UcBWJ4rPsu/DZu/Pi7WY8Opg4PlqJqR4/D1aaDi3AfYqY2qGd4V+4+K4r8XcGSPG0Skjty/KtKWVI6V6BNrfRN1LBhvnYtIUVJGjNKXvNUC5V0Q6inOoURpSCsZGZ/T4i/lplsXsSD6EdYBSVKBXINIE7WfdbJV0nwqiabIWRgGP6VWjiNRxmNgF4nvPtPaKzVNHEfKSEtvl2TA4p/q+EsRVKoWL5Tzr1N9ovrBG2Gz5SK5rhwpY+FHYcAjKADRC0S0lrZWTzU4FMeprlil7K8Wh7ZtE5+rzHFLFsgAGSADZMDKAEWZalzAakUZqU6HesFanIr+662/KGY9Giyv/uPph+i50YgZ6od2QcrNmCj0mxOBXqLeg6b2i+ddUdINct8nwhGW4QVPh+1yR8A/EqRCk71mhSBYLQrscH+rsx2B37VrB3nVpYpj+GL9VfKNkeZm6N6S/TgNawFgVcApP/UmSmf/DQWFyTAf+rdlNSarKOOGBVL9mQqc+7kEyydchVEzx+Cdfx+zrMbkWJRxh1d0ACIe6op+YsUHsaJQH0WA8PBBxONpyNmYJC0lqxblddQ/9fWqRBn5/XRkTgtCO1GXwNMTvv06In6+vKKHVrxQl77u/0QYgkLd4d7eF52mJVhWONLuq55f2jojyvj4ImaJXAizW147uYivjX/du3RE6oYMZC2PQfQgX3hr6yjY7GsRm+aFoH2AO9w7+iG8qrYKgWlaIrKL09D7kY7wc7DMuK5vNucV70VGesqrLuE0fjBfa8fWyEW7cFLcZisFgFUBp+LMx3ht/i0Ydm84tnz0jWU1Ju3qS3L9GeD8iZewceK1GD5pMP757X8tqzFZRBm19ooomD0rGO2VsegZ3h7RT4kbFlFIW013qw9RxgSPXHl8Zy3qhCBxfksRb3nesAgtIvJOROQJoWhJhFSk3CQteS0KftvuW8O5wM8fsUvSIJbLTR+vrZtT9Vyh9XeP3jnSqku4cBB7RmuFMfH4Msz56D8iNEYpAKzUnkEFzh5ZgwXjW2Ds9LF477/qakwaUSZPqT8jagsdmoBJoy/B/UsX46tf1dWY9KJMlWlLKpfegeim1NyIv8cfbUXhXvU9g61zoow7Qh4SDGWg3+OhCOqkFF4P8kPE3GSpcGy/mYFKbSJ13xSkT+5g2de4DYrYU9QNcX1FMVpNQWKJA2NRxiM9DN03ZCB7XVfE2NRsMT6PAxuoNW3mBht8F3nJS45rCgCrokzXAd7wlIQabXu1BYxVUSYWkVHWIrvth0UhU6TdaGu9VMdfTosyavRSOno+GCAVGbYWWpbHl6Eo4+2H6IXymMmY4K+pNeXAfgY8Gdu/DiNlksOQNDccnXr6KEWsTRCFfoOlYsfWwtSiKL7MrDMc1kCUUcS0nGWRlsLXxn2vre34edqVDJABMkAGmg8DOlEmPT0dBQUFlV6oNiXnV6fQb120W64po9SaiAxG0mqRkiBubPwRNj0ZWSXp6Lc4AiFqAcHK6r8UJ6NrluZX80qWuRY3jfJqTgp4vv6IfVqsVGEVgqyP5TSq6vS3a68H5V+mf/8n1ovVkTSCjPRYTW1Sl8q+Nw8Hfv3L5vfxCvx1/GP89zSgFWXyZi7Cj3brG5/H6Z8P4Pg5wFaUsfZD07fiFKSMaKdbPcIjORRpGiFM9zmjVB0nCv169pCLbeqOJWxcnI7s4gzohBY1pcrGB/2XJ6GvzYpGstij6Y/uM9rVn9SJxRMdJhktj66uPiX2s0a62LVXCH6Pd4SvemMQ1B5d1bpGlnOnI/OxLkhdYdMv9TOB4jNKm9VaPup71dhGxg/EAaG6nPsIZrE6ki1bamqTulT2yGS8I+oQ2fy7cOojHDmpX30pr3AKvhXhM7p/5fjzl0/wvzOARZQxmeCZGY6eSq0FW3uJVMLQINX21RFllH0tNrXxscWAjtoAACAASURBVDbaxkH9l6zF0UhZro+UMXkHoKsoHmtz3KzlSehtE1VjEgKLw7nAuOiwNI+px17fRbcKXHXmjcwJpdIqVxeOLJZWR7L1rZrapC6VPWz2avxsO23gAv744TOc0EbKiGW1i17HH7aurTiN4z98hdPaSBklbcnWVtrn2ugJn6FRBsv6Kra2SWlxTpTRRq/Y+yx7VTTCO6tsVb6vtfaMvH/7QoMl1NfEI2GOKEpsLMr4FwrBXm6Htbiu5vxOjl3vglhkl6QjOU8TMaj5rJrapEZDyLay77/47ur5gFbEUEUZo33tiyo77a9qiDKm5DCDZdFTkD4jWiq2bCjKdAtDD3U56KJodJIin6pvV3l8VZE+pC2cW61+dbK2UR3f6nZNF4S207TXEnFl5Aeb2kBKGwztomHCMnd4t0fCKoPj2owvy/5Gx+BrLnMdTj9qxhW5JbdkgAzUggGdKMPJtYrJ1baIrxOG90rriISnEtFP5LGLC6QNKej1ZATCEw0udsUv4oUx6LEqVfqFVb24thNlxHnb+yHioXhkrk2zXITL+1dflOm15B0pEubMd1PkZWptb5zzQuQ0JJzCd9tuk26sCx6djy+Pn0K5qP1Q/jtOfL8Bax/oh89/sxFl8txQuOZ5HPn9jLTEbcVfx3D00GzMmbMEYjEWx6JMOvqvTkT6zFCExBjYymSCV2IHxD3eDX3X2whUNRRlhNDhf3cEMlamyfbfmIrMJyIQ3jcY3QzEC++eoUhZLu+bvT4JaZOC4Bcpp1ZpBZzqizKiAGw7hD0Yi166gsNaUcYEk4cnAu7ujNSnU9BfvWFQLsJ1ooxY2aRbR3RbnCL1K3tdIlIeCES7kEAkGPRLnQfa3h0tCUzWpcirGB8G4yF+wh4pEub8T8sw0Y4rIdIoaUg4i59ek1dRGjZpCg78cgIXxE15+Rmc+nEbNk8LwPvHbESZPDeMWrgaP5z6A+UiM+b8rzj2zRIseHAqvrMRZUSfpLG4MAn9LYUwE5E+NRgBftp+1ZMoIyJgIjsgYUmqlN4m5oHuDwUjoEOwtGKaNlJGtNUzqSOSnlbmAXVfIZStshFwLHNBV4O5wFiUMbl7yIWHBSsbo2ooynhhwts/SqlER99qZy+2CV8raUgo/wZvSasotcD4TTtw9I9z8lxw/n/46dNpmDluPY7aiDJiGfR5r72Hk2cvSJLbhTP/wXevZ2J88T69KKPcMFrnSvubQa0oI6IE2mWHIWlxMvrZinQ2N41OizJifEW2R9QjCei7QT5/9rokZMzoiPYBWrbkx+q+fXRjW3zO5mbY5I2QSfHoLR0zDb2fikR4Nw9lOWNjUUYIevHLFRtob+4NxqY6zu23aiRMnP0KRepx1JomSiqWvSiThn7PxCOhwBdeSoqTfB4DUaYoFX2WxCDacMUgJ/1VHfHCZILPoM5IXyF/d2atiEfCsHbwUPpkLD64o8NkeelzR4KYvR3tfS/vU0+ijBDqh0Ui/ZkUeY4RAu7axNpzWF1RRoyHrsHouiBRP8Zsxpfz9nJkR75OG5IBMkAGyEDzYYCijHqR6cxWqefSd4Yajt48QFCXxLb9pbuhng8adBmVVWf4a8B93H294DcoEpnixn1tNDqF14x1dUnshmLJ6DxN+gvLYPWl+m6vR7APOjwgR1RkLwi1RlRVky95SWyD6CdD8a3u97PWlKkZm/Vt54Y/vju8I/wRvVAWqbWFeOu7LbIoYysqGflFFWUciErVZLC++6Ue3yPIB4H/6Cr/AGK0pHkTbbfafm6NWORr5IIMkAEyQAaaDgMUZap5MdV2VByyN8YhMqbpOLG2A4qiTPPxZW1ZMJmUwsBKxE1OcSpSRupTx6pzDooyVbDVkKKMbQrVxq6ITtOkUFZzLqQoU4Vvq2nP6owru33VyBVl3GYvDUdQJXWm7D5fy7Y2X1FGFZGU6KOiboitTa2eWtq5rv3G4zWhMUw2+OMcGSADZOCiZsClRRlvb2+IujINemHh6YeYp9ORvTIaEamecsE/Hy/4Z4UicU4oAlxwQFGU4YWZdQwpooxI3VoQiYheXrpaPtb9nLMZRZkq7NQIokz2umR0nxMqFxGuxXxFUaYK39bCttUdZyZJlElH/1UJUvFzX5+GbVtzF2Wy16Wgx9wwhEQZp9JW218NyQbP1bDXiLQ37U0GyAAZIAM1YEAnymRnZ2P8+PEuY8jU1FQUFhY2fHvb+aLzQ12RqdYEEDnxi2MRV+Anr7pUA0c05kUdRZmGvYFpTF839LkpylTBVkOKMnU8L1GUqcK3dWzvhh671Tlf8xVl6OPqcMB9yQsZIANkgAyQgZoxoBNlcnNzG0fkqOHFa6OJMjVsb1OFlKJMzQZPU/VnU2oXRZnmyxZFmebr26Y0h7At5IwMkAEyQAbIABlo7gxQlGlmAktNgKUow4muJtw48xmKMs2XLYoyzde3zoxt7kP/kwEyQAbIABkgA2SgbhigKENRBhRl6mYwcVKytyNFGXubNBdOKMo0X982F0bZDzJKBsgAGSADZIAMuAIDOlGmd+/eGDt2bMPXaKmhMBIUFITY2FiXaW9TBULcOPfte1Wj/WVkXEMf1nAMNFWm1HaFhrZsNK5UptW2cFu3X8pxcX9vVN8mJV3PeaOZzhscq3U7VmlP2pMMkAEyQAbIQNNmQCfK0FlN21n0D/1DBsgAGSADZIAMkAEyQAbIABkgA2Sg+TBAUYa/NPLXZjJABsgAGSADZIAMkAEyQAbIABkgA2SgERigKNMIRqeq2XxUTfqSviQDZIAMkAEyQAbIABkgA2SADJCBmjLg0qKMt7c3/Pz8qOZRWCIDZIAMkAEyQAbIABkgA2SADJABMkAGXI4BnSjjaoV+U1NTUVhY6JTR3buHo1dRLDp3qI6C547gqUnI2RCD8Gp9rjrn4L41VRT5ObJDBsgAGSADZIAMkAEyQAbIABkgA67MgE6Uyc3NdVrkaAqdrlKU8QtC1ycjEBrhDlOnEKRtjEKYyQSPpBCkLOiEwKpURP8gJK7PQN8ZgfCoal++75Q41hS4YRs4aZMBMkAGyAAZIANkgAyQATJABshAU2CgWYsy7gnBSHomDTnruyJ2YBhSno1A54Jo9C7KQP+lkQiNrBzCtqPikF2ciNjule/XFBzJNtBHZIAMkAEyQAbIABkgA2SADJABMkAGXIuBZi3KSDC6e6L9iChkbsxATkkGslfGo2u+LzyrimzxbIfoJRnIfioUflXty/cZJUMGyAAZIANkgAyQATJABsgAGSADZIAMVJMBnSjjajVlgoKCEBsbW7nThSiTF4H01emSKJP1bCyis3yqTEdy7xuB3iVpSM73qvz41TQ4VUvXUi3pL/qLDJABMkAGyAAZIANkgAyQATJABuqLAZ0oU18naazjWtKXNnRD16FhSFndBZGjY9G3KB39llSSvuTugbDZqchZHYkQb8LXWP7jeckeGSADZIAMkAEyQAbIABkgA2SADDRnBpq1KGMKC0bi4+HoGOEO9/gwdNcV+g1HB0eCiygKXJSOXg/4M0qGkUBkgAyQATJABsgAGSADZIAMkAEyQAbIQL0w0LxFGQ00zi+J7Y6AfyQgpygeXWKoSDZnRZJ9I99kgAyQATJABsgAGSADZIAMkAEy0JgMXDSijNNG9gpA/IoMZD0aDG+NqOP05/mZelEPaX9OlGSADJABMkAGyAAZIANkgAyQATLQ3BjQiTKuVug3NTUVhYWFdSoCeN4Vhf7FKUgY4F6nx21u4LA/nAzJABkgA2SADJABMkAGyAAZIANkgAzUjgGdKJObm1vnIkd9OqjORRl3b0TMT0fOM+EIZMQLRSkyQAbIABkgA2SADJABMkAGyAAZIANkoB4ZoCijMa57Yif0KElHxri2hE5jl/oU1njs2qmqtB/tRwbIABkgA2SADJABMkAGyAAZcF0GKMpYxAd3BE9NQs6GGIR3cF2HcjDSd2SADJABMkAGyAAZIANkgAyQATJABlyDAZ0ok52djfHjx7tMlEhoaCjS0tLqpr3+QUhcn4G+MwLhYRFqXMOJHGz0ExkgA2SADJABMkAGyAAZIANkgAyQAddjQCfKXMwObDsqDtnFiYjt7npOvJj9xr6TVzJABsgAGSADZIAMkAEyQAbIABlwVQYoyoioGM92iF6SgeynQuHHKJm6iTyiHWlHMkAGyAAZIANkgAyQATJABsgAGSADlTJAUYaAVAqIq6qNbDeVcjJABsgAGSADZIAMkAEyQAbIABlo6gxQlKEoQ1GGDJABMkAGyAAZIANkgAyQATJABsgAGWgEBnSiTHp6OgoKClzGEampqSgsLHSZ9jZ1hY7to4pMBsgAGSADZIAMkAEyQAbIABkgA2Sg4RjQiTK5ubkuJXJQlGk4UDgoaWsyQAbIABkgA2SADJABMkAGyAAZIAN1ywBFmUYITyLEdQsx7Ul7kgEyQAbIABkgA2SADJABMkAGyIArMuDSoowrGpxt5kTh6gz4+LRBWtq1jfrn59eKaYsUlMkAGSADZIAMkAEyQAbIABlweQZ0okx2djbGjx/v8p1y9Ztetp/CTVNmICDgduTluTXqn2hDU7YR28YxTAbIABkgA2SADJABMkAGyIAzDOhEGWc+wH0IFhm4uBmgKHNx+5/jn/4nA2SADJABMkAGyAAZIAN1xwBFGYZ7XTwRBxG34fD7LYADV2FfXt0NoottQmrSokxAX0xfsRIzswIvHq45h9HX1WHAtzsefHolZg8Opt2qYzfuS17IABkgA2SADJCBemKAokw9GfZiu1F3if7Ouh7lh92Aw244ub4VvOn7Gk2sdSfKxGLf0T+Bswexe0ZV6VAj8OVpAKdewZI8NximL3lGY9RTm1G2Yy1mDQyFVw396zv8RpxUOBGs4HALHFt5R41s5RLjooZ2akp96zx4BpYVb0Op2Qzzjq1Y99R9SGtnJLz6IHnsk1i7dQfMZjNKt5Vg+ay70MXdaN/m+ZpHSA5mrN4O884NmENhhuO6GYz/pjQXsS3Nc96kX+lXMkAG6psBFxRlemBO9n7szTf624uVUfH6iyyv3ihM3YRtQ9+UPrPnnt3YkvkkCvzb6fZL77bD5phvYlfuTqxKHIVoowt29zD0iX4a6wfuwSt5oi1vYtegLVgYMwidLPt3wdjuu22Oa233i70mIVa9IAqcj02GfZL3fyEpR2mvtf+7+jyERPXz0lZ5b8BC9FNfb1eIZ4bsh+5c6nu6rfW4hrbVHNNiq6GbMClAP0jl917EvGD19cqPa+2Xur/z27CBt+Kz167A2QOy0FL+6eU4+vwtmJdxJ9x1fVOOqUbKfHw19tzj/HlqNQg1QpB8gy+3Vf/4Omxp20DtMbJLNV+zE2VmPo0j5yD9O390PeY6XW+mLkWZAPSdvhrby7Zg0dg4e0Em4FZ8rxNatH5ogS9nWO3frEUZr9bYvP1K/LH3Ztxr6Pc7sfUlrW2MH1/YcZtu/qzVGDFsh9UfVR67+zSsLTVLIosQWtS/rU/mw9fm2CEFC/B8mXUfed9SrJ6SAg+bfas8r7p/Xm/s2jUGex38rZ3gY2Mrf4ycNwg7N3RHrm81+qmerw62Hp3zMb+kDDs3zMFgy1zdOG1x2s510G+eiz4mA2SADJABMkAGmiIDOlEmPT0dBQUFNheQTc1xld3k24gyXgMxp/8/DUWRPUM24P4Ab0tfLUKDnTCyD2U9H7SKJ+LC0CsL03vvwR67fYWAohUk6leU2XvPdszpYO2DydTAokz+G9jUrb/uBrihRJnuD1+PM4eMbxjxYkv4NZUL+ItAlJn52iGcqziGY8d/B85/g/1zq4p6Ud+vO1HGN3M61uwow5aFoxBl5PtqiDLaiVoWaJpRpEzbVnj/bTeUv3FTsxFlch55DmXmUqye0QuB7ib4Z0zFyp1mmDc/hsGe2u+vEIx/pgxm8yYsGBmHdiYfxAyfjxIh0jx7P8ItYrr2M048rrYo0wEz143C3s09Gk2UMZk80HnYk9hkLkXRo3ch2GjM8DXL9YF2TuBjJ8YE2SE7ZIAMkAEyQAaqxYBOlMnNzUVhYWG1DtDwFygGwoOh0wMxKLkMe/L34aX+izCyfRC8TJ4I8M3FlF6vSIKKNtLETkzw6ILs2NV44Z792Hv3Zkxrr16IBCIncTteyd+PPXdtxRNRAxHlId5ri5D2IzG9+3rM6qDuq4gyd23EP/zU15zYKlEzxlEkSv8HbcK6AfuwLTUfAZb+G9jG6UgZbbsMjmM5hwmyrV7Guj5m7Bn4NO7ysn7Wzo5GQpHmWDXj53Yc/NgNOHQ5vnmyFXqqv/QGtcG0h2/Ej5tb2v1CXrPzWPtVV58vXHUlKg5fgXdduKaNPlImBK/9dBoVp17G+tIP8Cf+xM9vRDi5MlNdiTLRGLf0BZi3LceEJC/j+UsRZaob4XHxiTI2zFcp4tjsX+uxXf3jjVxYCrP5GRQGuSu+744Z68tgLp6N/tLcrB5Tef25ucixvD4SC0WUzdP3wb8u2q4INPbRMWobxLYpiDImmDxiUbhsO8zbV2JisrZ9fFxX8z2PQ5bIABkgA2SADJABZxhovqKMIkbsGbwKo21rC3jdhccH7NOJLfZiggCoKx7IfE0f/eI7CSvv2o+99+zAvNCqCiXWoygzYAkmJZVij07wMRBT6k2UeRFPxC7Eljx9dJK9HQ3aVOubn5b4+nM34J0bMUsjCDkCXhZCtFE1jkQR5bgO0lzs6tD4tsbi1dfi1CctpDo1cvrUrbg/xPHkU5koc/eyq1Fx2A3/e7a1LvpI6lfErfhepGm9cRNGSb/+K219sSVC+7XE4dcvxXnR7kOX4MTOWzHOJq3MZLoT9877G3756BKprThwKY69eBOWd3eQ6lWJj3SizMyn8dM54I+vRmPc1AX48Szw18+rMMcghWnME4/j8NFfcPZ8uZzrVPEXzpdXGNSUuQrTi4rx/YmT+Eu8D6Ci/BwuiIcGNWU8UyZh5Q4zNi8YjjBH7a5HUaZDj9vw7u7L8ZcUudUC5965Bp8+dgdC1bYowsaFHS2RPe96/HHADeWfXIM9g+7E7BXXSBFfF97/G9bHabhxvxMPLrgexxS2hL9+Kb0Zi2xunqdvuAI4dBX+L7c1Vqy/Br9/KrN4/t1r8eZ9bSwClbSfA67VujnaFC7LWKpMlPG+A/vedAM+vwa7UjVtV/qduegalB9ugf8+3VpqR9C866T6PF8+dCfue8Lat/JPrsKhR1rbiSLuAfo+lX9yBX7adCvGBenPFfvgSpSZt2HpfVFwF9EvYxfi+bJSbHgo0y4laejjW2E2F2F2f1+YTP7oP3MdSs1bsWhUJ+OUR9WHzm4rEWUypg7Gqw5SnNTUJ1sxxyeqMx5eNhQvvSjSo0Zj15bBeHpiGEIsopIi8KxIQPLwXthaOga7S4dg3gBvZD6QhR3mMdi9LQuTEj0sLFh8azIhcOCjKDaXYsPMvvZzjrN95n6GttXamY/1Y5b2oD3IABkgA2SADOgZaLaiTIdOy7E9fz9eSM41uNj0RI9u27Enfw+e7RIjXVDZiwnCUIook1eGuUr0S0TkGpTl70dZj0J0rvJitD5FmYXIav8INt6jTSEyEEDqUZSZ17E7ZvR7A7uz5qOPEvpvb0eDNlVpNz2k9oP2dnz6oRBZLsV/lt6ByCrSDupGlGmBn5dpxZI22LjzMlngsLnZLd9/I2bZiSJynyoTZUxpt+AncWNvEV6sdug67zqcP9wCPz7VRrnRVESZt67E8YNawUl+fLasJdI0dpm0+ipcsGmndDP+8XXYYnOjb29vazvEe1pRZtqrB3AWJ/GvbSbk5cU5LNw7YtlWHDsvCyyyIqP536bQ78wX38Pvim6j2Ut+aCDKJExcgR3mzZh/T0fHN0f1JMp4pd6Kf4moLTvbtsAvK++QhQZV2Hj9avxiSblrgV9fvQZ/WD6nSZFyvxOzN1xpKUqtPXbFB3rxRhZlLsVv715q34YD12FLhOy7ehFlTCYMX3GVJLSowouFHY82ePFVsdKZtQ2qKPPrPoO+HboMh6dZRSSTZ2tsfcmgT4fdcOH1mzBRK7SHFGDB82Uwb16NZ9eLYr87UDS/AFEa/i3tUuvPFK3EM8/tgLl0C1ZM6Vd3kXV1Kcp0isKSLaMNatWMxguPdUYHqX+KKFM8GMU7rXVtdqwegBckIUd+bdtj4cYpnQHZeKTIjNL1M9Cr1vOyfp6w2JzHdTwv0Ta0DRkgA2SADJABMmAyQSfKZGdnY/z48U3cMMpNvlE9F03USJcu62DO10dxaC8SZXHln9gQly7111ZM8PRKwrDEzTDn7cfunIUYpERkyPtZP6c9pv3jymrKOG6byZn0Janwbhz+0WuvJoXIQACpT1Em2ISYqI14Ke8lLAhrb2hHS50bI3/p6u9U74K++5QbcEpEyxx2w/m3r8M7j7RCNyeKZlYqihhNivEt8fWHbjj7Ykv0s/w6bULXWdfj7GE3nH3lFsxOkKNN/DvfgRe2X4ELOvFE36/Kz98GW18SkQ5X4c1s7efaYMfLLYBPr8c6S5SAJqrn46vxzvTWiHA3IWzgLfj+I2GXa7ArXjlG7k04fsgN5ftvwJqcNmgvbuaCWmP5GjlK44+S2+Fj1HcHr1lFmQC8+uMfwJn3sO1+uU7Mwve+x3n8gSO7O2hSmDLw3rFzQMVZnPzqCSyadK303pipBfj4l7P6SJnCqfjuTAVQcRI/vXsv5hZegby8qzBh1qP41xmjSJnOGLHweZi3LsW4GK3NbB5XVlPm4N+w1kFfK01f8hD+ugQ4dBn+9VQrpAnfuN+J5OG34Nv3NIKEIsoIViVBIfJW/FsRY/4sbYnMgTfhmHhPKZ6rFhq+8Prf8UzfNpKw4xF6B9auv1piTkRsqXONVWxpgZPb5CgSse+ul0VEVAt8M9vGDqpA5LCmTPX29+p2C44Itl67GXdpbChe/+mwG/58/jZLBIwsyshj9szum7Csx52SvSYtu0bq14Vdt6Krcoye867DX4fdcPrFWzA19k6pv4FRrVBWdjnKD1+C7x7VCDimzhj+5CaUSSsvrcS0noGOo158kjF1lagrY4a5eD6Gx+kLvqt2rfG2ElHGekxn0pfaYtSCfOzZVYAN0zsjLlCkZnkguEcclhSPxN4XB2JGV/GacqxdY7D7uR4YGhqNZYo48/KKRCQndsP6sjHYuyLBQd2Yzhi9eCvM25ZhvDpfaPxobbMNF9zHMgZpI7JBBsgAGSADZIAM1JYBnShT24M1zOedE2Vk8cSx8KFGvKh1W+T9rSsjqSsQ7blrCx7uaE1Tquq4ehvUtyhjQkj4CuzM341nIiNhEUA0KyWZ6lmUMfmMwpLB1sgh2T7aYseV+KsWooyws3/q7fi/sitxThFncOBy/Lj+Ngz2dzwxVC6K2HzOtxX2vdECRpEvG3baiiTKZ31b4tvP3VBeZlzXpqrz+0/+m+XG27Jkd8St+PchN+jFE0WU+fQ6bLeJdJHP0QLfzpHbJD+3FXrEe63w9n43YP9NmOBEGpjKtkWUmfaUlK509seFmKGmKy3ZhuMXgLNHNK+t2IVT5UZpTfY1Zaa+8hnOogK/fzES49RjSltHS2KnYvp6M8xFD6NPZX2oB1HGPeRWfH9ILzyoNop88lrg8CU4PM0EkyrKHLoCH4wywaS25cA1eLmn9bkqykhCy+dXY7d4T3vz27YVPnzHDeWv34yRyuuqKHN6R0uka/ZVo1LslvKuY1FGiFAbdgph6iq8MdDa3swl1wCHrsA7w6yvqaKMEKK0bbXY57O/YYXog7tYAaoFKj66AU9rI2JMJriHyoLW+W3q6k+dMWrh8ygT0TEbSlAqUnFmKZEvPmOwWBTxXTJWjpb0ycSMdaVSdMyGIvGZrVg8VqQ8mWDKnImNZWYUzbJPedL5QGNjw9frSpTx7oIl28fg5afjEGYT8eNT0Ae7do3G6kKxqpMqyuRj6bC2cDd1wZIdY7D3xSGYm+kJk/rcoSjTFj1mrofZ/BzmZFl9Zdi3qvrO9/XjlfagPcgAGSADZIAMkAEnGXBdUUYrPBh0Ni66GLuqjJR5DaujEyVYjESZ3QNXYJzh0tnWz1V+8Vq/6UvSsteegzAvZx/kosUNHyljMvkhS9S2UZbHdijKVOGvyu1Yxc1CUGvMX/Q3S/2N82/ehJk1SR+y4UhK+TFM71FqaVhSTwzSV/55M+7WRNao/atKlBFCyXvvuAFv3YgpisiQvfQaVNhFz6jpS9b91HOYlBWfvntUtpskIFXW1k//hpU+VdhYYxtVlJFTl0Rh386aqJjBOHDqAnDmI5RNkqNnCneIAsDAqQOZmv3Ee/aizOIP/40LdpE2Yt8qRJmNM9FT00aLLdTX6iF9SY1o0aYX6R+3wJHFrS2ijGXFI6Utts9lUabqJamFWLFQ6ZcsyuiX9BZ9bzBRRoij9/0dfxzWpF95tcbrr9tHzzhsk0npsxqxpIpYlTBbvvsWZJtMCLlvKXZa6sl0x7S1ouivIrbkPILnyszY/NhgeJpM6D+7BGVqPRk15al0A2b180XI+GekSJtn7w93HGWjslTZtq5EmdRkFJut6UhqzRntdvOsjvBRRRnLSk6KKGP73KEoY0Lc5FUUZSrzKd/jBTUZIANkgAyQATJQzww0W1GmU8QqlObvw9akgYY1ZXol7sTe/FexNKKTBJlOTBArL8VtwM68/XgleyFyva03rLLYsx+lGfc6LipqcVoDiDImJYVIWh47E3Oy92OvVgCp70gZ0Vep+LFc26ZHtx36wsj1svqS1R+6m++gVnj7DZH+o629ot+3alFE3l9acvvzK/HuCKNCuPUpypjw0IYrUHH4cnw8TrSlNfb+nxvKX7kFGbpfzBtblFFSl+yKvqgvnMIPZT6SCDPn9S9xzklRZt0Xx1FRE1Gm5FEMrCRCSo1OUaNRdNxYxqueHPd4qwAAIABJREFUFbFPZelLFGUUe7W9HZ+874aKt2/ENJMJPlI6lm2KUSVCUY1FGR+MWSxSkZZgrBol1XkUFor6MqUbsHa9EGhKsWSsH0ymTMzcWAZz0SxkKmKpT+YMrBMrL21ai7XiM+YizMo0LojrLC8mlxNlPJA4dQ1FmUrmAKd9z2Pwgp0MkAEyQAbIABmoIQPNVpQxBTyMDffsx55Bz+AejagiXWD5jMTCQfuwd8gajFXC43WijGRMNfXo/7A+rrtF2PEMmo9Nefuxd+hmTAv0rgK8hhFl5BQisTz2DDzWGKKMKQzD0l+RattMSmpEUcZkQthj10kFUu1WSlIGiDOijP89N+HYwUuluhXiF3b7i3KlxssHN2CBLVuG+1uP4cz5TZk346iariQ9vgRfPWQrDjkWZZZvFQVSL8NnhfJ5Hym+HBXaGjNVtNG+v9b2i/ekSBkldUmVYIy2Z/41DfeL1KMNb+A0AMtzJS1pxIL1+PmcfvWlx/Z9jb9wHsc/SNZF1Ux8/g38Jor/2hX6VWrKbF+OCQn6dur6UQ+RMmrdlN82Wmu86M6p2tk2ZajSSBkTFm25DDh4HV5QivQaHlM5dk0jZbTRNpUdX00tskT1qH2y2Y5bfZUlXUk8Nko9chQp496xJb7+1A0V79yI2eK4Hm3w8h7Nc5tzWdubhmlrhZjyNO7TCHI+Ax5BiUhbEnVjti1AgVRrqgALdog6MvplsjuPfwY7xX7ib+10pBhEt1nPVwlfahurI8qU9sN9gQ6OGRyHFaVjYH4qCgHqsQ23tvVpqhspE4phT25mTRlD2zrwDfc1+E6krao1T5AhMkQGyAAZIAM2DOhEmYSEBAwZMqSJG8kgRcemU/KXo1wEd2/+PpT1notc/yB4mTwR4D8Kc/vuwZ58IWLkWy547UUZEzzbP4wNd++Hbllt9yQ8kLkXoubM7iHPY15EL4RJF/JtEdJ+JKZ3X49ZykpNIp9/bPfd2KspQOzUF7fThX7VCyElhWjIdjw3uBEiZUwm+HUUy2PvxnNZr9R/pMyMG3Bs501YMaI1uqrFfX3boN+wW/HlO3KkzHeP2ooYsq2qFEWkwr4tcGJ9KwTrIlNUW8tbefnqFvi97BY8la0UzzXkUP+5Ks8vHUMp+Pvp9Xh9/ZWoeP/veEyNBLCcQxFl3rkBy7spfdUU74XmM2qdmrOv/R2bRrZBeCX9coZPIcrIqUsVOHWgPwp0tV/ckFf4EL4X+Upn3pcLACtLZePCERx6PhijRrTBolfexK/qakza1ZeelevPVJw9iDcX3Y6CMRHY/MHnOK2uxmQnypigrr60YHiY47mrHkQZk7ok9MEr8MXC2zEsXO9riy2rKcpEzLpeKnJ7ZveN2JDfxrq0tsX31vNUW5RRBA8cuhQ/LL4DcTY1WyxtVs9l23b1dZutWvD3zxduwodvu0FbjFg9pirKnNh4u1wU2WRCZL/b8N5r8ipL2s9IIs/hFji5/RY8rhQ7Vo+j3cpLXJuxdXEhktqLwrf+SMibK0fAmM3Y8UyhsgpTLB5cKQScUmyYPRihbU0w+XREr/ufxvOKgFP8SE7tV2FySpRpi/FLR2DvrhEomhmOSHUO09m0PaasFAV987FqWhf07OTpIK2qlqIMV19yPGfo/GEdc1r++Jh2IQNkgAyQATJABuqCAZ0ok5ubi8LCwiZ+keKsKCOLKuuG7pMEFLVwr7q1TUsyEmVMpkAMSi7DnvzXUZzQ1xot4zsBywYbH3evrnitGm1jX0BYtOPFXpMQq174KUKM2j7brVqQ2LCYr0n0VSyPrZzHIH3J9njyc20h5MoK8uqFHkNbucvLY8vHdbbQ735Y+1WNAa3UTNHX77DWdTn76i0Y6aker6pUo+uwRdygSX64A69L6U/WY+nOoanzYlKKAOve19TAUOu52A5S50QZE/xnXS8tgV3+uXyDayn6q/JiUkQZzTktbTlkm3blePlu8RlHUUW2bVefBwQEY8f3vwEVP+PAMrE6klw7xrr1xytiVSbLUtmt8NwXR6HqKmpUTcW5b/HDz7/pV1/Ki8WbP5+G7eLZF34/jCMn/jSIlDHBM2USVu4wY/OC4Y5TChVRxmIjnd30NVnU4rnO7Bs66kb8alnm2oYbmxoplmiTKiJlKlsOWqTmaYv3VluUMZkwbsVVBstt622g+trZSBm1OC8+b4Fym6K/6rFkUcbGRoofbJe5dg9qhff2C4HVaH9NW9UlrtVoF822tFROX1IL/4YULLAIMFJkjGXfUpSKNCa1Fo1ljKnzQhVbRYjR1nvRPl47QRTk1R8j4f5s7HrJvmaMdl+fHskoKrXfRz52DiYFi2PWTpQJHPgoioVQNdP6/WbbVj7X+472oD3IABkgA2SADJCBumagWYsywlg+viPwSO8XYb5biCj78MpdL2Fdyv3oYZN2Yig0iAtppSaLNtVJHNfTJwsTUjfhhbv+iT1iuee81/HioC1YGDMInSyRCA0nyliickRbGkOUMZmgrmilF6YqF3tqJMr4tsEDD9+Eb1+/DGcPKDdthy7BmXeuxudLb7epLVIdUaYSoUPcHGpFGcFG0B3YuvlqnPxYLD+sv3msrShj8r0Nhz4WxzRaNUlMhAZtPXApTv3fDdg51CBKyLc1Fi+/Hr98cIndDXm1RZn4+XIkzB9vYuM4W0FGfi6nIQF/fDVaXkVpRBr2fvsjzpaL5a7P48zxt/H6s7dj/Ze/2ogybsibeC8++fk4/hLKTMUZ/P7fl7B1RjfsO2osyphM0Ri39AWYd6zC5HQvuxtgadKsJ1FGHLvL3bfi0P9dYWVRZaGmooxYZSigNZ5ddR2OfWjrr9qLMkL0WSqO/YlW9NAIHVoBwclIGWEHNcLHdnlsyf6W4sP6cXL+oyvw0yZ5KW91P3UrlvYu3Xo1TunaKT6vb6t/xr14cu1W7JBEllJsK1mFxydmIzJCqS9jEVt8EHPXDCwr3oZSad8d2LpuCWaOSEN7tb6MUvhXbYNT2xqIMiZTO+RO7ouSF0Zizy6r8KIVZcS5/VPjsGDlUJjFstaa/fbuqgNRxqMLRi96HubtKzHRZgU3p/qt5YSPjecd2oV2IQNkgAyQATJABpxgwAVFGSpzvGC+CBiIvxX/PmBU4FftuyLK2ApFTgz62vKjrr5kjYwxFmbq833RBm0/Avo/hLU7zNi6ZBzi7FK9VJtxq7VZXT8esOQalB+2L/CrnkdNX9JG+qjvcdvwbHa8+3GUlO3E+tkD0L4B5g36uOF9TJvT5mSADJABMkAGXIMBijK8GNXd3HLgNv7AjRt6C757X0QxXIEPDFd/Em2kKKNnNQD9H1qLHeatWDIuzpJqqN+n8X3bHNvj7tcGM5ZdizOH3FD+5k2Y6KBODUWZpsOfR+d8zC8pw84NczBYSoNqOm1rjmOEfSJfZIAMkAEyQAbIQGUM6ESZynbkewSJDNQvAxt26tNJKi82TFHGjseAvpi+ejvMO9Zj7t2RFGbqW3C2TQk7cBXeGOp4jFCUcWwbO5br0XceQb0xZcV2lG19Gv9IcpDuV4/nb8i+8lxNgzn6gX4gA2SADJABMlA5AxRlePHJSJkmwoAsyrTAXx9eha+evAORltpERoOYoozh5B7QF9OWP4uHsgLJdX1zrYoyn1+C06//DVsG3FmpzSnKGI3jRnjNtzsmL1+NOYODK/WX4fiqb6Z4fPqEDJABMkAGyAAZuAgZoChzETqdF9uNcCPUjDhrijVlyDSZJgNkgAyQATJABsgAGSADZMAVGaAo04xull0RQLbZ9SZOijKu5zOOM/qMDJABMkAGyAAZIANkgAw0TQZ0ooyfnx9CQkIYMkWhhgyQAYcMUJRpmpM5v2TpFzJABsgAGSADZIAMkAEy4HoM6ESZ3NxcFBYWOrwZo4Ndz8H0GX1W1wxQlCFTdc0Uj0emyAAZIANkgAyQATJABi5WBijKMCKCIhwZIANkgAyQATJABsgAGSADZIAMkAEy0AgMUJRpBKNfrAog+031mwyQATJABsgAGSADZIAMkAEyQAbIgJUBijIUZaiGkgEyQAbIABkgA2SADJABMkAGyAAZIAONwIBOlImKikLv3r3piEZwBJVCq1JIW9AWZIAMkAEyQAbIABkgA2SADJABMnAxMKATZVyvw16IK1yNl9/5DF98/Q2+Ofgq5qcSXNfzI31Gn5EBMkAGyAAZIANkgAyQATJABsjAxceAS4syHQrWYt8X3+Cbb5Q/ijKMcmKUExkgA2SADJABMkAGyAAZIANkgAyQARdhwIVFmU64f9tHkiDz5Qfb8UifEHi7iNGpfl586id9Tp+TATJABsgAGSADZIAMkAEyQAbIgC0DOlHGz88PISEhLqKoZWPt2yJC5ku8tXqQi7SZANoCyOdkggyQATJABsgAGSADZIAMkAEyQAYuVgZ0okxubi4KCwtdROBQRZmDeHV+qou0mQPtYh1o7DfZJwNkgAyQATJABsgAGSADZIAMkAFbBijKMOWJghYZIANkgAyQATJABsgAGSADZIAMkAEy0AgMuK4o4zUEG94V6UuMlLFV2vic6isZIANkgAyQATJABsgAGSADZIAMkIGmz4BrijJeHdBv/ov4RCyD/fX7KC7wpqLXCIoeB3jTH+D0EX1EBsgAGSADZIAMkAEyQAbIABlougzoRJmoqCj07t27SQsccbNfxGfqEthff463Nk9GLAWJJu0zTgBNdwKgb+gbMkAGyAAZIANkgAyQATJABshA4zGgE2VcwRG2osw72+eil3fjGdAVbMY2kg8yQAbIABkgA2SADJABMkAGyAAZIANNjwGXE2UkiHTpSx/i+cIOjBRhtBAZIANkgAyQATJABsgAGSADZIAMkAEy4FIMuKYoIyBjoV+XAo2KbNNTZOkT+oQMkAEyQAbIABkgA2SADJABMtC4DLiuKGPKxtq3ufoSB1DjDiDan/YnA2SADJABMkAGyAAZIANkgAyQgZoyoBNlcnNzUVhY6CIRGBRlaup0fo4TBhkgA2SADJABMkAGyAAZIANkgAyQgcZnoBmIMofxz6f7uoiQ1PgO56CjD8gAGSADZIAMkAEyQAbIABkgA2SADDQNBlxYlEnA3F0H8M033+CLd1/A7D4h8GZBI4pTZIAMkAEyQAbIABkgA2SADJABMkAGyICLMODCoowJcbPK8MnXoq6M8nfwVcxPbRpqF1VH+oEMkAEyQAbIABkgA2SADJABMkAGyAAZqIwBnSiTkJCAIUOGuJCi1hbJE9dh7wcH8YUQZyjKuJDvODArG5h8j3yQATJABsgAGSADZIAMkAEyQAaaPwM6UYYOb/4Op4/pYzJABsgAGSADZIAMkAEyQAbIABkgA02DAYoyLpJnxgHTNAYM/UA/kAEyQAbIABkgA2SADJABMkAGyEBdMUBRhqIMU57IABkgA2SADJABMkAGyAAZIANkgAyQgUZgwM3Pzw/8ow2cZaBjx7YID/dqtL+QEB/yyjFLBsgAGSADZIAMkAEyQAbIABkgA82CAbeUlBSofwUFBSgsLLQ8V1/n1moj2oK2IANkgAyQATJABsgAGSADZIAMkAEyQAbqggGKMhpRqi4MymNwYJIBMkAGyAAZIANkgAyQATJABsgAGSADzjDgFhsbC/Vv2LBhUqSM+rypb9PT09GvXz9L+5t6e5tD+9LSItCrV3ij/YnzNwc7sg/WeYe2oC3IABkgA2SADJABMkAGyAAZuFgZ0BX6zc3NlUSZuqoiXN/HcbX21rc9GuL4PXpcjbw8t0b7E+dviH7W9zkC+kzHipUzkR14sVQt90HShCVY81gewhqheFZ9+5PHv1g4Zj/JOhkgA2SADJABMkAGyEDdMqATZRISEjBkyBCXueltVqJM6vUon+mGkwNawbuRblrX57UAZl6HLZ6OIasrUWZk0Zs4jQr89nlulQLP2P1fA7iAI3vd0BxEGc/okViwuQw71s7CwFAvm/HmifBB07GseBtKzWaU7diCtU8UoqerizfugegzZQW2mUtR8jiFGX6ROZ5jaBvahgyQATJABsgAGSADZOBiYkAnyrhax11GlPFsjcX9rscvD14iCS+Y2QJnx1+HN5JaI0gVYFxSlLkSzx76H6R/FSfx9WbnI2guWlEmoA+mr96Osi2LMDbOVpAxwbfXFKzabobZrP0rw6Yn8tFJZUXadsaCrWOwd5eDvzVJiNXtb0Lk0Axs2DIETw31sRGCGmjSdw9G7qPFKCstweN5YY3TBhubuNqcx/Y2EKvkhOOTDJABMkAGyAAZIANkoIEYoChT34ZufxsOTBARKG4Gf5qoFFcUZQoG4tBvQPmxH/ArKnDm6wlVRr2oqU8Xpyjji8zpa7CjbAsWjY4ymOR80X9OEczmbVg5LQuhXp7o2Gcylr9ghrnkUQz0196QVl+USbo/B7t25WHxPY0kyphMcA8egsdKzCjbNB/DwrT94WMKLmSADJABMkAGyAAZIANkgAxcfAy4tCgTEhICkXLVdMFtg03DLpXEmPIHrserCa0RIYlAdyItqiXeH3UDStRUIRcUZQqe3YPf8BeOvJaAD08AFaffQJGT9WYuSlEmahyWvmDGtuUTkORlNNl0RsFTz8O8bRnGx6vvp2L6OjPMRbPRx/AzYj9FoDGIjtGOjaYgyphM7ug0ejG2mXdi7bQeTXjsqvbnVssQH5MHMkAGyAAZIANkgAyQATJQtwy4tCjT5GGIvhGnHnIDJl+HLR2qcJwiyvyv/x3ISbkR/33gElnMmXolvupxBzrYRvSIlKjsa3FqqhyFUz71chwdeiseaGd8nqxuN+Pb+y7FeSlipwX+euAavNOtDTw1xzWqKePf5SYcm+EGzLgSH8TdiZ6WQr9K6lLFt3hr8hVYcuBnoOJXfFlkkMKU7451736Ck6f/RLmc7ITy8+dQYVBTJn9cCl7+/Gv8dk68L/6V4/z5C/Y1ZdJEDZ4r8G6UCWHRt+Db8ZfKqWHTL8ePWbcjUtMvwUlY51tx+F5r/9X0sUCb/cS+hrZKag27fdW0tMmyrzDjEvw+6kYs73gn3O2O64nkB1dih3kLFgzv5FCMSJi4AjvMW7FkXBy8TN7oOmYhNpftwJoZfeFvd0zV15WIMgndsK7UQYqTmvpkK+Z4+2Lw5L7Ysn0U9uwagz2l+di0OAm54R6WdssCzyDMyIjEExsLsOelkXj+sUh0SumK5c+NxJ6XCrBucjB8jdrs2wcPbzSjrOQRDPRW+2C/9R8wGxt2lmHr8olIr2S/Jj8PGNmAr1lYov/s2adNaBMyQAbIABkgA2SADFw8DOhEGZep0eIiNzSFWVeiYqYbjmXdAa+q2qxGytx3lSKcaNOdLsfHlsgJAWcbbMy7zCAdyg3lhTdils0N7KSsqw2O6QZMuBFTPayw24oy/mG34vtJsiDzbowsNFgK/RZk4sApoOL4NszLc4PDyJf821H63SlFYFEUGcvGptBvQQ4+OPan5V39A5tCv5Iocxm+zr0eZ+xSwy7BV6lWYcQiLNntdym+664Xprqm/M3geMIXmlQzyZdtsPYeYx9geEv42fk7ARNX7IB58xO4p6PV5naTbecCqQiweetaPLtmK0rLtmHD4yMR5zBKRhyrLkWZtsifNxS7VcFGs92zuRdGdHKXbqZlUeZulKwbLgk3Um2brYOwrniktc7NlkwMMxQj26LnzPUwl5VgdrYjW/hj4KMlcm2dss2YO9DRfnzdjiE79mgj2ogMkAEyQAbIABkgA2SADDRVBijK1OMNjCxyXIbPEpwYAIooI2rPnL/v71gTdifcPdvgkYGysHNqUCv4KG3tmnY9zs50w9lRt2B2oCw++Pvdga33XIELM1vgx15t4KH2K+ImHBfROjMux7e9WqFnW9EWJX3qrpsx2ZEo074lvhaCzPSr8LYiyAiIVVGmYMnLOIVyHP8wXq4jM2oqvjsLVPz2KlZqUphGbXsPZ0W8y9kv8f7Gjhgv3stvjUde/gBndJEyl2L2+99L4s2Fk2/ipSU+GJ3nhvyxvljwyfcOImVk4ers2BuxWthLRLl0v06yTfmwlkqUxh3YN14Wlj5LuQMJkrhxJ+5KuglHRP8m/h2PaWywIV9EHl2N18PboL1kQ2uqWbGaaia93hJfiwiisTdhnJ8iAPm0wbS0G/HjEPXcGr93LsBTz5uxdek4xKi+Mdp6hiNv/iZZjNi6HJP7hVYt6FUmymjO4Uz6UtBdPfHCi2Owa206hnX1kc7tHdQB4+blYtdLo/HcQ8FoazJBPtYY7H3pHizK90Pe/HxZjCkbiFk9AjFhWQH27hqEGdEaG2jaEjTsSTxv3oGVDyY7jJhQI2W2rZqKPjZCY1OdUNkuY3/TLrQLGSADZIAMkAEyQAbIABkwZsClRZmmXlNGFmXkFJsqAVREGbtIF1VUGX6rJX1lQ94lwNTrsd7HxqmeLfHtDDcIQUKN1Hhk0OWomHkJfujZWpeqZNQeS6RMh5b4YmILO0FGfEYWZdR0pf/h85VqutK1KP3+D6BC+9r12P3jOcO0JrvIGiXyBuVfYd9k9Zjy1nBJbClSxg1nh7dEP3etHRSxRI1WUexnFK00KUcIXlfi7Qjr55fcJWoAXYr/DrgNgyuNTrkdByeL1LSr8Y5RapNGgJBsnTod68xmFM3u41hk8YzGyAWbUVa2DSUbn8N28w6snZktp01FjsIiIeosHoMo22PXmSjjgbvm5WFPWTYmxcgRMRZOvCOwcOsY7FmViGiNKGNeEosuHiYMmSdEmdHYOjdcaq/83LEo49VtClabzdj6+F0ORRnLue36a/UX96EtyAAZIANkgAyQATJABsgAGXBlBlxalGnq6VaqKPNBjBODRE1fGtAK3tqbUDtRRon8sEvF0aQ73Xsz7pGEijbYPkJEftim3hi3R27vlTh2n/jMFfgozpoCpEIuiTJq6pJNYd/Ruw/gPMrx6yfpcvTMsM5SAWCUf469mugZsQKTnSgz6mF8bxBpI/atTJT5rrtxX9T2mhTxxnj1K2GzS3A4WXOM9rfhoLpa1oxLcGLU3/HP5DvsatSI43dPugGnRLTMTDeUT70SPw6+GSsi7G0mtUURZTbO7OlQhIgatxQvqPVkfHthyqrtMIuVmsbGIaD/HBSZzSh5dKBFnLP0sc5EmUBMXjHCmn6kSV2yLL1d0h05/mqkjHUlJ1mEsX3uWJQxhU7AcooyDlmw+lbDpnZe4GPajgyQATJABsgAGSADZIAMNAsGdKJMeno6CgoKXKZjTV2UkaNU3PC//q0dR0eoA6leRJnWeGVMdUWZ6/Bqulyn5fx9N9nVpxGijJy6pK/4on1W8WspnhIizIhh+OIPkbvkhCgzZhV+rrBPf2pwUUbyx524K/4WfDjyKvw5XRFdJl1vXKzZpzXmZ/4d/9EUUT4zzDZ6xwSTIsoYiyrixjsSoxY9D/PWxRgTJd+Ie0aPlOvLbCvC2uLtMJu3YvEYo6W0K6kpo/JliW6xCif2N/4NJ8q4R0zECooyLjPX2rNCsYg2IQNkgAyQATJABsgAGSADdcGATpSpiwM25DGauijjn3a9XGB34g14qqqaGE6LMkr0y4M34ClNLRRHdl99j1gZ6HJ8luAggkNz025JX/I0QS0OfHb4rbr0oB49bpBXWtKqMLaPK/6ND+eJ1KO/Y/9RAJbnSlpSfkts+uqYfvWlkWPw1WkA5z5AqTaqZlg89h8VxX+NCv26ocpImbi/4/eZbjjSW1NnR9NnR3azvC7q+mRdjXMz3XB6yO1SPRXLezbH8fdrhdfHiPQngzpCSk2Z7csnIMHmc/LxkjFlTRnMW5dinCayKiB7DorKzHKNmS0LMLyT0cRXHVFmJNYU+jkQA7wx8qnh2Lu9H+41PI/13Lb1aaobKRMw5DFsqqKmjCM783WrH2gL2oIMkAEyQAbIABkgA2SADLg2AxRlDG+Q68ipnq3w4f1ypMX5CddjZ0wbhEvnsxaPLVGLxzotypgwtO/VqJjZAr8PuwULO6kFaY3b3LX7dbIwNPlqvGspdGtCXGRLvF9ZoV+TCZOyr5IKB2sjP3r0zpJWXcKFz7F3tL72S17epZj94X+kZazlAsBK7RlU4OyRtVgwvgXGThuL9/6rrsakXX1JqT+DCzh1+H5MGn0J7l+6CF/+qq7GVENRxvM2HFJqv3yUrhY6NraVyXQHXht2Hd5Jb4VstXivKIocf6NULNlaPNgEU8TN+Hb4jXgupjW6qrVnfNpgvlSYuQW+Tbc9h7L6kkNhpQNy54nVhsqwZfF4pLX3gskzAPF5c7B2uyzKbH16vFKo2PbYzokyQcN6w7xrDF5Zn4G8aC9rMWjNGIi5Lwsv7RqN0mdTMaqXH/wdCH+1E2WcWX3JBN9ek/Hs1jKUbVuDh3PDHAhJtrbgc34pkwEyQAbIABkgA2SADJABMuA6DLi0KNPUC/2KgeB4OWYh1mhqvVRDlDF5tsI+qe6LLPjY1kv5l67OiuPls6taEtu69HYLnBjQCh1NJvT6x06cEHErR5ZKqyOJ9CLtn5rapC6VPWzWKvz3L9tQmgs4/cNnOKFbfUnUmfknfq+w2bfiNI7/8BVO1zRSRtR+STNaNlux3YQbMcUiPFRWr+dSHE7WRBuptX6MavtM/htW2hZhNnki+cGV2GHeggXDOxkKDL69pmCVIsCYzUp0jLQtQ2lpGczawr9qHRmjui/itTVJiNWILf/f3pmHR1GlezgJu4CACIQAHUgYCJEAMcgSFdkEIhKFSGRJSAQMW4BEIBhCQgBZVXQEASO7CYsQErpbGAXGuergzOA4yogwI4zPXNRxuy4jrmB+96mtu6q6esnelfz+yNPpTnX1Od95q+jz8p3viDfl2CEoODrPtWaM+tjwPlhWkObc5lp3/heye4ltr5SU6Tkeq16ww7Z/DSZ7yCCLztgKmxyH0oLFbjKMzHMnoClIAAAgAElEQVSz5T+MHCsyQAbIABkgA2SADJABMkAG9AyYWsroO+Ovz3v1CcarM5vi+xyhvouwPXMQfljYAq+N7IQoZeJcHikjvKd7CI4kN8M32cLyJK2c0UoZCyzdOuGZhJb4YmkQfhWPDcRPGS3w2vDOmh2Z1MuXHLF0CKBAfPlgZ+Se+UjMhPn8TA+NjHGIGWUZUtllnBF3UQpExoFSfHb1Z3G767Jrn+OTd5cjP30vPtNJmenTG2L96T/jm5+ui2bm1x+u4MPX7sfCwtcrJWWEvkwc3haXFzbEL3JhXkfMNFLGgpgB7XAuvTF+kmvJILcBvp3fCscGqYSMOGZdsGBsK/xnUQMpE0nYynxZY3yW0g6Le7i50cTOx5ZiO0p3ZCNOya5Rxl987IZ+8QuxcdchlIpLlqwo2V+AjYsnI/ZOub6MXPg3rCJSxmLBrQ8Mx5ZdM/C74yo5o5YyQjt69Eb6mkS8WDzLRc5UXsqEInrmkzhkP4bdy+81lFMO9npNxpoiQUbZUfr8UtytiZWbGPMYzzFlfBgfMkAGyAAZIANkgAyQATLgVwxopExiYiIyMjL8qoGOCRrB8YtxkbbE1mbHOISMLmumOl4XPt+8TEQiYcVulCo7LNVHpmXRYi1aj2l9PImVroi6Mwl5wg5UdisKVyaYeNw99ZN/M+/1zLHj2JEBMkAGyAAZIANkgAxUngGNlPH3wrkc8MoPeGVjSClTyTGITMCK3aWwH9mM+UPC6pdoCO2LpHVFsFn3Y+N0DzVi5O2ypSVcNpQWrsf0mErGvT4KMPa5fl1fHG+ONxkgA2SADJABMkAGTMmAqaVMREQEhLoylRUNfL/vE15KGd9j5Y6ryPG52FliR+netUgdVE/ETGgkxizZhqO2EhQsjUO4p38wBCljO4bigzuxafkM3N2z8jF3NxZ8nbElA2SADJABMkAGyAAZIANkoDYZMLWUYWZPzV88lDJVE/PI8cux/bkVSOxdNeerzZuIb5/dHSMXPYs9G6cjxpOQ4d8omckAGSADZIAMkAEyQAbIABmoRwwEDBw4EMrPxIkTMXfuXMdz5XV/fZw+fToyMzNN015/jWN52hUX1xfjx/eutR/h88vTXh7rvL4ZC8aCDJABMkAGyAAZIANkgAyQATLgXwwEjBo1Cmb9SUtLE6WMWdvPdpuXPY4dx44MkAEyQAbIABkgA2SADJABMkAGKssApYyJpVRlB5/v5w2EDJABMkAGyAAZIANkgAyQATJABshA7TEQEBUVBbP+jBw5EsI23mZtvxnbPXBgBO68s0et/QweHMHxNvE1a0bm2Wbz/hvBsePYkQEyQAbIABkgA2SADPg7A5pCv74V7KwvhUnZT/JABsgAGSADZIAMkAEyQAbIABkgA2SADFQfAxopI2SdZGRksNJzPar0zIur+i4uxpaxJQNkgAyQATJABsgAGSADZIAMkAFPDGikDLeYJiyeYOHf/J2PfkheuwvblsahB8Ui5XINMxDZ/2ZcWRaAskdb4Eg/f79WlPZFYdKqHXgu5z70quF4Ve39NBrT1u7AliVjvF/74aOwaMtOrE+NQVdT91kZQz5WLUuMJ+NJBsgAGSADZKCmGTC1lImIiEB0dDQnX/xiXUUMdMLJ9AAgX/WT1RqPmSK+4bh70TYU247iuex49O7Km2lN30zL83mxA9rj3fRG+DnPydovs9shyRSsGbP14IRm8rUThCvjOrlck3eNaIWr+QG4OrWjy99cYte3LT5VX4e+vq9c8QvDsIWbcdhWgh25CejbzbhfLm0r12fU0DnDh2D2E0Ww2o9ie5YXMRP9AJYXFMNm208x449jyTZ5vz8wRowRGSADZIAM1DEGTC1l6ntmz+y5f8Sftr+M9eE19MW/uuE3mIg5BUkjvH1ndffTvFKmX/JaFFpt2L/xIfTXCJnOeD61oThZ/m5qsOZ/0SMH3oQvVghSoCZi68vYdcIpvRTTTcwFHnya1Fc3q+L5vbTXjdAL69sO/85xyhiFcUXKKPJCeV14LMttgO/Sb8TpEZ0QVSN982W8tMcomTLXF9+I/QaZMkq/fBo/g3uBT+8rR2yiJq3C3lIbDj6ZhkF6IdN/OPaemIfTbn5eemKQ7stQN9y7KAEvvpiI5aO0cakxqRM+Cou3FcN2dDuyxvTQtU/XpuhpWFdohW3/eqTGdPV8bDliWmN9ZZs4ZmSADJABMkAGyEAdYkAjZe6//36kp6ebZoDru5RZmXsZF/ecppSplgtSFjRuJtZ+NfnonYS1RdIEa1of3eTLIomDsrxA/LqkNdY5hE0XLJzYFGWi9KCUqdh4VkTKdEFmYhMgPxDfpLTHrB768bJAkRdqKeP8PQifjA/RyLWKtd31c6v7PEq/yi1XZEFT7vd5ui9EJmLVPitsB5/AjBiDWJRbyoQjZcNDOG2bjNzakjIWC8JHZeG5EjtKC7IRZ8CWeoyjUzdgv9WOAxtTEeO4LxjEwlMc+TfTfF9Sjz1/J+dkgAyQATJABvyLAY2UMdvgUMrUTSlTpZOvCk8azCNlRi/dgVL7YTw9e6BBjQhJHPwwpzm+yG2CN2+Xb0BhIXh9QRD+b9YNuOo3mTK6m2NEB7yfFQAlg8S/70+yoPEq8Tpja0ojIKc5jhlkkwh9NJIX0b1DsDOxOX4QMpuWtcDB3rpYVZjzmjuPUb98GtNqkDLDF21Hif0INs+/E928xU4WNK7ZMerY+YeUsVjCkZC/D1b7YWya2c+LMIhF+jNHYLPtRM7o7l6OVfeVv/vErTeu+HcyRwbIABkgA2SADMgMUMpU88UgZrM8fQgzuvVF2sMn8cZzgkj5EO89+xp2jItBqObz+2JK6nG8tv0D8ZiLOy7gjZX7kD24l/O4KS/j/T0fSn938/hm5iyEiedNwc5N/zLMppGybN7GvtHhjoshaf5ZXBAzb3pi9OTD+P0WqR0XCv6K4qR49AqVv4yPKMQbuz/EmYxZuGdCEV5+5qLUph1/x8nMHIxUjtP0zYcv8j5OvhKF2hU5zWGL7YB3M4NQtqIBPp8UjFG3tcPlrEBgRUN8OK6TlE0Q0QHn5Yn97P7t8U56Q1wTJrYrGuCr6TdjeYS7dnmXMoP7d8Br05viu5xAcXmQtMSkFayxnR0xVX95HzygPc7ObuyoI3I9uwn+eX9H3KWL029uCcarac7jrmU1w/n4jogz+t/s8AewstAKe9FaPBhp1BdJFlyd2h6n0gPxVWKI2DZx6VJ2CxwfK9T5aIj3R3RxtDmsRwiKJjfHNx76Neiu1vhvfgB+nNEeo3Xtt4jCx1UeSHVU5PjnB+LHR5rjT6M8LMfxRcqEdsGCuNb4NCtIzPoRxuDrWW2wM9rZH4vIVRCuxHfEc8lNxPH/eUEbbIgMwbGZjXA9PwA/pLXDTDG+TrmyLqIjTjvGIRDfp7fBc32NYiy85nyf5xpEFZMyIkehnWCfE+Sy3MyX8VI47HFLME7NaIqry6XlU2XLG+HjKR0wLcy1X8J4GfGq5VDuj3qZmRvhJEmZIHx8XwgeHtMGVxYFibEvyzG+DpQ2S+Pnedma0C+fr5mweOTuscJ+YAOSXTLLXONg8SBlIpPGocTNEidl6ZNe5oTe0gfz10/GMetccXnUyZJU7Fl3J8Y47kWy4CmJx6xRw7HjyBycss/EriV9EJ0Uh6KSuThlS8XTM9wsUYpdgC1H7SjdmoFYo3uG6noNn7gahVY7CtdM9FDoOApTH9uHUusRbPOlkLDq/I4x5GuO+ytjYnCNkQ/yQQbIABkgA/WcAVNLmdjYWAhLrvz5S44oP7a+gkMrzuOCXqIU/A75PUPl9vfEQwv+gvP6Y4Tn209j/W3yuv9qlzJncCTrrEE7zmLn0G5SW2Upc27zu/jbbr0guoyTM4c5JVJ5LrBySZkm+CxTmKDKtTkevQEfLXTW6ShTlurIUuba4ib41qCOx0+z3BVX9SZl5L8rn696LHu0JYp0mQxjRrbCt6qiro526yawYbd0wPklzn44jssPxNdTg10EjmV8Pl6w2vHC6gTjSVXPYPx9iTChDca0Cc1wPfMmLLVIS5d+fLg9JtzaFp/nqwqzhofg1FxVXFX9Ql4TvD1UFk6/CcbfFgcA2S3xgk4GKbVqfnq4Pe6Tx7/vwLb4xCD+yG+Af8fLAk3Pilcp0wUZE27AL+o2yr+XZTeHVVmWIkuZr+Y3UR3bEB/PUZZvCfFuhLeHqORKThP8n8E4XM9sgw2/MZpUeJIy8t8M2ukcX+cSMrcZJYqUyWuCPw6W2+DreAmxjeggsuD8TIUz1fjLYyDUh/nYcLyc7ZTuu+WXMt+mN5UyfjTxaIB/GxQHFj/Dy33B0zXzldE1c08OdlvtKFo3Gb31zBk9r0op0z0KywrSDGvVnNg5EuPE+mCylLEmoahQEjeC4Hm5cBJeKHbWuXl510iMMWqvZQDmPVMMe+kWLOhvxKr6tQnIF6TuvtWY0FP9uvr3yVh3yA673Q570Rok6q53f/73l21TjyN/Jw9kgAyQATJABvyVAVNLGX8NqrpdUkaKIC4u4PeZq5HQKxSW8DhsWHEBF/dchj1Z/t9OWXRceOoY8obGIkLINuk5HssWvC6Kj7eWLEK47gu4dG5PNWUqkikjtPUyzq7Ygpl9hAydvkjLfEsUSmcyHpIycOS2Chk/FzafxKa7bxWPi3/oJN4RJM3qzehTkWwZefLlOmkMAFTLQsRMGWFCJ0iCYZ1QIBeyFbJnXurfCTYhm0CRHbKUEc5ZltMUb48KwaCuFgwe0A7/FCbduc1w+jajG5R3KWOf3hxnx3bEVLl2w296haBkeiOUCaLhXtXuM442BOGLqe2xsJeUxXF7dDDsSW1wwLGMpTOeFZa25DfAxw8EO847cnA7nFsYBCxvhpd1k6xhjwjLMA7h8elulirIYkNYEibKkuXNcHqAIAka4PI9neHIIhEnxM46M78saI3d/buI2UY9eoXgcHJTUWhcm3czZokcKsc2wKUx6swg5fVGeE/JvgkLwal5QUBeY7wfF4IRQlZGaBc8MLQtrjwagLKsVthiJDq8SJnI29rik9wAXF90Iw4O6CwWwA3r3glPJEjLfK5OC8ZAoa0OrgIhTNKn3X0jvheFQBCu3BeCafHNcc0hplQCJa8xLo8PRkKYBUImxpvzBVmlzSpyXuvVK2WE5Ut7pjQTx+DXzDbIEzMglFgHwPt4KcuigvBFYrA0BhYLpGVRLXF+rIpXiwXSTkoN8c+4TuL1IvRT5DWlBV6/w+h6EV7znAWkyCbhWnS0V8h0GtsS360IwLX5bZGuu8eJ8fUoZRQp1AAf+XjN3DF/C4rth/HUrNt8E/oepIxz/H1ZvtQVI7IexO9OzEXJM0Mxvn8YLJZQRAy6DXnbZuDU8YexdZawjEg+14l5OHVsMvLGRiJ3pyRjTh2+H3Nuj8HG/fNwuiQeM4ziZbFgbM5uHLMfwIZpUV76GIUZTx6B3V6ArEHuxtWZKVOQM8FY/rpphzM+7s7N1xkjMkAGyAAZIANkgAxopIzZCv2aAWBJnFzA8ZQx2nofcsbL8RRJykhLh1TZKI4vuTOx+6l/4eJTBzBNl4pePVLmMs5kpuMWtVSRJYxjWZQiZdQZPGJ718G660NcFJdrVeDickyelf/BVz0aSJmrqR1wl0URGYH4MrEjeijP9VJGEDZK5oQc2+QJzVwFiiPu3qSMcf+GiNv+ajMPRse1xE/5gfg2ySDTxfF5UiaDsNRKnWGiMD5MFAk62WOxYNLaQ7DbdyB7qJsdVFRSRlpW1ABXJrXGp9lyXRIx5nJ7w0JwJsN12ZHYBmVJkhJXiwVhfW/GR7m6JUzycU5xYEFYdFt8uiIQX00Sxkcbt9SEpkB+Y5w1muh7kTJC5k9ZnqpOjnLu0E54dUEAyha3wUrhNZmrsqU34rkIRU4E4PrCm7Csq/JcGTNZruQ1xjvD1bJJOS4A/51stKWzJymj7rNncSHEWi0v9IKybHkTvKVkK5VzvGLuaI1vZCGiWd6lxE31eN84QVQF4r8zb8bqW9Tt9/S7574p/fplzs3yUjH5XKFy7HKao9hoeZgnKSMzUp5rZvyqItjte5A7Rs78U/Vbud40j1UlZUIjsOz5uTh16F5M0+2YFzp4BF44MQ+2jQNVUmYODubfiu6WHlj2/DycPp6GnZmRsCjPPUiZqBlP4ojdjoIs/S5RruPnu8Bxfa8mTt7iyL97EWSML3kiA2SADJABMlBfGdBImfpeOLc6IPAuTqSLTzpOvxRI9bzgOHJ1dR+8n7simTLaOjOGMVGkzMpNukl21UgZb4V+pUwZZRmFImV0zxV5oGSpqKSO0icjgaL8TagRclLYntngfcoxUo2YJvhRrs/hnEArE3xhbJXddpT2ebjZepJSYmaHUBNGKwQkKfM8lsa6OW9ke1xeptTjkDIrfs0LhLB0SVxaJH+mKBo8SpAuWD2lsbaeibKcRrWESVq6pBUwymTcGR+VbBP7pc+2kfvisT1KhoT+XKrnSrt0k3qlPQpn0nNlzJyCwKUQr+48CgfSY/VKmevLGuE/qW2xVV0rx2N8jMarM56dImU8CWPx86LmeC+hPZYaSZfwEFjTGsq7cwXi+wUt8ef4YMPaM844+CZllLj7+j5Fqrm+zync3LPlrKOkfJ4kZXYjZ4Sba0YvD6pKykQOwFOHnMuPlJoz6scT24YiVsmUcezkJEsZ/XMPUsYyeR0O+ShlpKLHvmTV+Bgvffz4nDKGDJABMkAGyAAZIAMeGaCUqWZAvIsT6YsupYxzgmU4+VKNkz9ImT4D27qpuSFIAWWCL4xtF6zSywxVX5SJovhYYSmzB3lxbnZPEc8pFFeVlqcI0uRLdfvUosGnSb42q+Xu0S3xY74iVeTlNLplVooEcT9xVt6vm/R5bE/dlzLergOhRoz73akUKaMdL4Gz6D7BODa1Bb6UiyNrCmPr2Bw5sANeTbnBWfRZnamjO9bX5Uuu/fIsc6pHyuzDqvvdFMrV98uEUiY8eQNe9FHK3J1VgBKfljrprk99nPjc45ctzb2esWKsyAAZIANkgAyQARUDppYyZsjs8VXKzFv8Li7seQObb3WzDEU1aMqXO+ncf0LBHe7S8N1kykTno/gZYVcmbVaMtIRK+5ryWZrHOpEp0wUbkoTMD/c1QtxnyiiiJRDfpLTHLLmmjBAjo+ybB+6/AWX5Qfg0IUSXWaSb5AhZLdkB+CG1g1QLxWDMNeNgsUCqKXMET8+OMb6xyVLmii9FVLt3xF8XuVm+FB6CM0IhZSX7RGmbLAbEXZjkpUv6pSSKCPpsgrTzk74Pbp97kQ6ZiU081ARSxVYtnlTLgxQ54GumzCS59oxxP6o+U0Zpn9v4VGS8lHGTH0fG3ox/ZwcAj96IrUZ1fZTjQ7tg6qjW+CrXQ+0XH2vKuPRLKRrtrg268dPEQ84E+yHF92tGqilTjC3zY42vGaXPymN5pMzxh7DxQRV7yjmEx/DeWLVnHk4WjkGC+nWX3/X1acqfKeO7aAlH8oYXvdSUcdMfl3bzOA2bjI9v1xfjxDiRATJABsgAGYBGypitpkxdkjI9J9rFIrnvbDiKtfeMQD91TRc3oEoi50O8mf2YVEDY4DhJ3PwDp+bORHSoBVHDnsax30rbctcrKbO0FXb1lgrXKsVgv1/hocisx+VLypKpIHw8XiocHNa9MxaPugkfZDYQBYxagkQOuAlfCNtwy4VjlcLAQsaCptBvqFykOK8x/jWxg6MgsMcv+vLuS0VrH0SkwfhLWQbqzB3dxCmqHf43NwBXk4LRw6KIqgD8NKctHu/nLPR79KHG0tbRM5w7Kkntkt+T3RJFtwu1Y+QCwuq2yJNuodDyO6rCyB77Jbzfo5SxQNmWWygae/gOZ0Fal/PqJvVK5o4iB4ylzA149XapeLCla2dkjW2FL4XdiHRZQM7PqgUpU87xmhh/I65MaYfVt8r9Egv9dsTr6VJhbGc9l87YPKUF3p/QAY/I14zQz9tj2uNilqpWj3qMxd89Z7wocf8+pQPiZZEZ3bujXBw7AI7CzPrz6sbPGXOhYLS8TXh5rhl596UDG5LRR/9ZRs99kjJdMSp3Kk6fmAvrlqEY18dIrochcU0KTh+fjRefHIqk4d3R3ejzKr18qap3XwrHuOwCFNtsOLJrJabFGPVNd18x7BeP0bDLGHESQgbIABkgA2SADMgMaKSM2b4w1CUpY7EMw+pcg22z5S2yHUV2VRdvzwQr3nbZkvpDqI8dlPp7vOeyzfYF/GXzRb/NlDFe5uKsyVKh5Uti7RJVvRHhubh7k6qYqzz5M/78APwy27l99r1jW6i2V3aetywv0EXKCEuY3G3d7NglSh5Xj8uilDo5KgYs4Q9gpbClbdFaPGiwVa1WOBhMinTiw/32wgEoe7QFSnXFkoV7hlRHRtpi+lc3OykJW4ILO+wYxtZd3R5d21zuT6GdUZAi7HZlfF5FuuiXvyhyQPm7NkayXDE8p377bk/HuqtH5FlcCH3Ut8+l36rxL894STsqGcfqB41s87Q0TCmoLbMkj5HhuAoxVI2t0i+jY69ntsamCCefntqqXR5ogfvt1gOcu7CpYmYJi0fuHivsBzYguY/zMzVxlkWMut6L+veXnnAtoBsxIQ4vHnetGaM+NrTfQDx1wLnNtfqcp088jN+mCO2pZKZM7AJsOWpH6dYMxOqKw2v6aLEgfOJqFFrtKFwz0cOuSkOQua1E2hLbbsP2RUIxYjdx4+uMDRkgA2SADJABMkAGys0ApUw1Q+Pr8iXxS254HJbMPYnXtv4D7+tEilq0OL8Q90TCtGP4/TMXNcdrjx2GzAV/wNkd0lbX5za/hr0T4zHsoT/ggp8uXzKatCG/6qRMWW4DfJfeCvY7O2uXE5VDylhCO2PVhBaqWhsN8eXMm7B1SFt8qq7ZovAV2gXzx7TBlUca4JosJ65lNcP5+I64SzlGfnRbQNhIylgsGL10B0rtR7FlYax2hy/HBN9DpoyB+BC2fz41oymuygWMy5Y3wn9SPOzCo+zMlB+A76YKGTfGE7Z7hrTFBwsa4ec8nRhQTdydbHvPlBGP7doZGya0xBdLgsRMHjU7inSptJRZEYTvM5vjT6M6idtuO9tY+1JGaIuv4xXWIwRFk5vj6+wgRwHfn5ZIDMbpJu/KOb/LCZREmrsYlEPKRPYNxumUG/D1Uuc1IBYwTmmH5SohI/SpPFJGOD52QHucnW1QdNvNNSMVty3B9kXD0M2I1wpIGYulK0akxWFXURpeOeGUM2opI7S12639sfzpJJSUzkHVS5lw3JuzC6X2w9g0s5+XLwTRePjJw7DZdiJntJuaVHJsoqauEeWN3cc6NUI/+cMYkAEyQAbIABkgA2TANwZMLWWGDRuG5ORkfvnjF2D3DHjYfanO3CT6pWB9kRX2g49jen8uLajcuMqixc1kvnLn9u2mzM+ogThFTcVj+6ywH9qEWYPc1eSqgXZU9b17+CPYVmzD0W2LMKK75/ZLosWG/euSdLJR977wKAydmofnS+yw2/Yif3xP9/fbqu4Pz8dYkwEyQAbIABkgA/WAAVNLGU5edF+e6wGw5R7z+iBlLBb0S1mPIqsdBx+fjv66rIdyx6xec0QpU194iZr6GPZZ7Ti0aRYGdasD99LwUVi8rRi2o9uRNcbLzlLR07Cu0Arb/vVI9VAjRsoosstLl46hcF0KYnh/4Zfjev1vRB24V3D8eA2TATJABvyOAY2UMVuh3/oyeWA/K/ElqJ5IGYulH5LXFsJqP4oduRPRjxOnCt5sKWXqz/0mCpNW7UWpvQS7Vk5BjJnFTPhATF9fCKttP9anxrgsY9SMac97kLXdN3kjSpljR7F/1ybkpI5Eb95XKnhfqcS/YfzizJiTATJABsgAGajzDGikjBkK52q+XBLQOg9opce73kgZ4Ut/PySv2YFns+Lc1nWpdDzr/DVHKVO/GInCpJUF2LbsPg+Fbs0woY7GtHW7sS1rjPdrX8io2brbu7yp89e6GcaVbaxf9yOON8ebDJABMlBfGaCU4RdPih0yQAbIABkgA2SADJABMkAGyAAZIANkoBYYMLWUYWYPbWp9tansN9knA2SADJABMkAGyAAZIANkgAyYnwGNlElMTERGRoZp7BiljPkB5E2EY0gGyAAZIANkgAyQATJABsgAGSAD9ZUBjZQxWxAoZXjhmo1ZtpfMkgEyQAbIABkgA2SADJABMkAGyIDCgKmljNIJPhJoMkAGyAAZIANkgAyQATJABsgAGSADZMBsDFDK1EIhH7NBwvbyxkYGyAAZIANkgAyQATJABsgAGSADZKDqGaCUoZQxTQ0h3gCq/gbAmDKmZIAMkAEyQAbIABkgA2SADJCB2mNAI2Xi4uKQlpbGSTpFDRkgA2SADJABMkAGyAAZIANkgAyQATJABqqZAY2UMUfh3CFY/dI5XLr0AS6e+zNe2fsoRobXntWiUWTsyQAZIANkgAyQATJABsgAGSADZIAMkIGKMGBiKXMJly4JPx/g7eIliKlme1WR4PI9vCjJABkgA2SADJABMkAGyAAZIANkgAyQAXcMmFDKSIMZ1ude5B3+My4KYuZdG/IGc5DdDTJfJxtkgAyQATJABsgAGSADZIAMkAEyQAb8jwGNlElMTERGRoZ51ozFb8X/XBSyZd5C0Qz/Cy6B55iQATJABsgAGSADZIAMkAEyQAbIABkgA+4Y0EgZdwf57etDVuOlc5Qyfjs+XFJmHsHJseJYkQEyQAbIABkgA2SADJABMkAGapwBShlCV+PQUSLREpMBMkAGyAAZIANkgAyQATJABsgAGbCgzkiZg3PCKRcomMgAGSADZIAMkAEyQAbIABkgA2SADJAB0zBgbikTNgW7z3wg7sB07pXfYko0xQxNI20zGSADZIAMkAEyQAbIABkgA2SADJABczCgkewedTwAAAL9SURBVDJxcXFIS0szjVESIOuTthN/+Ps/5e2xL+G9Vx7HaFpBU40hbxbmuFlwnDhOZIAMkAEyQAbIABkgA2SADJCBqmVAI2WSkpKQmZlpogl9GO7OP4wzlDImGrOqBZg3BMaTDJABMkAGyAAZIANkgAyQATJABszKgLmlzC2zcfAtYfelf+CtktUYG0EQzQoi2012yQAZIANkgAyQATJABsgAGSADZKC+MWBuKcMtsZkhw6VqZIAMkAEyQAbIABkgA2SADJABMkAGTMoApYxJB66+2UP2l8acDJABMkAGyAAZIANkgAyQATJABuoaAxopY7rOMVOGNpRSjQyQATJABsgAGSADZIAMkAEyQAbIgEkZMLeUGfMUTp0Xasq8haIZNIamk2omvWgYZ15rZIAMkAEyQAbIABkgA2SADJABMlAVDJhWyoT1uRe5h87g4qVLuHT+JDaNJRBVAQTPQY7IABkgA2SADJABMkAGyAAZIANkgAzUDAMmlDJDsPqlc7gkyBjx5wO8Y8vHEGZdMF2NDJABMkAGyAAZIANkgAyQATJABsgAGTARAxopM2zYMCQnJ/v5ACpS5gNcfO+veHX/cm6FbSLgaFtrxrYyzowzGSADZIAMkAEyQAbIABkgA2TA/xnQSJmkpCRkZmb6uZTx/6ASfI4RGSADZIAMkAEyQAbIABkgA2SADJABMuCNAUoZZplQwpEBMkAGyAAZIANkgAyQATJABsgAGSADtcAApUwtBN2bKePfaVPJABkgA2SADJABMkAGyAAZIANkgAzUfQYoZShlaEPJABkgA2SADJABMkAGyAAZIANkgAyQgVpgQCNlaOHqvoXjGHOMyQAZIANkgAyQATJABsgAGSADZIAM+AcDlDK1YMIIv3/Az3HgOJABMkAGyAAZIANkgAyQATJABshAbTJAKUMpwxQ1MkAGyAAZIANkgAyQATJABsgAGSADZKAWGKCUqYWg16aF42fTApMBMkAGyAAZIANkgAyQATJABsgAGfAPBv4fczv0HveBDxkAAAAASUVORK5CYII=;" parent="pOiSYCZk9DxUySAxYVqE-1" vertex="1">
                    <mxGeometry x="350" y="585" width="1125" height="368" as="geometry"/>
                </mxCell>
                <mxCell id="pOiSYCZk9DxUySAxYVqE-3" value="要检测地址" style="text;html=1;align=center;verticalAlign=middle;resizable=0;points=[];autosize=1;strokeColor=none;fillColor=none;" parent="pOiSYCZk9DxUySAxYVqE-1" vertex="1">
                    <mxGeometry x="90" y="850" width="80" height="20" as="geometry"/>
                </mxCell>
                <mxCell id="pOiSYCZk9DxUySAxYVqE-4" value="" style="shape=image;verticalLabelPosition=bottom;labelBackgroundColor=#ffffff;verticalAlign=top;aspect=fixed;imageAspect=0;image=data:image/png,iVBORw0KGgoAAAANSUhEUgAAAd0AAAD7CAYAAAAvv07xAAAgAElEQVR4Ae2dB3hT19nHDWQPQhJCEoZkWcZ7773xBGxsbLP3hrBJgDDMCDPsvbGxHVbA2EpoAiTNoPm60jRNSJvRpGkT2pRmAiEM/7/n3CHdK13JkpBky355Hh7J0tXVOe/5n/N73/cMeahUKtB/sgFpgDRAGiANkAacrwEPMrLzjUw2JhuTBkgDpAHSANMAQZcifcp0kAZIA6QB0oCLNEDQdZGhycslL5c0QBogDZAGCLoEXfJwSQOkAdIAacBFGiDousjQ5OGSh0saIA2QBkgDBF2CLnm4pAHSAGmANOAiDRB0XWRo8nDJwyUNkAZIA6QBgi5Blzxc0gBpgDRAGnCRBgi6LjI0ebjk4ZIGSAOkAdIAQZegSx4uaYA0QBogDbhIAwRdFxmaPFzycEkDpAHSAGmAoEvQJQ+XNEAaIA2QBlykAYKuiwxNHi55uKQB0gBpgDRA0CXokodLGiANkAZIAy7SAEHXRYYmD5c8XNIAaYA0QBog6BJ0ycMlDZAGSAOkARdpgKDrIkOTh0seLmmANEAaIA0QdAm65OGSBkgDpAHSgIs0QNB1kaHJwyUPlzRAGiANkAYIugRd8nBJA6QB0gBpwEUaIOi6yNDk4ZKHSxogDZAGSAMEXYIuebikAdIAaYA04CINEHRdZGjycMnDJQ2QBkgDpAGCLkGXPFzSAGmANEAacJEGnApdz/xo9KnJQc74nsoNmhaJ3pUpiE1p2vvxHpKAfrtiEerX9LXkTZKNSAOkAdIAaaAlasCJ0NUgbFEWyvcmICJc0vjBgUhZFYfoVDVUcaHI3pWE6FgVNJlhyFwbgxAJVNUp4chaGYmQMDU8C2LQd0c0AlVqePePRu7yMPi6yDNpiQ1HZZJoinSg7NSSXcgupIEWpwHnQTc6FL0O5KNwfgA0kob3TAtB+pYclFWmI3VcOLI2xSN2Qjz6VOaj/7Z4RKd56o2kLYxEzp48lO1JQtzIGOSvi0L0jBQU1+Sh+PkohITQwEvwJQ2QBkgDpAH30YCToKuG/5RUlB5KR2K2Wg9RvTA0GgSOiUPvg3kor81H2b5UpI31g7dGwXBaLUJnJqNfdT53bf8dSUga4A1PCcj196XXTG1NNiGbkAZIA6SBFqMB50C3px+St+ah/xozKWCNBgFDorkolkG3dE8Kks2BlEF3crwA6DyUbIlHbIEX1CSiFiMicnoUnEXSJ+mTNEAaUNCAU6CrLY9DUW02Mod4mRjdkF7OQMbkCGRtSUT8UwkorGZAjVNOL+9LQcKYGBRsikHsnDSUVOei31pKLxPsCHakAdIAacC9NOAE6GoRvSIH5TtjZYui9MKICEb6mlhExKuhSgxH7h7JQqrnYxEaaDCgZ24kei0LR1CYGl4lsSiULqR6Lhz+SuloBc9C/930nokTRLYx6I1sQbYgDZAGnK0Bh0NXnRqBvEN5KJjh23QKmLYMEQTJESINkAZIA21IAw6GrieC5mSg7GAyYhPJY3K2x0T3J42RBkgDpAH30oBjoRsciPTd+ei3NBjebchzIdG7l+ipvai9SAOkgebSgEOh23NUEkpqMpHaz7DXtrkqRt9LnYo0QBogDZAGWpoGHAddjQ/i1+WidFMkAmmBE83RUKaDNEAaIA2QBkw04DDoNnnOMhnfxPgtzQOj8lBUQBogDZAGnKsBB0HXzDnLBFoCLWmANEAaIA2QBvQacAx0zZyzTB6Tcz0msi/ZlzRAGiANuJcGHADdJs5ZJg9H7+FQ53CvzkHtRe1FGiANOFoDDoAuNYqjG4XuR5oiDZAGSAOtUwMEXYrEKRInDZAGSAOkARdpgKDrIkOT19o6vVZqV2pX0gBpwBYNEHQJuuThkgZIA6QB0oCLNOD20FX3DIQmLM0t/nsGxZGwXSRsWzxPupYiFdIAacBVGnB76D7WMxzanPFu8f+xiD7o2rUrgZfASxogDZAG2qgG3B66T/qGYuCYcW7xPzCVoOsqb5K+hyIX0gBpoCVqgKDrQmATdGkQaImDAJWJdEkacJ0GHA7dvLw8jBs3zmWpE4p0XScW6pg22DooCGk7clF+KAPJRfSrW6QdG7TTRtOubUUjDofukCFDMGPGDKugqy6IRt/qZMSE2C/IlgHdBTj15TUAP+OTY+ZT3W4Z6aZHIP9QPsprDf8L5wdAQwODZY2Xx6FEsFmbspdQ7zZVZ+oLlvsC2UdmH9dD1y8YaetiERGrhioqHLmHEhCpUsEzKxzZ66MQZGMDcdCdfxpfMOZJ/zXewvWr3+HLP/8Kq6eaB6Fj5oMJuu7ppWoRPj8VRZtjEOJrv+OnWHcx0j2QhsRCx0S6gZOT0WdfEmKCHVxWa/tcbjhytmWj13iNbBCR1Z+ga9421tqZrmvVNnQ5dNXpochiabfKNCQPjET2rljEjEtEUXU++m+NQ0ScbQOKWejqAdyIG9/+GdsnOhO8rRi60gFAiHpbTxTjg/gNuSjfGet46Ert5qDn4YtyUF6bjNjmgq4A1JwJBF2Zo+Gg9qV72jb2u6u9HA7dsrIyTJ8+3bKnotYgcHwCCoW0ZdmeVKSN9rUrZSmD7s+foUZYGDVkxgrsOvMRvrnWCOA6Lr610okrnAm67tkBCLo2tRtB1/K4RvAl+1ihAYdD16pOzKA7KhZ5+/K4ucLSXclILPWGpxUFNr6/OejyaeMJWPb7S7jJZls/O85Dd82f8S2AG5d+h5XSlctiiloCbu4e4+Zh6xuf4psrN3CLRc+Nt/DLT1/j90eXYbj+8wJ0Gy/jg9rVqP/oEq7cZLBvxPWfvsbvahZw3y2d01VHByBhRQZKOMcjD/13pyFjkj+0nqbeniY9BClrM4Vr81F6IANZZq41to/Zv7VahE5LQt8DfBuUVWahoCIcwZbm162IdK2pFxex7YxFaH4EcpgGDvVC1hhveJfGoOBgPrf4KKVYGk15wn9EHPL35vJzy4dy0GdVFCJS5Wlb/6dSUVqbiZSinrK6le5JQcrgnlAL+uKvM8xRS+erxecWozkLOjW9dyZSlRZScQDLQ/ZYraxuZZWZyJroBy+1oAMBdGK5lB6NMw+sDeKWpqFfFV/Hssps9F4VhfBEtR2DYhDSD1i2lSxTIJS39yw/+A6IRs5Ovs1M6iXa0B4dip81++gJ/8GRyNyYJekzWcivCENggLx/iVoM8fVE4Lh4FOwXxqQ9KUjq76XXjEolOGhrwqDVahE+OwWFlcwueei/PQHRaXItatKDkbg0DUUH+fuVH8pB4cZ4xOYadK0uiUVRTT76Lw+Bl0ldfJG4JQ/llUmIDpOX2WyfNrkHfa4l2srl0NWnl6sykDY8Etn74hE3KRnF1Xko2XKb6WVjYI4RoduInz46ZAd0p2LDu//DDX2qWvJE9l0CdG/9jB8uXwfDrfRf47UvUTdnHPTQDQtC+i6hM0oWKLEO3Hd+gGHAZZ0oPRx5XOc2HvjMDOZWdTwvhC/KQpnsu4UBekcsQoPMdNamoGtlvbiBblca8vdIbLApBbmSwb1sTRi8OfCoEfBUKvrXGNc/H+UHkhGbbAAJD7xcFO3MNq1bdSriBeiYgtH03q6Bbj767cpCqUndeiG9XBjEbYWu2TYwtZd1A5J90C3cnI4SS/XidGqnDpvSuMLiP9FZKVkeAq3o0KhU4LS4LwlpyxT6gwx4AnQ3xSONTUkY952t0QjyFvuNcK3xNezvA4mIChWvC0AKGwdk3yO8lxOF3tX56Lco0K4MoHVtK5aDHl1pL5dDVxUZisw10QiLVUOdGokC2UKqaIRobROAuUiXSy+f+xTfMWI2XsaFFybbAd3n8cfvWHb6a7y+fi4f2U6cj5V1f8AX//kIh4wjXUbaxpv46R9vYcPTkzFs0RH85TsWH1/DpycnC9DtgfBFvVBWm4Pc6QHw4TxvNbyyQpC+NRflEjgwIfCAyEbm6J7w4qJgNbySAxCzMBFJShFUUwOSSgWvgXHoV5OPkucjERqn4bx5dZAvohZmoLQmD3lTDFGhTIwWoauxul7cQMcNQAyavkjYKMCXRb+hgUjdnWeYZxW+s2xHPKJ6ecGTDZi+3gibnox+RoOSAaZ5KFopRO2+3ohawuydj9xJXkaRnnPTy3x5zDhHEpiWbIxBJIvatRoEzUxDaW0+ip41HWx5u1ma09Ugcimb9xXqH8mDW5MQiITVvA1uaxAXymzRIZHUq3RrHKIyNVCbqZfdOmxK4+nhyFwRg+gib0OfyQpDFtMV2y0hcSr1WqzNQf68EASw97RaRHKaYZkIMTKVgLS6F3pN9od3T6ZFPyRuZBDOREofMdr1QezSJKSMFvu3Cqx/xXBgl95ThcAZ6SirzUWvUXJtBs3OQFltBpLzDE6lrC82ZQN636iv28YVZ9ra9dCViMFhW4bE1LA0vBSfN97Ej582YIYISJvSyyvw9n9vAbeu4ut3j2Ge2cVY4pzuLfz0meS7xozD0vcYtW/gm99t5KGr9kf6/nz0XxEqRHIGMagHxaOkVt4pe45LRn9xELWU+pXY1bJg1AhflK3sXWuDkHEwH2WrwhTSXSzq5rcPGaczue/TBlldL36gy0P+VB+oxbRdbQ6yRrCBRw5CHlxKg48A6x0xCGaDn95ByUfJ6jD4eRnsqhJAYFpu+XdZtpvkflba2hrolhlnFsQojaUxjb6nSegGhSCLZUVkUZdQ7qAQZLJMwu0sGrMBuk3X6zZ0aGQXa9tNyX78aznImWDkaJrUVdBKdSZSS0QQS3VnxrmSltXkniqo4sOQW5UPQ2aH3dMPSVvzULYuAr4a23VnrT3ouuaxrcOh2yyHYyhAt/HWdVz97l949/RmjBGByx5tgu44jN31e/ybW4zFpnOv4fuLH+P/Thndc4wIXdN9uibQTQkz2fdqnKrqPcvXML+t9UXsSj5KYRFMv02JSJ4QCD8/ewUj8diV0l/stS1RCFDKOFiCrggLc/eszYdYL/ngJ5ZHjODkIOSvNU3/6m1WmYioQN4WYqRrEom1YOiaOAKiHe2BrqX2UWkRs5pFZKKd7dCPEjSkUGHPzdnapF5iu1toW3M6NP5Ok7/ZGoAY5G7LVkjdy+sv16Ilm8h12RSw+HUYGSgW5tX1eq3Nh1yfQnaiOhmx4cL3F8WgqMY0+m3qO+l9S+3Xct5zOHRtORzDESIxl142u//WRuhy95m4GNvPfIAvvr2C6/xqKtz86VMcny9uQ3IidLkBhaWfg5G4OEW/8ImddCRfbGStqG5jsLM0qIuDKkFXn9ayJtJ1OXSN0qs29UG3gK6FNQCcNp0PXXVWhJl1GLyDIYeuCl7DElCin9ZRI3R+Fsr2xiHMbsfa2rGArrNJ/ybOnX32I+hyUfAEzD39d/zEgCpbICVC1fA4ZMYG/Orzy7iJW/ju/T38PLEtka5fIJcCLK4IsnOBhCd8B8eiT3U+yjdE2pF+0iBqeQ7K98Uj3N9G0ViCrpDatKZe8uhCdALEwVAeUfBzW4ZFUJY6id2RriRatnR/W99zDnTTkdTLzDxfdBiyWWSllF4OC0EWSy/bHT0aolgxY6FoD6sj3dvQocXBT1icVJ2J9BE+wpwur3O57sy/plgvo2kP5Wv4e4bMZYuy8tB3sTBHLJbXnNOiDeDWMXDpZB/+eZ85foZsl/h5etQ7tJbs39Lfa3vQFVPRN77F+2zbD9sS9NYX+EFcoiyF7vyX8Lf//AvvvnIAC54WFmJNnI/n3/wKP6MRVz45ajt0u2oQu5YtmOqFXtOCEBAuLr5QBmDY0ynImBqEwBh+wZNKxRZShSCDrfyVzGfaIjSfCSko5eaJIxGeJSxOsqZDW4KuytvqeskHP8vQFbdVlGyMkyyMUbaV7dAVBv7aXOTPDOAXxlhjByuvcTR0eQckH4VLjAZzfXmENhAG/EBBW2whVdI6foEV28pjz9Y8Tl/5UbyztzOeXyCl/15Je1gNXRXs1qHS9+pfE1ZbV6YgPpvvM5pwP0TMSEBvth3NKL0u16KkHvr7ia/JnUFL/Y2/Zy5yn/Lloe/rhcAhkcjcwtrAOL3M359fUJWBlOnxKDZaTGn8XV7F0dzWurLKdDuzXWKd6NHYtq74u+1Bd0wFXvnqurjMSv/YeOMqrrKXZdBVOF5S/MStH/FBtQBiWyLdrl1hOf0kRnx8h+A7sNK8Vx7sHkC1vohfp7DtQUgNS9NfIsikc1LS59Jrra2XfKCzDF2Vyvy2ElYOaXpWLKu0TFwnMgcClQo+45MVtyOZ3MNkEFYasMS6KLWX0YBvrkximl5hTlfdLwaFLMNhlMKX2sBSG5RujTG/Hcya+mkDkLJTss1LLId0cZYt9bJBh9YPhlpEr+ThZmynsmpWdqX+JX9N+bush27PMUkK26XyUV6dh7IaZeiKixRZGeWLqkx1Jh0TpG2vXG7Tz9N1zWsTh0PX1Q1q85zumHEYsuAo3v3mKvjzK27i528/w+lNa3Hu4nU5dMdMxvwX/4x//fCzMJfLdgRdw0///RinN00XolyWerZhTrcr/yP25hdayAcA8aAD/Sb76lwUb01C0pCe0Ej2G9psd18fRM1LQZ99pvCVAkcEmfEAJv4tvZaVwZp62QZdfgtH6JQE5O/OMVkYIx10xLIal8ns4h4ONF4ImZxgOHhDwfGw3rbOhS7LcvgOi0HuDrkdpDYwtIH8MJXs2cG3sfjOMEipk+QHtXA6sBe6zP5W6tD6NlBBFWZ08My+DGRNC0TYDHZ4irx/ybVoqKfp91kPXeYohsgOnslG7+WRCCuN5BZRmuiT06GYpWh6ARVFupbaqeW/1zqgK12d3IKf6w/HsCaqoGtaxfyN6eDd8gcFKnMztJHWD0nsBCpaQNXq+z1B14WQJug2w2BGzkurH8Tc3UkwzLnnIneS0X5h0m+r0y9Bl6Db6kTt7oMwlb9tOGfidIg4VWNyqAsBt1WOTQ6Hbnp6OoYOHeoyY3Fzui4Ep9n9v1aUgSLdtjGYEjSpna3RgAjd0gNZyJ3rmDl3a76XrmlefTocus1yOIYVwLsdWDrqswTd5hU7DTZkf9IAaaC5NUDQdSGwCbrU4Zu7w9P3kwZJA82rAYIuQddlUwHU2Zu3s5P9yf6kgebXQKuAblrZOLjDf8/4Pugq7NMl8Te/+KkNqA1IA6QBV2vA4dB1dQWe7BmGHomD3OJ/1/Bc9OjRgyJLWpVJGiANkAbaqAbcHrquhjx9H3nGpAHSAGmANGCvBgi6bdTbslcw9DkabEgDpAHSgP0aIOgSdCnNRRogDZAGSAMu0oDDoWvL4Rjqgmj0ZT+qHWK/10AeF9mONEAaIA2QBtxFAw6HbpOHY/gFI21dLCJi1VBFhSP3UAIiVSp4ZoUje30UglzkbbhLA1E5aTAhDZAGSAOtRwMuh646PRRZO3JRXpmG5IGRyN4Vi5hxiSiqzkf/rXGIiGs9xqWOQm1JGiANkAZIA1INuBy63JerNQgcn4DCQ/wPcpftSUXaaF9oKMqleRXSAGmANEAaaMUaaD7ojopF3r48sF/YKN2VjMRSb3i2YkNLPR16Tp4vaYA0QBpomxpwOHT9/PwQHh5u1lPTp5erMpA2PBLZ++IRNykZxdV5KNlC6WXqiG2zI1K7U7uTBtqGBhwO3SaFExmKzDXRCItVQ50aiQLZQqpohGjbhuGbtBNF/WYdN7Id9RHSAGnAXTXgeuhKYEJbhqjjuGvHoXKTdkkDpAF7NNCs0LWnwPQZEjppgDRAGiANuKsGHA7dhIQEFBUVUWpQEtG7qzio3DSwkQZIA6QBx2rA4dBt8nAMghE5JKQB0gBpgDTQRjVA0G2jDU/eq2O9V7In2ZM0QBqwRgMEXYIuedykAdIAaYA04CINEHRdZGhrPCC6hjxl0gBpgDTQujXgcOg2dTgGCap1C4ral9qXNEAaIA2Y14DDoUvGNm9ssg3ZhjRAGiANtG0NEHQpvUxzOaQB0gBpgDTgIg0QdF1kaPJu27Z3S+1P7U8aIA0wDTgcunQ4BgmLBhfSAGmANEAaUNaAw6FLh2MoG5oESHYhDZAGSAOkAYIupZdpLoc0QBogDZAGXKQBgq6LDE0eLnm47qiBRzvdg8cfudst/rOyuqONqcxta2wg6BJ0aaAiDZjVwGMd22FsvIdb/O/csb3ZehDY2hbYWnJ7Oxy64eHhSE9PJ/HTQE4aaAUaeKJTe8xK93CL/493Iui2ZNhQ2XjHx+HQJcOSR0kaaD0aIOi2nrakftky2pKg2wqiEepMLaMztcZ2IOiStlqjrpuzTs0KXXVBNPpWJyMmxHHC9soNQ/rGXiitzUd5bS6KN8UjOtOTUp3kXJAG7NBAy4Buf3x46SaAz/GnweZT3ZRedtw42pxQau3f7XDoNjmn6xeMtHWxiIhVQxUVjtxDCYhUqeCZFY7s9VEIsmNgEBvJZ3Qiiqt6IWuiL7RaFVTeXgh6Khklh9KRmKumQVewLefscE4Jc0yM/+eh9wxfI1upETorFYV747m2Eu3d0h5ba714O6vhNzIBvfekIiHLdYMrQdd1tm5p/YnK45y2dzh0mzocQ50eiqwduSivTEPywEhk74pFzLhEFFXno//WOETE2VdRdX40+lT3QuYwrRwYak+ELchC6cpQaG8D6K1JgPbAKXplPsoFB6ml2qK11ou3txpBz2SivCYdiQRdxYVdFOnaN3a21P7cWsvlcuhyhlRrEDg+AYWH+CirbE8q0kb7QmMvFD29Efd8HoqXBiuClRuMq1MQZyfQW2vjs3rxoFKKbqUdWA13gK60nVpfvQi6lF6W9kl6Lu3v7vS8+aA7KhZ5+/K49GbprmQklnrD007oqotjUVSTieQCM0L0DkFWdS4yBssh41MejdxdOShjKdaqLGTPDIC3URk8EwIQvzgVhQdy+VRsdQ76bUpEfLFRRO0diuxaAV6BAYhfmYH+1fy8cuGqCAT5Scqm9oRvvwikb8hEieh4HOyFguURCI0Qr+NBV7YlCkF9olFwMA/lVZlIG+wFn6HxvMNSmYqE20ybW4KT5+gkhfSzNB2tAOtAP8QuS9fXq3RfOrKmBsKHpfs527pnvTwTg5C8Nkto0zyU7DR2FJ1TL759pDY3fV66NFie3WFtsDgNhUwznLaz0XddLKJSbZ9i4dLLFQ344Rbw84VnsHXXy/jvjz/jFgDcuozvPliPnbmSedba93AD/LWLpFuNhHvg4mGskL6eF4fT5z/Aj9duoJHds/E6rv3nPN569nHM1l8nzOne+CveGTcW7/79P7jOFeAmfvnPebwx+z4u8qVIV+xj9NiSIexy6OrTy1UZSBseiex98YiblIzi6jyUbLEnvaxG6LNZYHAKYIN6bBBSN/EgLd3fC/32xyNS44fkHXnIHuslRHb5KNqagRKF+cyC6dL5TCHCM7mOpVpTEJckETcH3XwULY1FrwOmA2PxoiCDUyFcazqfmo/S58PhJ4XT9lTkS+5X9nwKcjmY89/BBlx7nRUmTIdC19cfyduEgd7IZv2WhggOjQAnd6pXXKhim5bX5qFgpp9gf+fUy2boWmiDcjvWNkihe/2H/+IXjoyMjuK/W7j6wdPQA9Ym6HrhtY9/4GEr3k58lMFZgO61S/jpCltQJf/X+M0p7Mr2AEFXMh4ZBQ8tGUJtrWwOh26TC6kiQ5G5JhphsWqoUyNRIFtIFY0QfURkpYA8eyJhUz4K5/pDpfFBwib5oM/BWIAuWyAkHcRKd8QjOkcDTxZ5DopDHwazXTEI1gtWjagFqUibGAC/YCFKCPBBxIIMlLEBd7qPIcKQgnRvCpIG9OTS5Z5JYciuZJF0PCLE+3qHIG1DHGKLffgFXyoVvNKCkcaAVZ2GhHRWdwnw9yYgMtofKTt50LI6BQYHI7My3+BsiPe28dESdA2dQSiLxTldIf3J7DIvSG8vVq/kDdko12ci3Kxeai2iV+agvCYbvSb6wZtlLNRqeBeEIWsXyz4kIZpbfe/selmTXuYdUObMFa+NQngSv2rfM8wPscuzuIyOrWsbpNBlqGu8+gn+siMCCzPux+Z9v8YPLKy99me83l+Idm2C7ip8dR3At6/jxdGP8JFtvxAcPfFrXPqkUhIRi6uXuQLg29/Owfq+7bF41l5c/Jl5Af/A+2PaE3Rt7PuG/m3lWEv3N4z3t2ELh0PXlobkBvzb3TLEpY7zkDVCDS7NXJsPFlX59PRG/IZ8cKk3Behy4JICXq1B9Eop9MwLURFUInQZIPUpYgk8LQKLv06+UEYcxHORPVYLFVeHfJTX9EJaqVr/tz7Ct1MEinUxuZcV0BXKV7YhQojUDfZT941Bod5JcbN6+YeiV3U+ZJkKwT5e45K5bWls2sLgJDmrvayArlcg0vbmo3xfHMKl2mbl9QpA6m7bF8PJoHv5d/jVQOkJVffjtU9/ZtTE51sf4Rc32QTdufjiSiNw/SK+ONEXFRmSNLU+tcxeE6F7Df97rQBzJe+99uk1AN/jH7s7E3RN+q2hD9oyLtO1zrVbs0LXEY2rzo1Gn5oMJOWqETg7A+XigikBxtz2FymY2d7gWgHGMpEqD2psLi9xZTr6ifNj+rSp0XymAF2T+TXZdwiNySLrgVHotSVbmCOUpKP1q1ONQCdCV4S3CDkxra70PVa85jDoik6H3j6SOgmvFS8INMDJqB76ldEtrF68fUzrYpgayEPeZG8X1EtZn7I+ZFGDakQsYRG7baufZdCVpXx5QFb+5ivcEqDHHRdpE3Q98HzVO7gsZIwbb3yL7/72Kt5e54M5ErAaoGu6T5eg61xAyPRlxXhC1zfdHu4PXQZRbiARICWkh8XoKnOoik9j12QjrVScw7QSumbn8tggbD90fUYnKcwnCwO7flAk6HJz9HZ2dEc5E60Ouvrpi6YHBzaAOhu6HKj7ZUJ37i1c+vYKbnFzxrdw/V8vYK9+gZYY6RJ0CWrW6bYl28nh0G1yTtfOQdScEblBUQrdqgREBvREzEYhh7YAACAASURBVEo2j5iFlEJPBM/NRLmQxhYHUZOIVOODxC35+utYutBvehq3+rPfynAEinO65hYfWYwyJEIR5qD5OULhEA/OJsaRTAuErphFUGpDIbVZtqqp/dBuVi92gEutsGZAqd7615xdL1EfvPOo2B+0wchg6weU0st+gUhj6eV9cQjTl1miSzOvWYZuBt77D5vU/RoX5txtIb18P2rf/BzXGVAVomXpDyrMG/QUPrx4BY24gq+PdBX24xJ0FdvbTJvRtU3rujlt5HDoNnU4hqMrK4UuB1cxvVmTg/5sABL+FheQiNAtWxkGHwGkygtNhEGORbRz/PUnXPmXRiB9Uza3kEp2cpO10BXTxDXpSC7UcCtfPUN9EDYlHgVsC1ULjXTDFvbio/v5QfCVbn8SO77aE5HL+AVHuc+EICjC3NGbzoYT3+H4djbKRohl1T+q0WS9RGfsUCYypQvq9PcQO7jz69VzUgqn55LVcidQ36fENmDrGlaG69vAM8wf8auZZvPRb0GgTavdZdD95jSqRvALnuYNGoL/++QSt3VIXD3MwVPcGnT5fZxn237YlqDf/h3XxFXPUuhWvIiL/3wbv9+VjTV9hbnifiGo/+PXuIVbuPSq121BV9s/GgUH8lB2MB3JJRqHLILR29qk/UUd0CPZyLIG3B+63JyuME8VF4osBq7qHORN90fkQnYGcx5KNsciXFjcJEJXhLHs0WgRlOfAeOU0cHWe/dBVqRFeka13BqTfX1btGuhatIFx2lwYXDSDlWxhBDVL6XgXOBPOqpemLzvtzODASdtMPxctrjZ34ly1OiMSBQrlkGVtLLRB2e54o0V+lgcHNnjKoCvfqcP/df3v+NM8fp8sH7GOxsffcZtoZVc3Xv0e3EJjGXT5/b+yC8U/rn+Ed4aLi7bsiXQ1CF/MHEW+3Yrm+RN0yVFoERpwe+iqJIukrPGwlAbmMu5gikhuG5PsHmpPBIxNQG/xYIyqbPRdHY3I3DDDQRiikK2NdNn1Pr6IkR4gsT8T2c+EIHBCkksiXSUbiIOTyVy1WD/OFnHIFw8T4QYzI+iyM7TNLTxrodBVWVkv7oc0JIeZ6O0lQtYF0GXa9ClnC/ByhB/04IEig66kDQwHr2Qi79lQBChlKMT2NfNoDrqNN67g8lev4U3ZIRb84qp5z2zHv769KhygcQ1XvjyBE0On4FN2woYUuumPoVL3Dr778aowlwvcuv49fvzsOE4MvUOIcqWrl22b06VIt2mnSjbemdEAXeNYO7o/dNVaxD2vvKVDSSwicIwHKqVr6TXHio3s6X72lEFXBkwesNL52OZ+TodjuJ++2uKY4HDoJiQkoKioyKVhfM+JKSgzPiHKjNdG0KWO2RY7ur11JuhSf7FXO/Q5Ze04HLrNYmiNH5K25aFsTyJi2QlTDLjeXmCLnjKXR/DHQwoQJugqC6FZ2s2MY0RlaTltRNBtOW1B/aJ1tEXrgC4bvNk8qfSQd/bDBJuTkTLOT/bLQwTd1iFcGoBc044EXdfYmfTcduzceqBLUZNLU/o0SLSNQYKDrux0qJY3lyvOJdOcbtvQpLuPPQ6Hrp+fH9gBGe5uGCo/dWDSgLBliKBL4xkFNQ7TgMOh6+rDMWhgJDiSBpynAYp0nWdb0m3btC1Blzw4h3lwNIi0vkHkoQfuxKMdO7jFf1ZW0mDr02Bra1OCLkGXBirSAGmANEAacJEGCLouMnRr89aoPhRRkAZIA6QB2zXgcOg2x+EY1PC2NzzZjGxGGiANkAZcrwGHQ9eWRuT2zAo/uWf959QIfTYL5VVJiA5xvcGsLyeVjWxFGiANkAZIA3INuB66fsFIWxeLiFg1VOy3SoUD4z2zwpG9PgpBTaV7/YORWWn9WcvU4PIGJ3uQPUgDpAHSQPNpwOXQVaeHImtHLsor05A8MBLZu2IRMy4RRdX56L81DhFxlo3BnbNck4nkAsvXkajIPqQB0gBpgDTQ0jTgcOhadTiGWoPA8QkoPMT/NFnZnlSkjfaFpqkoV/hB8bINEfBr6lp6n1YjkgZIA6QB0kAL04DDoWvV4RgMuqNikcd+cL42H6W7kpFY6s3/UIEFA6mLY1FUm4teo71ISBbs1NI8OyoPRRukAdIAaYDXgMuhq08vV2UgbXgksvfFI25SMoqr81CyxUJ6We2JyGU5KN8Xh3AtCZgETBogDZAGSAPupwGXQ1cVGYrMNdEIi1VDnRqJAtlCqmiEmAMqW3RVnYe+c/wpyqUolzRAGiANkAbcUgOuh65EKNZvGVIjYGY6yqtTEZ/kfp4NeaPUZqQB0gBpgDTANOBw6Kanp2Po0KGO9UC8ApC6Ox+lK0Nlv41LIiYRkwZIA6QB0oA7acDh0HVG5TXDEtC/JhvpA9SOhbkk6nZGuemeNBiQBkgDpAHSgFQDLR+6ai1i1+ahfEd00wdnEETJKSENkAZIA6SBFqyBFg9ddWYUetfmIf+pniSkFiwkqSdHz8mzJw2QBkgDyhpo4dClc5ZJuMrCJbuQXUgDpAF31IDDoWvV4RjWRmx0zjJF99Zqha4jrZAGSANuoIEWDV06Z5k8WXf0ZKnMpFvSAGnAnAZaLnTpnGXyWt3AazXXseh1GnRJA6QBJQ20XOjSgEvQJQ2QBkgDpIFWpgGHQ9cph2O0MqMreT/0GnnFpAHSAGmg9WvA4dAl0bR+0VAbUxuTBkgDpAH7NEDQpSia0lekAdIAaYA04CINEHRdZGjyCu3zCsluZDfSAGmgNWmAoEvQJQ/XjAa6dOmCRx991G3+d+vWjdrSTFu2pkGb6uLeTghBlzopDdRmNPBoxw7I9fdwi/9ej7UDcxJoQHbvAZnar/W3H0HXzIBL4m/94m+qjRl0Z6V7uMX/aA1Bt6n2pPepT7cEDRB0CboUHZnRAEGXBumWMEhTGVqXDgm6ZgZcEnoLFHr6DuTtvIDSLXWIDHP+byu3FugGly/B3l0LUOTfAtuU+h85vS1AAwHFC7Bz1yKUBjm/jxB0W0CDE+CtE3rApLdQtvcC9z9riA0/9TigDqV7L8Cmz6hUaBnQvRcn3v8WwE1cPGk+1W0uveyV9hQ2H2vAyb0L0T9MY+cA3wNrX7gT+MjD8P8v9+KVEuvajfTdDHbyTMSIpTtRe6IeOl0D6o7tx9pJWfBWGO/UfvmYvrESx+t00OnqcaJmGxYOirFTK81QV4U62aY5DWKGLsPBkzrUHahwOngdBN3eWF52HudGK/0/hz0JqfIG9CrCjJzDODH8Le4zZ0eewdHCdRjn7yO7Li+jzuieb+H0kFPYmzkRiWqFxlVHol/iNlQOPItXRrGyvIXTg45iY9IgROmvj8eUgjNG9zWU+6W+c5EsNmLQWhxWrBN//YtZ5UJ5DfU/3W8xMsXPc4/CewM2okR83WcGdgw9D9l3ie/JHg33VbSt5J56Ww0/jLkBctvw772E1aHi65bva6iXeH0LeRQj3Q3HEB5qQ6R7O9DNnYK//wijf7dw4+d/45t3t6G62DwIHTMffBvQDS7HkoN1aDi8HuMTTIGbueE+A0SlQGXP//QQNuu12LqhG1j+GD59+058ubmrbPzRD9wJnfEvY/uY/N0BH8xpIf1EpUXxkirU6xhEJf8bjmDVUG95HT1jMWXzcfl17DN1uzAn3f76TN0yCedOTzbzvz9meRndOyUJWypHo3ZpBDz1ujO6xqmva5A4cQOONNThQEUpgpz4Xa6HrtdALO//a0XonR1ahdkBWr0o9CAxAd/baOjzjAGOzEBepVhYdBZnTa5lgJQCx7nQPTfyJJaHGOqgUrkYuqPfxOGM/vCSiKbVQFdSJ/2AaM1rDoeugcG3fnwTDQXOBK+90A1A6ZJK1DccxroxUfo+JbWb9dCVDn4CgFtRpBs5rRN+/Kg9Lm5tJdD1HoY1R3lwzsv1h0odjKLF+1Gva0DNslKZFjzjnsZunQ4NNWswOtEbat90TNpwGDrdKWybGia7Vqqdpp7bDN0+uTj68mQcX9Zc0FVBpUnEpE3HoDtViaXlQXbXvSnbOBa6kshL+YuDMKhXA86Ofhsv99+ECYHB8FJpEOA7BPP7vsIBUxopmsDCMx5lyfvw4sjzODfiCBYEioNBEMozT+KV0edxdthxPJ8wEAme7L2eCA+cgIUFlVgSIl4rQHfYIcz0E1+z4lGIepWjQAGsgw7j4IC3cSJnNAL0MLgd6ErLpXAf/XeowNvqVzjYT4ezA7dhmMSTNLGjkiMguZdy20nL4mbPHQHdWx/gbWEl8+w+/qiqqsc3V24BuIUffpPnxBXOdkI3fSZ2ntDh+NapSNEotxcPXVsjtDYIXaO+0SSkja53eX/ynYqtOh1ObZ4Mf6Es2uJlqNY1oHJRHxlMxNerK/rpX/edupWD7saJRlGxnfXiAawQ3Urv1xKgq1JB0+tp7D6pw4nt05EiLZ8Dn7sWukJa9ezgvZjkYzQQeA3DmgFvy2BqCgv2mTTMKXxNHr36zsWeYedxbmQdVkeE6sWjLHYnQnfAFszNqsdZGdAVYGl1ellqI4X7SIQg2ur55I04Okqe0hffM0kvN+kkSb/f8nPfca9x86b5EwpN7R+0Cr12XUDZ6j3w16f5feFTtANZq/6I/tw87Yco2fImsibOQU/9Nfx3Rs7/QD+Xy8/p6hAlcSpk7azNRtj4euRvfo8rT9neD1Gy/X3b54HFOV0xvSyBLp82boelpy7gJsPu51t46PatxCUAjd+9ilrpViNz98h4BLuPnMF/v/sZDN8M4Dd++gwfVyVjvv7zInSv4p+HNND95hNcuSFcfeUzfLwvnPtu+ZyuF/osOIB63QtYM8x8f3AadD17YGxFJ3z9+/ZoZGnYDzrg+1c7obqkh14bPLg64IN53dDw0h24eaEdrv6qM8ZHP4F3Xu+Axgvt8P2Rx5El0bhX/JN4peFu/PIBP7d84w/34q9bnkBhT4k2g5/Ae7/1wI0znTG1pAv+ePZO3LjgAVxoj+91j2J5gnCtcJ1snto4ZSxLsRu+wxJ0Q8Y8jO8+8sCN04+hUFJ2TqPe3XDutXbA+/fjVA67X3foXuVT+VsinsRpsW4X2uHnX3fCwd6G7xQ1HiWrUztc+819+OOyrgiTfpcmCwv269BwbCMmxaig9s3AjK3Hoavbj/n5RvfsORbrT+pQf2AR+nqroA4ZiOVV9Wg4sg5jwoyulX6HDc/NQzcMK6otpaFZetoY1p5IGZGL/UfG4QxLX780HicPFOKZvlqoxTIJAN8z1R/TNozCK6cn4XRlDvr7RGDx7tE4c3oSGramIslonOFtHI4Raw9Dd2o/ns330utVtL8jHl0K3ZConTg5+jxe7DVElv7kK6JB74yTODv6LHbFJ3GVNYUFE4EA3VENWCFEr7Fx+9Ew+jwaes9AjGh4s4/OhO5GlAY+h0MjpSleBVg6EbqrwwqwqORNnCldi36CqEztqFAms/aysuMlbEfengsoW7kTfkZi1g59iQNrwaQyfcfwHlCHfsKiKHFxlPhYvHClDLzWQ7cvohf90QjQ/MIrdm+7FlKZA2a6AbrX/7bUDuh2wMaX/oYbhky14ZkM8AJ0G3/C5e+uoNFwFf/s5sf43VAPyKGbh/n766GrXYXBwebbz1nQHbPhfvxiDDD295/vw6sD+fKI4Prv63fzYGbv/+Vu/Ou1OwzzzJIUtib6CfzpnXaG9/T3b4cfj0ngLMC08U934vJ7koVfwvXX6h5HItO6k6Cr8uuKd97ykIDVYH+fwkdx8YIH9GUQofuXu/E/hbrd+r9O2Bxl+Lx/cWf8U6FOzKH4eltX+On7sCdip2zGcV0DDu/djUMn6tFwshIrRygtjhLnf+tRtXsnDtfpUH94O57u65gol43tjoRu/OQS6F5WmCt+aRhWlwrrFgToHj44mAczN7c8ApV7RuKsfp55OFb3U14XEjJ0NV7QncK+edluAF2l+VRJ1BcffxC60fIoTOo58PD8NapS8hShq/HKwpjMI9CNOo8z5RsxSIh2eKgYPie9p+lzS3O65sumsia9zEWOKZjZ95wkxasAOGdCN1SFpIRDeHnUy1gfGahoR/08s1J7yea/DR3e1I7G78UiehGLKF9HfIKnRKzC63t+hRhxm48Y+e75P2SOGA2tlok/GL4le5Gz5UOU7f0dUgqUvUwewMqRrgj3/qtrEJESxy/I0Mag58iX7F+9rABdLr186Ay+/YVx7yq+qn3QDug+jN9/xcLiL/DBAm8+ss3ohk3b9+Ef/34Hb5hEuuy7buLal0dxZMiDmF3eH+9/zQpwE/9peFAO3cQp2HJch2MbJ1h0Qi3N6V479oSkDaVtbTm97NO7M/75vgdu/e5BnBjenYvANAHd8dzWB3BZAhweunwEyoDRf4uwqOvCnbiwoDsWVN0NfCSmvoXvvNAeFw88geECiFIGdsG7b3QAPrgHbwwRyiiF6V/uxl+EKDBl+KP46n0P4L2O2CmNjFUqiA6A2TldPcz472jq+uHb70XjR+3xz/XyYzlH7roXuHAn3p0m2lOIdJlDcOFOfLHrCQwIVIFF9G+e6wB81B6fLBGyA97doHulPXfdx2u7IptNrXn2QJ/JnfHF79sBf+qIgxJAeyZNwiY2r6trwIkdzyDX7HYxNfx6L8ZBbsFVA6pWjkCit1g+xzyah67k/takl8OTsbNuMs6dLMeiMj8EMee+Z08UzyjGiZcm48zuDMSy14R7nTs9CUeXRSJ4an8BtuOxb4Y/chYM5v7eM1U6TknKkjwd29nUzOZJiDdq+6bHQcl9zHzWsZGu0iAugS4PR/NgEyNWcd6Uv96wslhcwXt22FEsDTOkzZq6r9xQzoauCuHRu3Fq9BnsiIuDHnDSVK6Toavynogtgw2RP28f6WIywRFQai+7oauCZ8kxFO+9AFmKWQBsybzF0Agi1A4/zUFQGvmKbSSCs8/UUfqoWHyPPZqHbi7iln+IMincRdE7Yk7XOMLk/r6Ja59tw3oRkDallzvirc9/ARqv4Ls/LsVWs4uxxPRyI375XPJd6R5Y8MqnjNr46Q9D5NAtXIJqnQ6Vi/L0NpfaUHzuDOj23nAfGmVgEQYhz+741VkP4I+dsF4POg/cfOsRzO+pgliWX04/hjKV+LcAXQGkN17h3xPLzx6jZz2Eyx+1x1ebBMCJ0L1wJz6Y113iOAiAk0TP4n2agqh4nfjY1PWa5Mfw+fseuPFaZ4wVNejdDa//2gM333wEM8XXxEhXcDTE+7NH/js8cPUI7/xoUjvjXxc88FPtE5KIlrdtX+awXLgDf57B/+2ZPBVbj+vQcLIaVS/Uc2nlBVzkqkbwjO3Q6eqwfiy7Vg3/smWoqteh/kgVathnjqzH+Bj2nhZly2uhqz+ABcYpaX35+e+TllvpuaOg23NSCV49PR47Jhg75J6YuW0Szr1UguksEBOhe7QPRrJ1O5NKOMieOZiNfLbWR/jbLHR9+2N5tQ66QxXobWNdlepv/JpjoSsFi0JhUxJrcLrJSPc17EvMlERocuieGbgbTyluLTJ8zriS8r+dm17mtgVpBmF1+dvgF4W5PtJVqfxQyuaWhe1DZqHbRHvJ7WZFB9PORfo2eYqZh+h7yJCsBuT3255HUi/jzqOCKmYLclmaeuFKG6E7CSkbP0TZuoMI4hbRScrraOg2XsMv3/4Vn9QNRIUIXPZoE3Q9MGfaNlzkFmMxdl7D5a9/gwu1RvdMF6Fruk+3KegeWJAlgY7EHkLfdHx6WYhI9alf0/Qu3n8AJzJEqBhWDPNlMf5bgK4VW3Z+PPQkX1cRuibzsa6DrkrVAzuO3wFIAB847GH8zyT6NV8mlVBnMeMgQtj8HHR7fLGmO1SecZi9s14/n6stXsJBlYepN4atOQpdQw2Wlaqg8h6ElYfF+VwxJa1D3f4F6OsTh6d366A7tQ1Tb3Nu11HQLaoYJkkPK6SYTw/G0gy1Hrr6ldACZI3/NgtdVS4WVrYS6EbF7kX96LdxPGug4pxu38xTODf6VWyN5bc4yGDBVi6nVOHUqPN4pWwjhmgNgwgP8/Ooz5+KSAXYy+HhAuiqhBQvt32okN/DLAWcsyNdZgNucRk/t9yb2++sEOlKy9Sk3Qz2lttT/nrQtHckKWYhtbypFiESEFoD3dIFy2yE7kJksMVazoKubJ7VzBYhG6HLLcjK6IEDVXX4x7+/gbA+CreuvI/z48TvsB+6h5YVw9dCuxJ0ee02Fbka692a6+PmdsSVj9rh0m62DakHny43SgHrF1JJ4Kz/Ljuhqw6ege06HerWjxUcLk8kT92K4+y1ygMcgHUn12OctwrasuWo1dXjwIJ8/lq1P8qWsf29Dag9cJD7TP2BBci3oCF9eS1c43bQ1fRGRVUrga4qYCmqRp7H2UE7MFICTa7hvCdg46C3cW7ofkwRVjbLoMs1qpgafh2VKQV6cGuC1+IwOwxj+BEsCJLukZUDgReIa6DLp3jZ9qFFWMUODpECzhXQVUViTN4r3Nzy3Cx2yIhroKtK34uCPUKKWUgtG6eRfcacNZte9h5+mlt0JUtRSzq0+fTyYCSu+RBlO04gXLZFJgWR8//ghNXLIhQlj4rQbYfF28/iR7Ziqglwz+4TjFf+dBE30YifP5jFzxPbE+kKc7ontk7lFw1J7CcdJB0PXRW4ecsP78b5kUp9z/CaMbgsRroRj+Ov73rgl1NdLNaHq5vdka4H9NGyGXuJtjMuu/i67DHgSfzuN0I6WXhumho2H+nmrH4ANz5qh//t4yN4tgjrG8nfsu+SlNercAkOse1CGycaTp9SB2DYGrb3lp/jPbZmBPeez5TNHGBl24g8U/D0bnaKFbu2HnueSbeYLTFXDunrtkD39IYE/bguvQd7HjmrDGdPj8bGocoLoPTXG88P2xrpxk3CpmPuMqcrBYtECHpjqPhFRudGv42GohUY4i/s0/WfiBXF7GAL+R5XU+iqoAlciqoR5yHbdqTOwpzCc9yBG2eGHsPq2L6IbI59urL6CyneoSfxwuDmgK4KfmFs+9AZvFD6iuugq+qL+BUfcquY/QfWof/eN5CQYnQakrjSec/bSC0rkyykqkL+zgso2/M64o0/I+jJPHRVCJv9LtgWod7TpnP31MTPReIyw2pmx65elsBWTDGLi64av8E/2LYfbkvQm/iBW3BlBN3cyfj4n3/FJ6cmYcsQYSFWRjdsrvktrrLlUZ+ttx+6KmH18gtrMEx/CpkBeGJ/dAZ09Vtm3n4IdZO7IdFo0ZL43cbgsghdz+449jK/iOjL/Y9jTqJh65F4P/2jHdDlgeaBxj88iLqBPUzmTPX3FjXY1GEawnXcgio2t7z3IfwoXeylHxtF6N6D30zhF52pvLpj6vJO+IatUpZ+RgA3W+H94fNP6heTGZdNJWwB0jUcwYYpadw+XXVQL4xbLZxQ1XACm6fwq5g1WQuwnzt9aj8WlYbCW6WGT2QJ5u4UTqhqqERFv9tfxWwVdMPTcYCtSj41AEuKfdBTbyOJbjN7ofblyThzpAQLh4Ug0oy2xDld43Sy8d/m0svutXpZBh2JsSQGZNA8OPxtxROpjNPGStBVqcQDNt5ATXqx3ivS+M7C9sHK95VHeWK0LJ8rFhdpyY5mtPUYSKP6a7jtQ8L3SN8TIl3xO+WP0oVmlhY8yUGuaCs1v32Iv79CpKu4kOo8xIVsJh1a0o6W3uPncc8hZ+n7KF2yHt5GW4hUKl8ETn5D2J9r2NLDbxl6HwVTxkmOgqtA5m7jayR/S9PJ6btQYHLtu8ibU4/eexy9ZUgBuun34/RffzJdcnXre/zMSCqNdEVAm14NNP6Ef1YJILYn0lXZsk9XYd6VzclK50RFkJmbq5Ve69kdG164y7ANyOgz8jlK4zlc47/F1csqmN0uw+4vTc+KZZWWidOtCDiFM6MDnsQ7bylsRzK5Bz+mGTsM5vqCuPjp1oft5Iuq9P1IKJORjbh5W5NtQCqkzOyEH9ieY6Xr9WUVtwBJjn/kolY+cq2vZydV7Qe3sMrcEZDs+vp67hhJw8Iq5fHcXN150CrNuyrtvWX3DsKi/RMVjo2U7tP1RP8lQyXbgIzuvy2V58FtRbqtbJ+u2EDevuPxXNFL0I1gkHwbrwx7GQezZ6O3UcpZESRMsCK0JKlodm+Ndylm5RzGi8N+zR8HOeoNvOTKs5elYOU6lgTw0vfE8itCz4HQVakgrgiXOx6WYX670FWJW4L2foisIcFm0lPBCBh6GLnrxUMs3kfxah0SigskwGWd0QboqlTwLqlC7kb+MIz+m15D2rAB8BRS3k6PdNM9MLtoMN794n+4yW2ovYHr3/4Zv1/mhVc/viyHbnp7LH/+ML669J1+Lhc3r+LqN7/H75c9LkS5DOx2zOky7QknUp3cORsZsnS7YfDko8umBnEr9rTqB3zh3l7dUbG5I775vw64aQQIe6HL+ndUyeN45/TduPq+ESBvF7oqFfx78/cWD97gwGZcLwGW1kJXJUboJguoxDZQgO6F9riqdOCF8N0Z4zvjr2/cqT8gRA9gaVnVwSicuRGVx+v4NHH9CdTsXoVZxbH6+V0RpmrfNIzW/zCCDg11x7B/0yKMzgoR5neFhVU2biOyHboqqGJjsWTrELzUIIWpFLrMblr0nd4X1S+MxSv6PbfC9Q6AriZtOra96BYnUokiokfRsaBH99dCy/iVIaWI2vQ1+eEYzPbBGLicpRSPYsOEBItbh0irTtKqT1e8/mvTPbQGe1uIvgXIGq51UhnpeyRBQQzGrT+Chrr9WNjPX/K6Y23voC1Dji0UCY3s2RI04N7QZREqf6Sf7ugGTFD4laGWYOPWWobQtCfwxpkO3CEZF7dLT4uS9m2Cbstpf7f7lSGpkOh5yxEStcXttIXbQ1elAvsB+4N1Opw8sASDo4wWtFGU4/Boxjhlf/1sZzxlbsGPeDiGND1ObeLwNml61BjWDgAAGixJREFUDNAgrGwR9p1swNFNU5Bi7lx3B7UNRboOMmTTDUsAdDcbtQboMpsHl1dg945nUWT2KEDSpqO0KUL35nt34t9HumCs/pfQlGxMka6j7H679wkoXojde5z/A/asnARdgm4zeJZKA1DLe621QPd2ByT6fMvTJrWJ+7YJQZegS9A1owGCrvsObAQlaruWqgGCrpkBt6U2GJXLdYMJQdd1tiZdk63bigYIugRdinTNaODhB++A75Pt3OL/Iw+0Q5cuXagtzbRlWxnQqZ4t33kh6FInpYHajAa6deuGrl27us3/Hj0sHI9opo40SLf8QZraqHW1EUGXBiOCLmmANEAaIA24SAMEXRcZmrzV1uWtUntSe5IGSAP2aICgS9AlD5c0QBogDZAGXKQBJ0BXg6iBC7Ct+jjqGnTQHd+CKYnkEdnjEdFnSDekAdIAaaB1acDh0PXtuwD76iQ/K0XQJQ/SRR4kDU6ta3Ci9qT2bI0acDh0s+bvR4PuFKrXTEBGoBcBh4BDGiANkAZIA6QBQQMOh26vBQegO7kLszPIS2uNXhrViXRNGiANkAbs14BzoEspZfLqyLMnDZAGSAOkARMNOBi6GuQvqqTFUyQ0E6GRZ2y/Z0y2I9uRBlqPBhwIXQ0CUkZhRWUddEfWYVR46zESCZ7akjRAGiANkAYcoQGHQDd63Hoc1fErluuPH8SaiWnwomiPoj3SAGmANEAaIA3INEDQJUHIBOEIT47uQREBaYA0QBpQ1oBDoMsbV4vo4lnYfLgBDTUrMNBf+QupIcgupAHSAGmANNBWNeBA6DIR+aJ4WTUtpKLomaJn0gBpgDRAGlDQgIOhqwK3T5e2DJHYFMTWVj1bqjdFdaQB0oCoAYIuwYEcBNIAaYA0QBpwkQYIui4ytOjl0CN5vKQB0gBpoO1qwDnQPbUf83PbrlGpQ1HbkwZIA6QB0oCSBhwO3bTZu1Gna8CxbXNRFteTUhYUSZMGSAOkAdIAaUDQgMOhq0mZhq3H6af9lDwceo08X9IAaYA00LY14HDoqlQahPWbjQ0Hj9CP2JN3S94taYA0QBogDUg04ATotm0vhrxYan/SAGmANEAaMKcBgq7EAzFnJHqdOhBpgDRAGiANOEIDBF2CLqV+SAOkAdIAacBFGiDousjQjvCQ6B7kaZMGSAOkAffWAEGXoEseLmmANEAaIA24SAMEXRcZmrxT9/ZOqf2o/UgDpAFHaMDh0I2Li0NxcTF5TTbCPHL0WlRum4kMLQnbEcKme9igI21XvD65PRoX3Ym/5XZ3m74bNmwF9u94Gnk+NtTVxn7pCh1Fjl6D/ZtnIL3Jvq9FwTM7sW/5IASr3bvOrrBrS/0Oh0M3JycHM2bMcJuOa1fDxD6C/y32wPcDnoS2qU6c8yBuVXjg8wLznUSbPw97Tjbgxe2zkeOvbt22a8peLfx9rV9XnBh+Ly4/2w6o8OD/z3sAh4PNt69dGnOlHaIewSWhLtfGdkE/4+8O7IKP53oAMx/GHOP3TP7uijenCXYR7WPV52yzn7bXLOx4sQEnds1D3yBPN+4zWqRP2YjDDTq8uG1mE+CNRHnFXpxsqEf1cwTeFt+vTPoGr/E2Dd3hxfeikRsY7sD76TZ0ekdCN3I01tbWo756BQaHyIHbN/dB/FzhgcYZD2Oep6R82ifx2xn8wPbdgK4tYsCZWHqPAULiYGv86ITB196OZ7m8d+GdOIm9xc7j2Q2/mtTetJ4idEU4Seu9uD2uzb4PHxQ9gXKNwj3FezfnoxjpLrwLH2QrRLpivaxqPxdAN2wYVlTXo6F2NUZEGgM3AIsPTMa502b+H+2NQUa2DijMxJ7akdgzI7CZ+pIWBfP24GTDi9g2M70JRz4So9e+gIb6ajw3KBhqo7rY2x/oc67rm20Yut1w7ikP3Jp0H75e7IErQ59AT2sF7DDohmDU2sNcB1o+wM+kw3NgWNwOtxbdjXfiDaIITXwY3y4m6N7OQGEPdEOTHsb3FR64MaMTDkT0MNWLCCcpdCXPr03ojLFS58lavTX3dWK9rIKuQacqlQBgmz8nvYfx8yAMWVGD+oZarBoWYtJnVCrboRs+qginTo/HgVnNBV0VVNoCzN93CrqTOzE7Q6tQL4kdIsdh3ZEG6GpWYnCw3FG/nT5Bn5XY2Il9zuHQzcjIwPjx4y2LxokVslo4EY/iP4vb4fOC7qgb3w54uhNWWzsgOgq6fRaisl6HI8+PQpjCHA0Hhjn348sZ7fHf/l2FQb4HFg64G79Mux//nuuBlhLpyu3eHZWj7gDECLAltLeFMvAANhPdSj6Xl/MgrlZ0wGd5CtEgu04BTtqe3TEv92F8NY85SXfgb0qRpOQ75HZ0zSDQ5Hcq1KvJz3B1cgJ0c+Zib50OxzZOQGyT/VUAsEJ0Ky1/i4CuSgXtwOdQ26DDkTXD4d+EJlJmbMeJhnrsfiYVXk1cK60rPW/+PuVw6LpLo/Kp5ftwOlCFsn73obHiTvwpValBemBqwUO4OKsDbghRy41n23PztCZzuppu2FzyIP77DP8+Ktrh+rN8OtJ0TleLwSsOo0FXhSWFPopOCgeDmQ/jSOk9uDH1UUxinYtLLd+Bv/V5jJtn+2nIE4gQO51nd8wp6ISvZgvfL6Q2/1zQFXHiNX6P48OnPYBnOmKXn3F9eaA3GsGBn8e8B1cW8tH1jbl34/Oyxy2kS62Dblr8Y/hw6h24waL2xe1xdcYDeDuzGwLEsgqREptnXJDTET8s9MCteffhjcTumFN0P64s8sCtpx/EkTC+Hnp4xnfH2tL78YMw73rj6fvwTnp308hU+B7955RSyvqyqGAPdMX+MK7fvbhZYeQkWdNe4vdrumNT/wdw6Zn2/JTIovb4aeLD2B7aw0Q7rL2ODr5PX//GhXfg0ojOWOAvb2++Pnyb8vPTZhwKAbrXxj2GCTFd8O7Eu3B9kQewqAMujXgMs80uZLICuqxeZYa2uvXsnfhq6GMmZeXtqEX/JdWo19VgRVmASb1FWxseLUA3LB5bjplJQYupaWNYe3qjz1N9UHN8As6enoyzurE4vjMPkzM0+rLwAB+F54eGYdGuMTjz8kSc2pqGrJh4rK0ch7MvT8CRFbEIF9tV9piCWTvroDu5GVPCm4hgtYOx8nADdFVLUNhT3q6G+qsQMmIVaurqcWyrNQu1zN9Hek96fnt2aqPQ7YZXJrcDpj6KkSzCtBC5rhx4FzdY6hfNSNKFcuh2w4lxd5jO9wnXm0J3AJa/0ABd5WIUeCs1YnfsHXkHt3hlXswjuLTwXrwWrQKXWn6mI/YHdsVvZnjAsPClBxaU3qt3DOTlbY9LA54UwNsd24bfyUVdF7KMIjZxrnhuR+wPEMrU80m8+ZTCPGaFB66O6YLBitFG09CNSngE/1kgHfCF54vvwGcF3QRA8oP2ten34jvJtZcn3YfvhPQ6q+e3A57krufh2QHfzrhDmKuX3H/hPTifaAooNoBYgi7/nuQ+kvYXbazPNliICHnotsM3JeIcvLXtxdqhOw6MVKhThbT9hfZi87NTlNtLX05hoLcVujdm3otLXMQutwfTgcniK+47moCuZ3ccGqVcrxvTHsZyE5j3Q8WheugOLUOJkQOhDAJHQtcLhfMH4rQIZMnj2ZNlmNuLn1vmoTsOLxwczoGZm1uuH4qDB8ca5plPlWFumlKfVyF++nbU6U5i08QgPciV66bCgOeY034Qi/K9zV47Yu0J6HTsV9+Yc08/tWrOlq58vW1CN7QzN4/7Tf9uQmrmSfxutgcw62E8K4VI4sP4YbEHbs29H68mdUc0N5D0QG56J27Ql0I3reABDng3pnXC/ujuCGTXarqjpO8DyquXs/k02QurBptJJQngYvNhHAzb46vCbniq9B5cHvU4ciRRIBvwxHnexvn34rdZ3RDD6qHpjoV9OuJbBqxn78cpISIUr7084nGkCQMwE534+g+Dxei5B54pvQc3K9rjf0O6YKIfD62osCdwflIHNC6+C++mKIGsCehqu+LNqe2AhXfjvZyuSGMLjDx7YHDGI1watnFWJ6ziHBFh0GbzqGwQjuyCT4VB/9rYxzAs+lFcXGgAjwGQ7fH9qM5YFtSDs8H2QfdwbSPLCkjq7UzocunlvE64xNpg0T34dSw/2Iq2tqa9xLT1jcmPYqHQBmLa+tOhRsATViJfHv44yoQIyN+vGzb364hP9cA3HfAtRvGiM8EW9Un0lRbfGZ+xrMmC+/BShOk9m5rTFaF/dfyjeC6UnyP3D3wSdSPuxo2K9vhnn25ymKTPws6TOhxZOxKhkvYzP2BagK7k89akl3vm9cKhhsl49YVCzCzwga9KBU9/f4xYWI6Glyfj1PPxCFKpwN9rMs69PA77Z4cgd+FgHrYvjcCG4QEYtnokzp0ehefLleylgqpfBarqdahZUc59h/m6qRAyaRNO6nTYMVNpbpu/vz7S3fkMeluIiC19D71npq0kGrLFRm0Sunw6+S78NsFgzOcG3YnGCvlrm4d1AJTSziaRsRA5L7ofukDDPbmGMLdlaMRavKjTYdfsaDMrECXQVfFp35/HPow/TxPnBYUokNvi0QMVg+4yM2copowlqUPPrjgzpZ1Rilm4TgIGlSf/HTenPooZUmeEzT8xG1R44H9lYuQmrbdl6GpZ5L64nWSe2vDZGWV3A4vvxnkOTgJ0F9+F99J6GOZMWdQfY5hDFaN9Hp7t8L+BTxjS6axjCNBonPEIZip0FEvQlXYmi2CSfI8YAcseF7fHN+VitsHG9vJ5Au/PEYAnS78b7KYvZ3hnfL3QAzdmdURDgvmUuv56wR4W6yZCd94DOC44buLnmRPYWNEBnyru7xXaT3EhlaARaVZFbJsg3rn6eUwX9BFfY48DVuCIToe981LhKX3d7HNHQVeNrPmDcPalYVhVYrRa2jMISw9Oxtkj+Rgoge4r+3uhr5cKafMHcdBt2JKMBJX4twXohkzCppM66HbMRIjZegntbgOgxfaiR4U+05SdHfy+w6EbERGB3NxcuYfq4ELfnnAEQBovnMp4CNcqPHCptKsQ/XbHSbbAquIBHDXe6mEC3SfxxzkKkTKrdxPQ3TEzzIytuuHk+Pb6vZFcZLSoHW6x1DKX+uUHNB4kliGXmP4QfjKaT+TTnXdAn2IWUssywIqDrUJKVQSKcbTMt43l8ogRjngP00exXEaDtlgecRAX/pZDV+Jc6HVndB/963wHdCZ0Gxd2wA+THsKv0qVz1Zbto9ReJdkP8RmLCjavfTe+HPoo9sUqQbUH5vS7Hz8L6fcbT9+Ljwc8hlUKc7/SfmQVdEW7S+xn8XMWVy8LbWJBW0yL3DoG8fsE6O55OsFMnzEeUB0F3Z4Yt360IT0sSS3rtyadLMHUaDHSNayE5qFr/LcF6KpGYO0JK6GbMw97T1kXFUvbmp4b68S1fzscui3+cAwhtWw60AvzVNMewSRuJXFX/Jrb5G8NdB/HX9kiI+P0NBssmoDu3nlpZlYf8oMSW7xSxu6jfRJ/mGVIpcpTd9YN4rKoNLgLPp/vARGafLrTKKUnQs7CwCh+Xt6RLZen1UNXAU622EeErqy9WHahZzesL+yEL6YLi88q2uHyaOV5df/Arqgq7YiLkkV1hkjbdJCxCE9RBwr1svg5J0H3wKI8eIsgtvjohtDVjsE6a6GbPx/7CbpWOmCmmpf3Sde93+agy6eW5QtB5AC+B68L81OVo1ika/hbbKS5ZWyeU3oiVVe8PZ3Nm3bEXllUzC8UYfc3WUglzOkeWzeKn/81GTwE6CqdEMRdK43eemDDUH5xlOmWlB5YNugusBXJ+qiW+7wARm4Vs5BaNk71CaC/MakzRpiUz5JILUOX3+/Kz1GLNlV+lNbRkCbWn4xkZaSrjeLnfs3Vw+GRrgKc5PWzp73k9mZzn69P4qc/3ktVmlc3XB8V2QUXZrWzMPfaxMpss9AVF+XdCeUyGLWfTENCJmdOJ6xRXEhoKL/edsKc7vGNExApu5fCtdz7tkB3Io5WhJsZwDUoXDoU5xoGoyLP3HfxrxvPD9sc6doAUu2YdTjRxJyu3nZW2cty3ehejrFPG4OuOPf6AI4qdPS0Pvdzi57EBVYioNminbE9VfD364rjIw2rmaULqfj533b4dtATyPJSITL8cZyfZFjNbAJdlbB6mS35N1mlyRq3Keh2w6/YCuxZD2OBpwppmQ/hMlvoMvcBnEmRLKTq+yB+WuSBxqc7Yo+4IlnogPxn7sCFXk9yR/dd4RZoSYUlDKqLO+Dfg7pggbDYpenOZxm6KmHbEluU84e8J/ULfkzvazRoGw/+ZqD7ZZGwOEulQl7iY7gwg63mNYriJYOQ66FrY3tFdcZn4x5GbVI3ftEZF/V2x/oBzPmTz6fmZXfC34d3xrbo7vxiOhWv2xNj7pDMlUvbmH9uMWIV7T67EzYH8gue2EKuisIHcHmxBwwL34zva9R+EpuztuanONrj+9GPYltUd8lWMeP7iH8Lq5drVqDMSMum2mGfsQ66Pfvk4ejpyThzpAgzc7wVT4QKHtwHJ05PxunKPphVFogQL7FM8sfbha6jVy9rixdi/4kG1B/bi0UD6QQrZZ3I29DZ17Qt6Po9hi/Z3s6xjyl7ymLqWdxK5Pc4/srOnJWlV9vhp+Ed8c9F0kiX33Z0ie1dlF3bAReHP8idHmUK3Sb26RoBxVQIRmCzsP0Ci+7EJ/niNhyJwIR5XG4LziLllcjakC74G1uhKquX+Le5AyWMymY02LK6lOR25AZsxfvqI0WjQVsc/MX3jWzEw1Msm/zReHuTpWtRoVwvi2BidTQun0K99e1oS3tJzkY2tpexM8WXUV538TM3pjyKp/QL4oQ2UmxX9nmJDcR6KV278B68kyyJtC2UlZVDnH/n7GBhOxoUDyGxZp+uAFqleVf2mvHeW9ZGQTF4vnaS6Zyt9FpPX0xYP8qwDcjo/qdWRnNR8u1B1/H7dDOe3oM6bsuQDvXbpjW9OMuSZuk9M5kQyZhqhY0cDl39oGLFl7v6WjGS/aqou5nVj0KauII/NIOVz59ti5jegYuAbz17Nz4vfQL91F3wiTF0VSrkZz2Mi3P4PZJsAcuHvbsiRFh0ZQpdFVTCiVQvbpqICOMTqYyAYmorBbApHaAw6SGcNLuKVVzZrHC+s6T9/IOfwBtj7pEf8s8NwJKBWXI921dqzYlUxemP4rNpd/IHLUgHdBGqxnOC4uAvvm9kI1OQtsP1p5UP8jC9Vgoq5Xo5FLrMXta2l3iIBjugRVwgNe8u5UMkxHs+LTmgRdEGNkBX2w07+nfExVl34GfhgBRxgdiLcRLgsjrZAl0WsQsHeXw/Tzj0Q68DpQVxbI0Ev9XuxNZpSNA7ENJBzw7oqlTwy07C2t0jcPolyYEZUuiyunn5YdizxXjh6DiccQJ0tcUV/Al1VpxIFTlpk3UnUoWMwOraBn6vrjUromX9WGpXem46BttnkzYFXUcZzXH3icTYdUfQoKvFysEhZrYO2dewjiuj+3w/D1IzgzUNJg7x0ptfV2EYsaoG9brDWDsy0ozz7D6aNdgzB8/sOYmGF7diWrKX5bYSQFpfvRxlvpbqqkVIxnAs238KOl099i/It3IBmqV70nuGNrPPFgTd5h6MI8fyh5fXrjT5laHbbdy29nmCrn2DgNvpJGwEVtXUQ3d4LUaa/MqQO9rACb8yJGwn4k+j0uFU1TIMoh9HsOzMuIgFBF0XGdrSwMZ+wL62XocXd89DYVATZ662gPJaqktzvkfQdUfg2Fdm9gP21fU6nNi7EKVhRgdWuFUf0SJ+3Fq8YNVv5Pqh8FkrfwKQg+4pvFi7H+vmDUE6/U53iwAuGx8dDt2WfziGfZ3c2TCJHL0a+7fMRIa2ZZbP2fV3xP0Jum1LO2HDnsPebU8jT3H1v/vYgjndlU3+gD2rD4uId+MA/YB9iwGoPeOWw6Hb4g/HcCsv2H0GDnvER5+h9iUNkAbamgYIugRht/Ya21qHpfoSpEgD7q0Bgi5Bl6BLGiANkAZIAy7SAEHXRYYm79S9vVNqP2o/0gBpwBEacDh0HVEougeJmzRAGiANkAZaowYIuhTpUlqJNEAaIA2QBlykAYKuiwzdGj02qhNFIqQB0gBpwDYNEHQJuuThkgZIA6QB0oCLNOAg6EZj3Pqj0OkaUHe8BjsrhiHOzE9fkVdkm1dE9iJ7kQZIA6SB1qMBB0NXx/+aha4OBxaVwN9FngMJsvUIktqS2pI0QBpozRpwEHQFkWgCkDJqBSrrdGioWoQ+BF1K2ZAGSAOkAdIAaUCvAcdClzNsIqZtOwFd9RIUkqH1hm7NnhvVjSIT0gBpgDRgnQacAF1hfpegS8Alp4s0QBogDZAGZBpwHnRrlqGEFlPJjE2eoHWeINmJ7EQaIA20Vg04AbrBGLyqFrqGY9g2twxxPUk8rVU8VC/SNmmANEAasE0DToCuCpqEMVix/xjqdfxq5uNbpiCRUgwU9ZIGSAOkAdJAG9eAc6AbNQQVewi65AHa5gGSvchepAHSQGvXgBOg64t+S6rQ0HAMW2bkIpDmdcmzbeOebWsfRKh+BErSgPUacAJ0hdXLtJCKYEuwJQ2QBkgDpAGZBpwHXdoyJDM0eYLWe4JkK7IVaYA00Fo1QNAlL4ycA9IAaYA0QBpwkQYIui4ydGv12qheFJGQBkgDpAHrNeAE6KZh9u46OgaSYE6eM2mANEAaIA0YacCx0NVGo3jWZhxu0OHU/vnINfoy8oas94bIVmQr0gBpgDTQ+jTgIOiKv6cr/rTfCeyc3QteBF3y8kgDpAHSAGmANKDXgIOh24C6Y1XYPK8MkbQ/V29k8lZbn7dKbUptShogDdijAQdBl4xvj/HpM6Qb0gBpgDTQtjRA0KW0B0XkpAHSAGmANOAiDRB0XWRo8mbbljdL7U3tTRogDShp4P8BXcaLF+kjq3oAAAAASUVORK5CYII=;" parent="pOiSYCZk9DxUySAxYVqE-1" vertex="1">
                    <mxGeometry x="330" y="220" width="477" height="251" as="geometry"/>
                </mxCell>
            </root>
        </mxGraphModel>
    </diagram>
    <diagram id="aIUz1MxtgsjlRokBSKJu" name="散列数组">
        <mxGraphModel dx="937" dy="776" grid="1" gridSize="10" guides="1" tooltips="1" connect="1" arrows="1" fold="1" page="1" pageScale="1" pageWidth="827" pageHeight="1169" math="0" shadow="0">
            <root>
                <mxCell id="PRGtmp1JzX0yJuuBO5fG-0"/>
                <mxCell id="PRGtmp1JzX0yJuuBO5fG-1" parent="PRGtmp1JzX0yJuuBO5fG-0"/>
                <mxCell id="PRGtmp1JzX0yJuuBO5fG-7" value="" style="shape=image;verticalLabelPosition=bottom;labelBackgroundColor=#ffffff;verticalAlign=top;aspect=fixed;imageAspect=0;image=data:image/png,iVBORw0KGgoAAAANSUhEUgAABCkAAAGECAYAAAAbTHrwAAAgAElEQVR4Aey9D7BtV13nGR2nu+dPOXZpI+hwES7hPQI3xEeABwl5eS8v5OZBCOHPSwjztKPQmA4MPsJ/JIohtPyLBJOChCAS855gHCH0daJdMLbDjDg4tlbrRKd1qmzKqrHKcXqmp53SsbvW1Pq392/93euce865++zzeVWvzr7nrL3Wb/1+n/Xve9Ze54KtrS015v/Hjh1T586da7bx6K33qEceukOdGnm9xuxzbBt3myA+xAcGYAAGYAAGYAAGYGBeBnZ2LlGr/H/s2EvUwf5/u/rC//S/qj/+4z9Rv/fYh9XLDtyeg/bH+Mu/YF64V3XfwkWKU3eoh/b21B5CRrPws6pYUw6DLQzAAAzAAAzAAAzAAAwsl4FVChS6rIMVKMa/IMc/aYwmJ1JsGRHiIXXHqULjRqRAnGCXDQzAAAzAAAzAAAzAAAxsKAOIFOmiGKFgXD6ZnkhhOptT6o6H9tTeI/eoW48WxIoN7ZRQpuEBBmAABmAABmAABmAABjaXAUSKcS3IEUjSeExPpBjaSYE4gWoOAzAAAzAAAzAAAzAAAzCwoQwgUqSLYoSCcflkciIFB2durirMNwLEHgZgAAZgAAZgAAZgAAbqDKxapKC81R5UOgV/b55I4c+k4FEQ1PMNVc8ZuOsDN/7BPzAAAzAAAzAAA1NmYAqLWOowbeFj80SKLXdexd4j6p5bj7JQZ6EOAzAAAzAAAzAAAzAAAzCwMQywwJ/2An8K8d1AkWJLnbrjIbWHSLExHfGUlXDqxjc9MAADMAADMAADMAADszAwhUUsdZi20DIxkcLuknjknlvV0ZIafPRWdc8je2rvoTvUqVIa3kfAgAEYgAEYgAEYgAEYgAEYmCADLPCnvcCfQnwnIlIcVbfe84ja26uLD3YHxZ6qihgT7IhmUVZJixIPAzAAAzAAAzAAAzAAA9NlYAqLWOowbaFlIiLFdDsRBghiCwMwAAMwAAMwAAMwAAMwsCgGWOBPe4E/hfgiUrBzgm18MAADMAADMAADMAADMAADG8LAFBax1GHaQgsixYZ0RotSXskHFR8GYAAGYAAGYAAGYAAG1pcBFvjTXuBPIb5rI1IcO3ZMyf8XX3wxai8CCwzAAAzAAAzAAAzAAAzAAAzMwMAUFrHUYdpCy9qIFOfOnVPy/y233EJnNENnhNq9vmo3sSN2MAADMAADMAADMAADi2JgUxf4d931QfW5zz0013997zL99vGP32Psetvb3r7UcpZZh0XmPXqRYlGNkXzo2GEABmAABmAABmAABmAABjadgUUuJvebl16Ua+HgmmtOLX1x/sY33qre854fm+u/vne/da3df+7cefVbv/Vb6kd/9K1LLadmw5g+Q6RgNwI7UmAABmAABmAABmAABmAABjaEgbEsRq+44rj68pf/qVmcv+td71np4vylL71OXX/9DUGZ+r0rr7wqeE/76vLLr1D6s2X67e67f9r4YaFiyOl3qnvuv1/d3/3/gHrji9fjMRFEig3pjDZdMab+fGsCAzAAAzAAAzAAAzAAA1tLXWzPspB/wxveaBbmegfBZz/7cyuz69prX6q+8pWvmv/62tusd3S8970/1v3t33/rW99mdnv4vxfxqoWPX/mVX1FanNHXP/7j7ze+uOmmm40g8tGPfmwfPrlGvfHO+9T998eixE3qHffE741QtLj6VoVIgUiBag4DMAADMAADMAADMAADMLAhDCxikb2IPPQ5D1qg0It1/brs3Qre5n/4D39IPfbYY+r8+V9Q8gyIkkhx++2LFynOnr29E2h+8zd/s/OB31mi/aH/53Z2+HqUXk+/4xPq/rvfqU4/f4QCxE6DTYgUqMmoyTAAAzAAAzAAAzAAAzAAA5vDQGlxu+r3tVDwla98RWnRQC/I3/e+O5JdDMuw6VOful+9//13Ki0UPPLIL3VllkSKt73tHQvfSaHP4HjTm96stFDzmc/8bCdY/MZv/IbS9mlfaL/oXRYz+eDqW9Wd992t3nH6hfX7suncDow7b1UvdmKCFzxe/6YPqPv0YyPmM70j43519zv+kXqT2bFxv7rzjcdcefaz7hGTSCzx+Z3+r+SjKL29V7/RlsNOig1RTBl4NmfgIdbEGgZgAAZgAAZgAAZgoMTATIvelm++50hzww2vNgtz/VjDkSOXKr0417sIYtuuvvoac9ClPrPhQx/6iHrd684kaeJ7an9feukL1Ne+9j+YXRsvfOHlSu9iuOqqq02eWqTQ/+Xhmnonw9vf/s6FixTSRr+jRNulxRr9GIz8fJZru8hveKRjFpHifi1I3KSe38XZCxG9uGBsNHlKwcKJHkKoMCJFJ3boXRVpmh12UtB5lTov3ocNGIABGIABGIABGIABGJgeA7MsepeVVosTekF+442vNQvye+75hBEMXvnKVwcLdC0a6N0O+ic6f/mXf9ncs5/DJbUAoMUAL0T82q/9M3MuhK5nLFJo+1796tPqHe9Ynkjhz6LQu0r0QZ5aNNH/T5++KfBDaxyMSCFEgeJ9M4kUsejhRAqx40KXYwSI6L0dc3hnL2Z0OynkoyhRGkQKdlHw7CEMwAAMwAAMwAAMwAAMwMAGMVBcuHbflDecG7CPtFdeeULt7e2phx9+WF1yyXPNYvwf/+M3GQHiPe95b7A497sctM1+x8UDD3w6SDNLffQBnV/60qOdIKEFEL+DQ4sU8uBML1K8853v3tdOCn3WhhY75P8XvOBF3WMucveE31Whd5bM/KjHziVqKSJFInr4xz3k7gp/WKf8NRF/jUhBB7tBHSzK/vSUfWJKTGEABmAABmAABmBguQzMsqhfRlr/qIfePaAf49D/f+Zn7jUihRcMfLn6cQ99foQWNPSuB72g12KC/3yW1/jxDn2vfPyjJFLoX+CYt0xdhr5X2y3/a8HiOc85Yg7ulL9sosWLz3/+C3PvpIh3LhT9M8tOihlEivCxkFTsYicFi3UEGxiAARiAARiAARiAARiAARgIGCguXPexO2KWPD/2sbuDBbtcvH/9619Xr3rVa4wIoQUKvaNA/wqHPmRSPw6hhY15BYNbb70tOCjT2+wPqiyJCXp3x7xl6jJK+fryF/uafxQjKSM5P0KcDyEe2ciKCju5nRTucY9E0AiFimx+PO6xXFUS1Rf/wgAMwAAMwAAMwAAMwAAMjJmBZMG6InHCl+t/1UM+/qCv9c+BasHC/8qHFhX03/ozfa/eZfDrv/7rcwsGWvTQ/70d/lUfjqkfySg9lqEfu9jPz6OuVqS4ROkzHe687/7Mz5BqccGfL5EeWOl/WcP+gocVF7KiQkGksLs4okM2tS0/kf5aSPDzqLFIsXOT4tc9UFYDZXXMHSq2MeDDAAzAAAzAAAzAAAzAwP4Y8Ivzg3jVh15q4eHHf/wnErHgqqteon71V3+tEyFuuulmk1Y//qAPmNSvemfFvLsadNn+wMxZX/dzWOfKRQonOhmBQf+SRvffCxRud4MXM9zn3U+KzrmTwvAU5Xl/tLMiK3okIsUliBR0cvvr5PAf/oMBGIABGIABGIABGICB9WFAihN6Abu7eyoRDGSaRV7r3RF60a7Ppcjlq3dR6M+vuOK4+Vz/GsdnPvOz5swK/biHPrtCHy6Zu3foPX2fznue//OWqW3KlbufnRlD9ZzC5+ykYCcFOylgAAZgAAZgAAZgAAZgAAY2hAG5iNUChT48Ur7HdXiOAv5YvT8QKTakM0LdXh91m1gRKxiAARiAARiAARiAgWUxwKJ79YtufD6bzxEpEClQzWEABmAABmAABmAABmAABjaEAblgljsp9I4KdlXMtpiWvuR6cb5DpNiQzmhZSiz5ovLDAAzAAAzAAAzAAAzAwPowIBfT8kwKLVis8nwKaQfXi1vgT8GXiBSIFKjmMAADMAADMAADMAADMAADG8KAXMSykwJxQPIwlmtEig3pjFC310fdJlbECgZgAAZgAAZgAAZgYFkMjGUhih0IJCUGECkQKVDNYQAGYAAGYAAGYAAGYAAGNoQBuTAs7aTQZ1Pw6AcigmRlldeIFBvSGS1LiSVfVH4YgAEYgAEYgAEYgAEYWB8G5GKzdCaFFij0ZzIt14gWq2IAkQKRAtUcBmAABmAABmAABmAABmBgQxhY1UKTchA15mUAkWJDOiPU7fVRt4kVsYIBGIABGIABGIABGFgWA/MuHLkP0WFVDCBSIFKgmsMADMAADMAADMAADMAADGwIA6taaFIOosa8DExWpLjwBy9Tr/zMZeq5l8Yq7LZ67gdOqJM/uF3piA+py+89oS4/Gd+7wL9PXqquO39K3ej+X3f7odSeljRT6EwvvVid/MxLBmIyj+91HHsf33jvpeqiKfiLOqRtZeE+mQI7uq97iXrlBy5WFy7cP7Y9XnT7CdOHZfuvwTKtjxdrXxS380vuxwfrOE+/5e+J6rKB/df++PJ+1K+RL5fGhS/nYLkz85+l1VH6tfF6U+YySX9g+2A/z7sxOyf1PhwHO7N9a69tbmfdtOcN7Mdm86nnYfmvx469RPEfH4yZgYmKFLazDybOeiF8nxUtLrr9Crsg1gOn7DC7v/XAcoURKfRgf92ck3w7UTil6ovjjK3JQNeSZvkdmu5olzLILE2k6H2yFLuTOPXl7WtQWoE/9mXfsuo90nzXip3AhwcvUpTFYt1WbL+2OJHCLQhknx74Y0Ht8wDyXCsGzYK0feFS64tMvc+fUsFYPrP/V8mFZfrGpQsE9TnB6ESKLmZ1u2ssHMRni2x39b6w7w/3x86K/DvPXJl5zQq+XJltjBvz4hTbEE80A9MUKXQHmlGs7YTnhDp512Xq5F36G8D423s3mfnMFTbNx16i5h8wbF7X/djz1MnP1CZsLYNKS5rZOqd5B/xFDtqdDSsYvJZidzfxWrDvV+CPzvfLqsOE8l0rdgK/2z5ocSLA7JzXJ+a2X1uYfRNuN2vF4AJFioX0U5Pkoj4nQKSYva/KsbbIdlfvCxdjrxd+9yfqtdgy+1zZ1H+CAnKOm3V5DyEAIWDsDExQpBiamDdMjM2kZp/f3pg8tDjRZk99UKlPSFbZIS5y0O7sXsEkcil2BwvCloG9Mc0K/NH5fll1mFC+a8VO4PehvqeRxyDP2e6pT8wb+uJZyp5wu1krBhEpVvCNaX1OgEgxWz9VGg8X2e7qfeFi7F2dSOHsNX1uy1y5zmvJ/7y/KC7y+Yx9gYp9iCjTEylMp5nfuWAGnPMvUdfdp3dKVHZS6DQfu0yd3MdOCqka1wenls67lsYp2uJ8i+w3k24w6Z6NTHaRuEc5svmkZZTzidPGu1V0Zxmn0edG5NLlO9Z+4LJ+6W3Jx12nr042Yt8Eu3B0GS9RJ2/7fnXyM85OeS3PNjGT8/IZGN6GS/R5KZ2fhc3x/V2a9JEhOwkVZc25vdi2iT6fmB1v80WBj4TNbhEZ51MX3UpxjeMpJz+OmSA2Oh97T2h3nE9sr/1c2xj4sfAtT+eD3II58Iv2Y1hW1/ZfLc+gCVn3+Re58OXGfGTsDerj+Al9U/K9fd/cn8nXt1mfV1hOWJ+uvUl+xXXPho/d96ujH9C71hyH2fLLdsfsdfmcPyXO42iN+RA7PXN9OWHM+/6pbLNJE7OTsN3f7xnJnqlT48KUcUJdfovnL7oW5y6FMZW+03bY9qfjf4k7h8TUX9gc39/7J86rr1fJV2FeKV++3V93+7PMuStdWYKdNi60LXHMZb8zbKutQzSmCb90dTRxOqEuf7U+g6nvc/v20FBWzIxvM/pVlGn9J2Oty8v4scaO73caXsN41eLdt8POLyL/Wj7ms3svVZd6/qJr2Tbi2Ic+9jaU2IliKX2c86GwP1cn/56xX8TIv+/bVsdwNk2eU98fbzVy0ZfZwFq1Xt5HjXNlzVmxXvu1hfvnjSsiACLA2BmYnEhRnMzpTnxlZ1LYDrwbGM0AkpkgmEHAD5iZgzO7QaKUxg0UYmLmB6tu8NJ5uIlI8F6Xt+3g9QB6rTy8093T1cGlL/rXfJ6xx+Qj655JU/VPaQCyPpF1shOc/IKhaLcb3GU9TdpuQLXl2MWns91MVA6FhxI21NPkqyc8XbwyvtB+HPKHKStfz1kGq5aYdzZ3i+/U5tBf3v5ZJ/ppPD23XWwSH3u2pS/SfFIufExFLDIceF+a+nUxkzweUpd/TB7O63zTsbMlRJDexthfnY+7+1IfW1/U21FaT5uPbCO+TsVX7ePOjqiu92ZiOsCqsSmbn867j0MX44H8inYPtpu+rK79JTFvZ0f6NPW79FvhOinbCakFXxUZTNpExI4rxy5gvQ80i/ba+z2tQ+wLl29G+JG+MPFZUP9k8iry4OsimMz4tJ5Hz2BQB2O/yNeNfVX2RJoi8y5fKWSmfi/wIvK3doTxi22z+YbCRcLQEDtJmXnb0jrE7Mj7ynYP5ePrZGLlfan7ZXNd7l/9nMizXu530pgnPmv0SRwP/bexv9C+ffpymta+vOxfX8ZCXrXPzZio7Ro6v63VdskJ1wuJ0z54pXwYHAMDExMpWjpo3WEu+dc9zGSpHzT9oBhMhLrOo8XmQppkkmEbVTjQ2QGim5h35Q41wHyZ1UE7mixYwKMBKpemOBEt2xjW0afL26ztKNmdfT+wx+ZpYyfrUrr2tqQLaFNWNEkZLl/k52NnfJhOqPbfoaT+M/Z1AoW1JfB94Kve1my9vP2ZV5NnVE4aN+lzW1ZcTmBbV05cL/t32CbSvL0/4zL8+7nXuPxsvSKfmfwjLqwo4fuQgm1BW4rrqP1TuK/zSx+vri4yz8BOnb8USdy9QZo0v9gfXTnGBmtz2C/m6pHmG+bTYovNtxbzvK2hPS1psrZFPs8yVfFlNn0pvkkMfV8h61K67n0d1tWyVPNfV29ZflTvLk3r+0WfWPub2Cnm4UVE3876uuf93X9eq0foN3GP8UvUhub2lYyfKMP51dgQ9aehXYW+YWZ78naEZUn78un9HKkXEuw9Mp+gTtJOeV2IdRjPdnbC+2Q9Zr+WdSnxU07j2l88TiTtqOTf2e0t2Ri+r8tL20+QphCTIE1Sj2XZS774HQbWiYFJiRTlDn61UObsMINddoBpGVQKaeTgLDp5U343QSlMRkR6A6wZSPotqH7rYTxpqA7axp40D52Xn0zmfDO4cyC21X8rEWzD7MuNbdb1K9lt3s/m4yeT1vctIoX3WfjaD+A5BrJ2tQzqka9zdR7siBpinrM5yLeQh/FBdvdBvi1mufBxE+0mYDvjJ/t5z4KMRe8jGdO8PbKO2Rg5Js1nMT8lez3HzmfenqyPTXw9g26CGpdj/nZ8ZXwxl0gh8tG+vO6+E/bXjcz7Pcudf0T67j1fT99OhT/CNLk4FPo6kWeYh4hf1ZZcWeJeb2vWx36R7xe1Q3yF+ebszXJjyvYxD/PIM9jKhbdf+ja9lm2lu+5i58oK2nRhbCmMSzk/DL5XjGkunrJOwn/FPMrfbmfbZAuDnqPOb8KOoE279+f2VaGuzsagn5TvdXY1sNNUX2tHx4tsP11Zwgdu95Tv+/r4D+cT1En6TV6bWOfbZy+w2bL8nMTakPdnvt3J+rRfG/uzPunzqKeJYpbNK1+P3s99Wat6b5E+XJXNlLN6TvA5Ps8xMCGRojBhahpoFwlHNJDIQTv7PGPLoFJIIwdnUc9woGvxi81/34N2wZ4AvFyayiQyuLdYx+H4lQbK0vt9udI30pel67ItpqxoYpEtf1Z/GJ/6hUi5/L5OOo2sl78n5Sxnc5DPrLaKGMp8Qma9PTlxqbcxd0/uPVmOvc7VvS8zTp+NkV+MdGKgvT8u3/wdpYlFuayPg3YiWSvZ2fult7/lvjg/nY9eKOvHma6wz8/rx+T0mRoRu6acgfjH/uht0+Xm4pCrR2xj4e+qLbmywnzqttq0LWnCOoZl+M9KTPnP49d8+ob4Gp/4vkH6tnSdt9cLXv1CT6crlB+wW8qv8f1iTHPxlHUS+RfzGBApAkFG5Ffow3zMiowYv0Qi1Ny+KtTV2WZsiPqd0K5C7Abq5uvYv9bt6NN5/5XSl97393mB0Aml0m/yuhLr3hZb1r7nOzP6KvR/X6/erjKPMo29tvGT55DY94f9mOaVt2Ux6cZmzzLrSt6LYQY/4seegemIFHKgmnHwWCgQxUEyNzDqQLR04qU09v1g4mjK95NSG2g7YQnfC+uc2mYmxZnfp89Nfvq8MvbEsYjtc39nD/WK75V/u/vCiUYPdm+TfS8/yfePZLT6Rk7s5LWfQEUTUGlvZleAtjFvVxqPuD7h3zZ9+u1U2R+eO+m/XMzNe7nFaVe30mSpVnbms1w8TZtOfWoYvPeouvwDL1FJnXP5dLb6cmfzbz5GPuZid4FnWfgrbS/OX2IBlPo4tc/mk/qi5yDO1/0tdjH1ab0fcq/2PvPTyR+7VOnD6C66/Qp18m1H3TPI0T2mzhW7CjG0tqT19FwmcU1iGNmhP6/akisryqOFnZY0LbYav9T6ndC2OoMV/zt7rT+tD9Jr1w9Fi9qQl5gvbZ99T/Yh5p6gzLAeYZ4Nn5m8cvXLxVPWT+RdzMMz0+/0M/ZVmRX5FuJs2qroA7o65/I174k+pJBnl0f3eS4evW1pv5MugIf7lD6/tPz+M8NmlZ0+ba19D+UT1En6TV47JtPFe2pDyG2enaDMzvcyr/Zrk1eOC5FvSxofi3zaOhfBvfoLtAF7fPp5X/M2tvts3nK5Dx/DwDQYmIxIUZrErRrUWqdsbHSDgh2QM9sS48VLsBPDpRdp/KAvt1tmJ/hmIJflhRM/Y7co65UfsCfup3m5QbBLG+aTsycRIAJb9ARNTxDifBoamJsMy7rLQ8n8wYvh59oH0aQwsMf5qBu85WRYTsrltbU19qEpV8RKxt9zWeQ2tknkkysnnHA1+K7bCdAzkYt5zmZve/8aM2HzTNkZsCuJZ4EJn66LUZSv/7xjNI65jGl0r58wxv7v8pLs2Hx6vtxp+sKulljl+oKc73J5BQKlEzy9PToPnfesbFh7hO+dL/p88vHW5fZper/G9evrlouDfa9P0+fT81Z4z8Rd2O1jaV5zZWXyGWSnX9h6P9tXyUUm38AW93mOMcFOa/9V5cLVx/pT+lZeW3viOIXxdDEX/VBRpMj2LRerC3M+yL7XwlcunmmdDDNVLnLxLDFUiWuWG93viLxMvMXfuu7mvTnY0ffGZQp2LBNhvuY9kUb7pspONjZ5H9TZ8SJYP9Z0bSfgKZ/O9ylBnaTf5LWxOc9P36fMwI4XPbr+P4rfkI/iGOXyaUkT9e3VPifOL4p5EPfMZ4P97FCdu89tHHz8FpdvnkHyxy8wMD0GpiFSmE55xsGj60inF1QaKjGFgXEwEEysC32OmeAvdbI4Dl/AJHGAARiAgQ1hIBGPNqTehXEe7ok/DMzOwCREitw3BMAwOwz4DJ/BwGIZQKRYrD/hE3/CAAzAwPgZMOJ7tFOGuI0/bsSIGI2JgUmIFGNyKLbQwGEABjwDiBSw4FngFRZgAAZgAAZgAAZgoI0BRAq2ZikaS1tjwU/4CQZgAAZgAAZgAAZgAAZgAAaWywAiBSIFIgUMwAAMwAAMwAAMwAAMwAAMwAAMjIIBRApAHAWIqJHLVSPxL/6FARiAARiAARiAARiAARhYBwYQKRApEClgAAZgAAZgAAZgAAZgAAZgAAZgYBQMIFIA4ihAXAdFDxtRnmEABmAABmAABmAABmAABmBguQwgUiBSIFLAAAzAAAzAAAzAAAzAAAzAAAzAwCgYQKQAxFGAiBq5XDUS/+JfGIABGIABGIABGIABGICBdWAAkWIZIsWRn1RX3fu4Ov2g/X/De39SXbiMcshzvQSWZ/0D9ad/eIFS7v/ffvG718t+eCNeMAADMAADMAADMAADMAADS2ZgQiLFzeqyjzyuXnbbzSOC5rh67nt/R+1LpLjyQfWyB7+mLrty+arfhW/4qjp9zzl18ZKhWwf1blYbD/+jv6/+byFA1IWIJ6v/5r+9QK2LSPH9H/7Plfr9b1efyXDx4z//dzrRxde5ey3cM6tvSb/8to+P8TEMwAAMwAAMwAAMwMBYGECkyCy8FheccYoUz3zLfWrvS3er10d1R6SYv2OyIsW3qj96X0se0xEpZFvRgsV/+O+/U7054kqmWf71xeoHP/x59YUP3jQisbKFCdIsnw18jI9hAAZgAAZgAAZgYB0YQKRY6oJqbCLF09Wr7zyn9va+rD773muTRRwixfydFiLFlhqHSLGltl70TvXpvT31xU+9VR1favuen5d1GBywkfjCAAzAAAzAAAzAAAwcBAPrL1JE5z/4cyDM672PquceEWDFaeXn5rOvqctu1o9X6LMkomv3uMVFt31Nnf7Ig+o5r31U3eDOnDBps49j1EWKC4M8Hjf5XuQWVclnXVmPJ4+PGJvE5/lHXp6p3nLfntrb+5K6+/XCJ1uXqkve/o3u/IzAfw/+nrrmluuMmGEEjAe/oa54aebeT/6qev4Lt9TWpfeqa3WaV71dXXlPfybHK976pkgQuVodvav//HScb2s+F4XlhPnoMn5PXfPGjzpbomtXL9PoTHnCnjkeeVmkSGEerxCPjsjHQkw5v//t6hf0Ixg6TXQtH8mo5bN14ZPUb3/9W9T/8cCTzKMn/hENuROi/CiHvu97opiWRQqTz+N/T/3GayU7djdJ9xiJOa/jW9UfvV/bVTm3w9jdf66SfF0ZF/+g+vDn99TeFz6obkKoSGJ1EIMNZUr+uYYHGIABGIABGIABGCgxsP4iRbcAGTiTwgkUcgFvFvdeqPAChvnb5mXFhzDfThDw921ZIUILF15g6J1dESmufFDtygM1XfnJ+RUDZ1IEddC+yNRz6+mvVnee21N7X/6seu+15cZQ3UnhBIFAcDDv9UKGFSn0Yr9/72k3/KK6PhAhrEDxqvffrQ652CVpOtGgF0WSNFtXq6M/4cQRk1LqHW0AACAASURBVI8TW7xgoj83QojOwwsx2q4zRpTpyjdl9fZuedFmRqHCihRi8WxEhvxifmur/LiHERbkwtstyr1Q4csxYoI/iFOf/eAX+e5xk6F8rEih7RU2mjzE3y4+Jq+G8yWKOyly+Ub2bpm/Q3sS4SfyhW5nST2dzbYNvki989N7au+Ln1JvPV7mvm+vpMEXMAADMAADMAADMAADMHDQDGyMSGEW87GQYBb0v6Oueu3xaHEvhQl5vaUSUUAviopCQkWkCBZTuiEU0hbz9oKEs1/kF9T1mW9R9+3tZc+giOGrihRbWyr+3AgHcjGfLPh1vaxY4MUNc08nJPgOIExjxQ4pHIhdGsFODn+/fQ3zlmKIFSmsMFG6FnmZevQCSeyn3N/JglrEI01fECm63Q3hLgUpEgTlyIW+vG7Ix4sUXvwwNrbcV6lXUaTYSndZ6DrJXRtWpIgFktBP0g+dTws2d59v2TMq9va+qD711uPsKKjEr/eZaAukhxkYgAEYgAEYgAEYgIEVM7BZIoV4JKJ/rGFRIkUqFhSFBxNkv1tDPGbwYPooR1kA8SJFeH9XLynILGInhbY52DkRCQv684pI4Xcu2B0ReZu9kJHNJyMc2EdQorw6AaRdpOh8FvBxUCJFvBvD/e12MrSLFPV8Vi1SWBHCHSyaExaMyJIXKbyYYUQK8RiMf0Ql2A0SdKDspEB4QHCBARiAARiAARiAARhYNwY2S6SQC/dgMdMv+O3jIHL3hLxe1E6K3CMii9tJkYewdCZF32jjnRJpPmIXghYNOkHA5VERKbwAEe526MsOysrlE4kUVuwIhYQw73aRwgsogQ0xHwN/B+LBQNri4x65xXuUV1CO3D0hrxvyWblIIR5xMXWIHx+piBR+t0d2J0Xkny6GnEmB4l9ig/dhAwZgAAZgAAZgAAZGzcCERIrcwl8sgs1jE48reSZFt6DRkAZnOUhhQl7nRAr7eXKWhAG/IDxkzrHwB2Um+QR2ifqI/E9352PEn8d/13/dI7fwD3yky3QCwnUf/YbywkOXJiMuGOFDihnubIuqMJDJx5bbixKJrS7f011ZLSLFlrL5RI+WGN/Gvqv/HYgHg/eHjzF0/nOPRRQPg9zaUkE5UpiQ1w35zCJSBGVW6lZ73EPX0eTz+N9V/8Yc2Bk+0pJ73MOIEvJ8DlPHC5QXLaTfgmt+3WPUg04QqwpPpKv3OfgH/8AADMAADMAADEyVgQmJFL3Q0G3fjxfvTqjoPtfb+32aQAyQwoS8diJF8FhAKnx4wSEoR5alJ+axLR95UF1629eSX+7Q4MX5hUKGE2cGbJIAP/Mt9xXOqPAHTPpHKHKLd5emEwNE52DEBX+ve5VnVvgFiRcUApt7AcILIf6XRYztJm+RpjsY05f3DXXFzXJ3R5tIofO2QoXPp2K3tz/zahfy6SMWckFdfFwh2lVgfg0jeqzB5xMIBlKYkNfOvlo+s4gU2kdhXvFjGZaBIZHC7yDpftFD+tEJEP0jHPaXS+SvlRgOcumkkOHOoPjCB29ioS79yzU8wAAMwAAMwAAMwAAMrAkD0xIpVuD07MGZKyjXLNBGUY545CO2J7cDIk7D3xvcOZZ3kOR2UoyHeSHEwe8G8wsHtEkYgAEYgAEYgAEYWAUDiBQzLjo2XaRIHt+Q/kOkYAEneYiuzW6MaNdI18mZHRL5HRpdmig/3meQhAEYgAEYgAEYgAEYgIHpMYBIMePCZzNFCvEYSO4xD+9DRApECs9C92p3T5jHOEoChU6LSAE7HTPTG2iZPBFTGIABGIABGIABGGhnAJGCiTGLIxiAARiAARiAARiAARiAARiAARgYBQOIFIA4ChBRFtuVRXyFr2AABmAABmAABmAABmAABqbKACIFIgUiBQzAAAzAAAzAAAzAAAzAAAzAAAyMggFEihGC+L3f+73qSd/5H6nv+27+4wMYgIHxMPC93/lt6olPfOIoBq+pfnNAvfhWDAZgAAZgAAZgYNMZQKQYoUjxPd/zPeoFT71A3X6c//gABmBgPAxc/cxvUU94whMQKUY4bmz6ZIb6M6GHARiAARiAgekwgEgxwskmIsV4FmUskIkFDPQMIFJMZ/BnIkcsYQAGYAAGYAAGxsoAIgUiBTs22LECAzDQxAAiBZOZsU5msAs2YQAGYAAGYGA6DCBS5ESKKx9UL3vwcXX6Iw+qi3KfL/k9dlL039xO6lvsd35B/Z9/q7p/f/2v7lIfZHHctDgeNQc+rn/1L9RXbh4Buw/8lvprTdlfPKrunYOvT//6n6p/X6gLIsV0Bn8mcsQSBmAABmAABmBgrAwgUuQEhzGIFB9yC41uSSsv/q36s4ef1i3uzKJCfqzCz0e9wKstovziT/2Z+oP/egSLvyZbg0AUFoq76vf+/G/UuogUtUWrZ2vv8f8nqPj/9T9e3vHp0wy9xnnYDA8u9saeloW+57SwsB+qt/nc5FFrt+9U//r/VarJr4gUnJmRG9d4Dy5gAAZgAAZgAAbWhIFRiRR33nmnOnfuXNP/W265ZbKQJTspzKIjv1izC7v8Z02Lo9rC+4A/M4vjv/i6+pM//5u2xdlB2usWqk2LyONTEilsXZRcoLtFcpsvevGpWRRYUZxXas8iRYp9+qcmSrGTgm9cxvqNC3bBJgzAAAzAAAxMh4HRiRRHjx5Vhw4dqv7XaRAp9OLOfru6Lt/Izyaa2MWvXujWFk2z5dkviBd+36aKFAUBbZ6YrVQUaFjIr9QeRIrJis5MmKYzYSKWxBIGYAAGYAAGVsPA6ESKZzzjGYOTVZ1GihQXvvZRdcODX1OXXdk7zbx376PquUfse93f17vzJvSZEw/+jrrqtcf78o78pLrqXv2+/X/De39SXZjZEmPL69OdFuVocC+67WvmPIvnGLt8utC+GuDtOynct9jVxyH8NvF3mEcMuj35mW3sZlHWJVDJ4wjdos0tyPPb8b1NIqOkrDhNZpu7KcPtEMku4Hy9nIjhiwvKaklzgbo9qI/OSO5MsXkkz/e7ezqByP3dtnvA1r+7N14w++36uTrpz/7qX6jf/a0/Vf9efx5dyzMRjFDg81BxPHsb/rl8VEPsiIh5EFl1O1tMGnFPJ/6YOvRxbWGnSxP7o/u7t/mD0kdJ+S5mncEynl6oGk4zbE+UR8CeLyfHl3hsQ9ajs9ddBPnZsqp8RRynfPX+K8Vcxy8RmDob/0z95uv4CdJa381n/RiML/AFDMAADMAADMDAvAxslkihxQchKBgxQfzdO/G4eu57f0flRIpUELFpk3yDgzddmsaDONtFin43hV3W9IvCbrHodlvoz7tFS2ZBrRcmfynPEXALE7koMos2U5Bf9NlFj1zADy/s0ntuN2WFtpuFUrdI6xdX/UGTYoHo0yX1akzzl/LAQ2efWPjaxb6vs118Jgu5aIHolpm9z7uFtr4/Vx+3qE18EfnLLxh1nX2Z2tYP60M5ex+mNltfdAw4GwIuCjtzkrqKuhTjbWzr7VkoO9roLj5xveK/3aI7Izz1vsiluUAV6ybq79tZOa21R7Yjf0/wGvkr+MyU15iPSVviy7Ek+4JMzGW8bdz6OPK4B5ONfpzEF/gCBmAABmAABmBgOQxsmEgR7mbodle43RY9ZCWR4mZ12UceT8ULswOj35WREz/87oqWXwuZTaRwi1shRuR2AsgFmV4AlRdVYX5ycWUXLPXFei5NsOAyi+wwj3TRbhdTSdndwlTbaBdtUiBJ82lJ4+vbv8pFmrU9XiCm9vndGNLmoN7Bwra+iIxjZUUc5zMpYsiFrbx2voltCevlFqxe4KksbsP7ej9VOQrscbwFQkH6jb1lx8s77jWIubM5eC9kOW9rGL+WNNW6BbG0/ii3pxyDoQ8NJ5G/UnbCOqSfyzzrfNXbjBdscv6/QCFSLGcg7sce8scXMAADMAADMAADMDBakeLEiRPq+uuvT/5raOd+3GPgkZC+QdRFipfddnP/iIh+HMQ9JuLfPxiRwi9S4kWR/Tte+JpFlVzsmUVStEBUYlu6FzbkPZnFWre467KKBAm/E6D7vL/obMwt2OTi3JSbr1e4eGtJ4xfQvR3mKqpnsLDNCS3Of7EwENrjYzSwiIxMsX/OLlJks+nqtUCRosvT1+8CFQgrjeyUF/o+35zN/jP7auKUrXjPckuajuNAxAnLkrGt2+7apLcrl2eO+aB92TwWwldQfsqiZ/1P/jf9iy39LgpdX0QKJg39OIkv8AUMwAAMwAAMwMByGBitSPHoo4+qb37zm8l/DcI4RYqD3knRL6BCASK/UA8XVbk06aIozLcvTy7W4mtzj/wGPbfADxZj0Te5fmHnXjshI7NNPS7b77bo70lttgvWUEjxizR5voPdKWEXbLpOSZ4LFCmSvKV/pFgjF7byurCTIvRPbsGfLlj1PVl/eJsK8YxZif8ObbFxMWmCBXQcr5zNYZqqrc7mljTavmF7+rLb09p2Fe5m8OdWhIJA6KO0PYaf97akO4r8Zzn/pTGX/jH1Eu0XkWI5AzETHPwKAzAAAzAAAzAAAz0DoxUpakGKRYqtK/VhmL1I0B1sKc6bSM+S2FKzP+7hDsUMdmSk500c6E4Kt1juF7oZAUIudM3CLU1jFyf9t8/doi33rblfsOZek0VsYZHW3ZsumvxizNjUlZ/a7NP1r8NpzIJMLML8Yxv9mQd+gecWrX/1l+qv/jYUNUx5CxEpvEBTWazK2ElhQl77BbasV+dfX5+2BaupmyyzlE8XF7+LIqxDGDtvQ/hq0uxTpPDx6/kPy5CxqqbxPqza0+c9bPtQ2iFW7eer3ElhRTrHiWMJkaIfPGtjFJ/hJxiAARiAARiAARiYn4FpiBT+FzXcr3KYQyz1r3jMKFJ04obPx7+KfDRsRoTwn+nX6EDMlYkUbmEcbTbofnnBLtbt4iZMky6y7WK9T/XX/+oX1ON//jdBXsMLTb+g6fOJt4uXbXKL2mixbdO7BV6wWB5a1Ol72tP0Fv+Z+oM9+wsawU4KvTh3/s4ubguxkN+Yxz7uypQLfL9zofvQXfjFsvSB9JW8dkKCiVeUT2/7DCKFX7CLvMLFchz3UKDQMRxmp2XnQs7mfvHfsZKNRcR8Q5qc/wKeTSyEU7pLUVaunCjend1xfj7mJp65diwPEPUCV2dEf9GVl/Offa/nIrdzxpf9b9Uf37+tnvCEJ4SPu2V+AYlBef5BGd/hOxiAARiAARiAgU1nYDIixZQCmRycmXx7nVmYFdO0LNRnyW+D02aEgG6BWfT/BvsLn6ip8cFOCiZNUxprqQs8wwAMwAAMwMA4GRidSHH06FF16NCh6n+d5pZbbpnst3mIFGNc2CP2TG3BTX1mb2eIFOMcyJlgERcYgAEYgAEYgIEpMTA6keLcuXOq5T8iResCg8X1vhajYru+3BK/rzzZYTC5HQabwgMiBROgKU2AqAs8wwAMwAAMwMA4GRiVSAEkFpLF7qRoFTNItykLTeoJ6/MygEgxzoGcsZO4wAAMwAAMwAAMTImB0YsUx44dMzsrpuT0obogUrCInHcRyX2ws0wGECmYAA2NX3wOIzAAAzAAAzAAA/tlAJFihCfTI1Kw0FzmQpO84WteBhApmHTsd9LB/TAEAzAAAzAAAzAwxAAixUhFiid+x7eoS5/Kf3wAAzAwHga2vutb+QnSEY4ZQwM9nzMZhAEYgAEYgAEYWCcGEClGOuHUuyn4jw9gAAbGxsCTn/zkyf6y0joN3tjKZBMGYAAGYAAGYGCqDCBSjFSkmCpw1IvOFAZgAAZgAAZgAAZgAAZgAAZgoMQAIgUiBd+KwgAMwAAMwAAMwAAMwAAMwAAMwMAoGECkAMRRgFhS0XgfhRUGYAAGYAAGYAAGYAAGYAAGNoeB6YkUp+5QD+3tqb29PfXQHadYgCPCwAAMwAAMwAAMwAAMwAAMwAAMwMCaMDAxkeKUuuMhxAlUxs1RGYk1sYYBGIABGIABGIABGIABGJgSA9MSKY7equ555CF1xykgnRKk1AWeYQAGYAAGYAAGYAAGYAAGYGAzGECkWJMtLzTIzWiQxJk4wwAMwAAMwAAMwAAMwAAMbDIDiBSIFDybBQMwAAMwAAMwAAMwAAMwAAMwAAOjYGBSIsXRW+9Rjzxyj7r1KMrbJitv1B3+YQAGYAAGYAAGYAAGYAAGYGA9GZiESGHEib099cg9t6qjqF+jUL/oENazQyBuxA0GYAAGYAAGYAAGYAAGYOAgGZiESOEdyE4KGpNngVdYgAEYgAEYgAEYgAEYgAEYgIH1Y2BSIsUWv+7BLgp20sAADMAADMAADMAADMAADMAADKwtAxc85SnjVlaOHTumzp071+ZgRIo2P9Fg8RMMwAAMwAAMwAAMwAAMwAAMwMAIGWAnxQiDwpakcQtnxIf4wAAMwAAMwAAMwAAMwAAMwMByGECkQKRAPYQBGIABGIABGIABGIABGIABGICBUTAwLZFi65S64yF+5QNFbzmKHn7FrzAAAzAAAzAAAzAAAzAAAzCwXAYmJlJsKXt45p7a29tTD91xahRKEBAvF2L8i39hAAZgAAZgAAZgAAZgAAZgYBoMTE+kYIsOwgwMwAAMwAAMwAAMwAAMwAAMwAAMrCUDiBSAu5bgopJOQyUljsQRBmAABmAABmAABmAABmBAMoBIgUiBSAEDMAADMAADMAADMAADMAADMAADo2AAkQIQRwGiVM64RkmFARiAARiAARiAARiAARiAgc1kAJECkQKRAgZgAAZgAAZgAAZgAAZgAAZgAAZGwcCkRIrDhw+r3d3dUTgW1W8zVT/iTtxhAAZgAAZgAAZgAAZgAAZgYH4GJiVSHDlyRJ09exaRAgUQBmAABmAABmAABmAABmAABmAABtaQAUSKlQTtqeqS951Ur/7IJepQXN6zn6WO33eFesHlFaXp+UfUtZ9+gbo4vncpfz9dHb37lLrxvP9/tTp2Q8W2WW3QdTm/q3Z/5MKRdBhRfVfm5wX6dNYYROmf8aZjJt43vOeiA4yJbSMdd5/LtYmWNOPx637UcxOTJbL4tNNH1SvOn8r3SREf+6nHau4dKRe6b3/glLoxy/I0OF1MfG0fPFP/43w70z1rxbVm+kTzOLns/mIxcYZ5/AgDMAADMNDOACLFKiYuZmEeLvb1IuE6I1o8XR39sF2Q6YmGnHR1f+sJ2ce1SDHbxMU2hGgC34kPp4KygrT7WhzZ8rKCjPb16ESKvrGs1UQvw9S8HZ+p9/kcD71v5s17nvvMAnpgYdeSZp6yZ77HLJYWL7otm8UhkWI0/p2xfx6V3WMSKRbYX8zcRgZjiEjR+VQz4760eMabXmxFCh272pi8pD6os2kwfgczTmAffocBGICBaTMwKZFie3tb6Uc+xgatXnCki3b3Df6nL1Mn77pMndS7F+KFmZvkvvrjNs01+lu52mRlYDIxOIFfyGQHkWIl/I160bG/TnOQ060t1ZJmJXFYSJtJ/bVskWLIN6Px70CfFtdjXe2O67Hwv0fdXyBSyHhb0fhqOy+4S+9yq4ughvl9zAtk2VynfTE+wScwAAMwcDAMTEqkGCVEQ4sYM3lsmIScD3dizFPXwQn8kK1NCwZEinliM/M9o1507K8zG+QUkWLpQmxLDGZmtqn/WD47Y7R76TaNur9ApEjjb32SfrkRt485fLeCdpjWJ7abv/ERDMAADMBAnQFEiiUP2OVvOezk4sbPnVDX6Z0SlZ0UOs2puy5Ty9pJYb+58WdQhK/DkyQPmKuPeJykO19ACixelHnLJfZ5bZdePuZiG22c35wijRFeRJ3i3Soi/tVvr43dIh/5zZUp42p17BZ93oZOE12LMz0MD8JHoX97gedid06E8aGwOb6/9/Hs5wuEeZWFsoQPYU97B2vrJu1NY25ZMnYNlFFNE8e88E1kUi8ZU81Fko9gMOZBxDTZ7RSnjcvRZcVpdH65dILXdt/7NpqWE8cg8Ymo12DagZjF9tqyhE9N3RwnQd0XwI7xb8S4eS8ufxH9TpRHUJdyLIa+MY/91/2dsNPXM2zjov/KnEeSxD6yu29zsn59Wd6eOJ+YG50uTqP7hVw6n2fy6trmDe+5ODhDKexPta9jdmJ7bV102YGvorpvbck6uz5e9OuJfftop9Y3u+q6+65UJ4d2UujYz9juFmkreYn2vI+Y40f8CAMwAAMpA4gUSx1Y+glQDJ+eEK3mTIo+6P0ks38vsMtM/OJJXCFt0W92UphOFl0+3YS6Xxykdlm/yTzsBLK/J7C7ZEs3ke0PhDQTwMKkznyWTE79wk76JVpI+cWsyddPZrWtYfzTOsT17CfUfd3jNNKPM/qj6idZvz7maWz6z5pi4Mrsnq92f1tfzF9m0a5MzNOyvJ9r/uvPirH1dPfE7Ay1GcO7rGfEjvZHksYt4nIslmI48/shm3Esi/6V8Yt9MasNmVhZYUj6S/vCPZsvyy4IT0W7Mz62fpcMpG3NsiPTzMZ/sU8Z4qbVl635mPqX65H2i9YXUiizvtAL9D4+8X3x317okwJEksYJADJNzGPyt2NH2pLGs6WtuXpKUTDhcvFcJPXx8dZlN59JYevXjxWzsVm0wdvC69J3rBEDmIUBGICBMgOTEilG9xOkAxNDA6aYlBRB1fksYMFSnMD7yYiZnPUT0KI9Pn32dWDi1LBYyNtpJ4qzTGTNZDj2W6WO2fTum7hkIihja/L03wRKO0vXfYMM65qZVLeUn41DX8ZgHCs+sQuT/TKRsWWozIEFcOi3Pv90AaQ/i5jMMdjgw2yZlXok5foyJDuxbS5NnsW+noMx9WUVXyWbab7Zuoq8FsVFXM+hck29Kz4v3p+LeRCH0jkndT8NxSGuX5fe1GH23U/d/T4WrflEdQ3ycXkkfWt0TzbmMk0hLoEPsmnm8HHO5jhvaZv3V9LebNlSjInbbZ6pOWzubEjbWxAPk073WQO/7hHXd6b8W2wgTRoXfIJPYAAGYGBVDCBSLG1gjxZGSyunvbHkJ1vi/oVMegbqbSaO0aI3mkzayXC4Ndk/JpBMpCt+NZNjsV3d5xF8+ybuDybT3fu2Pv290i73zWQwYZaT1/Q6m0+3IHdlBcJKwZ+Rz/bVYQzEPYxHFLvOT4Kj3HvGXum78BtZaf8gp5UzKaox9H5t9F2Wny5Wrr5V3zWwU/gWOV+PAR/n/F58T7KZ5tscg6597YcLf2/BpkWwY/Lw5bj6RhyEnIesztLvSJarcXT9hu8TEiG0GLsoXi35RHWVNuZ2r5jPI59Z/5R3Y/hdE74+wWu17RXiXqu/q3MQl7gtGvvDOHqbel/bsvu/I9/6vqbjPMwvKL9m7xI+q7K1hPICZsifXRYwAAMwAANLZgCRYlkOjidMyypnhnwHFx4LsbmwqPZ2RhPffjLcT34H7fR5DbzOOonLpx+oj7YhmDDLCXfpOp0I2wmgW9T6Cb2pX6H82qJjwC/JZHOGuNuFSrTYGyov8I+re6XMlviX0jTFsMF3tp49k9pn2TIr9Yi/kU38Xolvvh4lbuZ5X7KZ3p+tayXO1l8zchHXPxeXRbGzwn5Hxrk5jq6etcWyzLd4Xcon51sfzxLD0T25NhHYUcrHl6Nfs2nqLAZl+LxcPQORIM47sj+bjxMJa36ftS3ky0nb2P7SzeEz7zteWVjAAAzAAAysAQOTEil2dnbUmTNnRgFe8+R0hZAMTrbiSd6ctpm6x984+7waFgt+0V+bODZN8ExZ/jGM4UliKWaDC7Bgwiwnj/LaHxYXLnzDeswgUgRlDtctLCdKP0vcZ0nrY57Y6uopnm2X9g1yWhIMdHmZmNv4Sb/buCQ/+evt9fnLA19dHdJ7bF4lVgfZ8YcIivZiOJTPyAu7/GfB4kx8Lv1Yvw7ZTNLm2mmtnHm48Pnpsj53hbr83Zmfal4UO3E+jhNzyK0/ANGlKcUy8ZG3v/Ja6lPSvApiZCXvNA/drgv5xPUP8nXtUTDoD4qUvkjbUdSPuLLTNiLTxe3FtcW5D87szxtKBRCXdyD6Slv0dWxP/LkXVhofzclxFfg6k/8cn7f0kXk+FlM+eeNHGIABGICBZTMwKZFi2c5qz99OfPa/kFhEA/ALwnCbqt72mthnJrLzfBsa29lPPO32WrFAzC1+zHsijZ60uUm1356b5NM6sesmjaL+cjKe+9xs7Q3tsRN0kYdcRAYLABl7eW195BeZsl79QsDFKphUFxYd3UK6t6nPJ45H7u8yFzKfnL0JNw2xiPOxp/IL1rLx1nWbMY22JYlpGEvbjjP1D/yeYVj/eotkx9c7Li/Ix+3AiLeLB2lCW7T/n3X6qHpFkMbGsOMwZ4e3p/Iax6HjMFNWnFbGPf5M5yM/b+8rdb28r3Nx8uJez/lc7CTt5Wp17OZnqeMPRGVmOYzSVPxr6h3z0MVe5JNLk4nBoB9nyKdjx9kj27kXNzoeMr/+Ye8Xdcj6IWTZ5xewEfhYt+9D6pL3nZyNn6DPdf2beU/0F8Y+z1bPT9CntIgUOp/AZp9XxhddPDKfZf2V65uH3rM+DuM3dA+fD7alhcUHX+NrGIABGFgEA4gUSxiYzGRuzkXEIoJKHnQOMDBVBtyia54F7RL6OjibKmfUa7RsGyFkmSIIsR9t7OnDR7FTGj7oI2BgNQwgUiy80+dbDhrvahovft48P/tvw4Nvphfeh22eX2lLxHxdGDC7mBApWazS78MADMDAxBmYlEhx+PBhtbu7C7QTh3ZdJpPYycJnYQx0283j7ez4eGE+pt9k7IQBGIABGIABGICBUTAwKZHiyJEj6uzZs6NwLBNnFk8wAAMwAAMwAAMwAAMwAAMwAAMwMBsDiBSoZYg6MAADMAADMAADMAADMAADMAADMDAKBhApAHEUIKIuzqYu4i/8BQMwAAMwAAMwAAMwAAMwMEUGJiVSbG9vK/3IxxQDRZ3ogGAABmAABmAABmAABmAABmAABqbOZw4GhQAAIABJREFUwKREiqkHi/rRIcEADMAADMAADMAADMAADMAADEyZAUQKHvdg5wkMwAAMwAAMwAAMwAAMwAAMwAAMjIIBRApAHAWIU1YCqRtKNwzAAAzAAAzAAAzAAAzAAAy0MTApkWKtfoL05Hep//0PL1DK/f9355+IWDBawej56u5fuk199TH3/2dPqheP1ta2hk8HiZ9gAAZgAAZgAAZgAAZgAAbGyAAixRIWm5e9/b9Q/04IEHUh4r9Uv/bfXaDWRaR45b3/iVK//R3qpxK/PVl94pH/uBNdfJ271+w9I+gUjp9QP/dlIUAMCBFnPvTD6qvrIlK89jr15cduVndclvGz+SyudyFtEus0v5Nvu1E99ovXq9dfnH42xo4Pm4gTDMAADMAADMAADMAADIyTAUSKhgXYrPBakeLb1O++uSXoUxEpZF2tYPH//bPvUj+wBP/OGo9qeidS/Py7n9m0k2VaIkUoSpi6PfZD6hO3PL3JF9KviBSSf64lG1zDAwzAAAzAAAzAAAzAwCwMTEqk2NnZUWfOnJl5gTWLw1rSIlIgUrRwsvQ0gzspQpFia+vZ6t0PvHGunSKIFAw8S+d57IIn9h342AuD9EMwAAMwAAMwMA0GJiVSjAXKRYoU5vEK8eiIfCzElPPb36F+QT+CodNE1/KRjFo+W5c+Uf3Bb3+r+rOffpJ59MQ/otHvhKg9yqHv+95ocloSKVw+//I/Vf/05bIB2d0k3WMk5ryOb1O/+x5tV+XcDmN3/7lK8pVlFK4XuZMifoRCPhZiyrlZ3fFm/QiGfswiupaPZNTycULCox89qn5EP3riH08Rj1oYwcC/H73q+56jF1MFAcPeG4oXdodF/2hIl8fWloo/6+x57DYV7k5xAoiwJ/zcx+cN6u4v7am9vfvUWw7793gdS9+GHbAIAzAAAzAAAzAAAzCwbAYQKZbw7ZcVKcTi2YgMucW8Brz8uIcRFuTC2y3KvVDhyzFigj+IU5/94Bf57nGToXysSKHtFTaaPMTfzk8mr8HzJUoixZbayuUb2WvThPYkwk/kC91Qknq2xNaJFHJxra/lQlw2wuLjHmbRLx+ViHYl+HKMmOAP4tRigL3uFuxD+fjdDoGNNo/E5oIQYepT+iwqX4sWn5WPwpjPYwFiSw3tpDjzodcFj5FYMUT6y3f2iBSSN649F7zCAgzAAAzAAAzAAAxsCgOIFC0L2RnTJAvq6v0FkaLb3RDuUpAiQVCOXOjL64Z8vEjhxQ8Df8t9xXpVRIqt9DNdp37XRkHIiMQc6YeusRZs7j7P2evEg04kyKUR7+VFCitIVEWCoBwpTMjrhny8SCF3aYjdFWaXhLe3JEToz0ufRSJF6jtpbz9QDIkUST7GHzmRos8zucfXi9do5xI+gxUYgAEYgAEYgAEYgIHpMDApkeLw4cNqd3f3wCfwgXgwuKCqiRTxbgz3t9vJEJQjhQl5bRbu9XxWK1J4EcIdLJoTFoz98S4O6ycvZhiRQjwG4x9RCXaDDPp+S20F4sFww66JFPFuDPu3e3QiKEcu9OV1+khEn6d/BCPaoWHq2CJuRHUriBR2h4Mvq/dPb4d97CMWdQZFClNe/8iIzQ+RgsE04rKlzZLmwMc4uIVbGIABGIABGICBZTIwKZHiyJEj6uzZswc+gQvEg8EJdU2kiBfqYWMIypHChLzOiQCxTU7IWM1OCl2Hvs6mDvHjIxWRwtuY3UkR16vl70A8CP2ba3g1kSLZSSHLD8qRwoS8LogNMp+l7qSIBRBrW1gvaW/vr6pIEdTd3WPeQ6TIMcZ7PVf4Al/AAAzAAAzAAAzAwOYxgEgRLAAXA0AgHgzm3y/YwwZYOmSytzEoRwoT8to9XlE9VHIGkSIos1i39JGOsG5byuTzL/+u+jfmwM7wkZbcuRVGlJDnc5g6XqC8aBHn3/x3bgFdrJc7KDJ41MLGw+5AqCy6g3LkQl9eu7Mdqj8DGgsJuvyCuBGU2XNjfJPspHD56gM9u0M8U5HCiDTJoZj+8ZFC/RM7fFm59P5MiofVna/aPnDBsZmjCjPkEbGHr+AaBmAABmAABmAABmCgwgAiRcU58y4u7EI+fcRCLqiLjysEuwqcUBE91uDzCQQDKUzIa1O/ej6zPO6x5UWPzqbcbo9hkcLvpuh+0UPGwQkQ/SMc9pdL5K+VmNjk0kkhQ+ZZunYL6Phxhq9KISL7qIL7hY5uQe8FhuiRBp9PsFCXwoS8loJHIZ9ZdlJspTZ1uyJydfK2Cl9Z8aW35dGPHlfvf+CN0S93WLu9gOF9KR8JST+7Qt39SzmRYku94e4vqb29PfXwna9S28KWedsj9yESwAAMwAAMwAAMwAAMwMD6MDApkWJ7e1vpRz4AcB0ALO0g8WdW5MSPdagXNu67/b3hbvUlRAr6MQQqGIABGIABGIABGICBjWRgUiLFvhdHNIIVNQK3syPYNSIW92aHBCLFZvJ8rfqxz35Z7e3dp95yWDBB21xR28Tnm9nuiDtxhwEYgAEYgAEYGA8DiBQsfla4+LG7J8xjHCWBQscDkWKFMRlPZ7TldlDsPXynetX2iOyij9hMHok7cYcBGIABGIABGICBA2EAkQLwDgQ8lEoW4TAAAzAAAzAAAzAAAzAAAzAAAzEDkxIpxvITpLGT+ZuGBwMwAAMwAAMwAAMwAAMwAAMwAAPDDCBSsJOCnRQwAAMwAAMwAAMwAAMwAAMwAAMwMAoGECkAcRQgoigOK4r4CB/BAAzAAAzAAAzAAAzAAAxMnYFJiRQ7OzvqzJkzLLoRXmAABmAABmAABmAABmAABmAABmBgDRmYlEgxdUWJ+qGawgAMwAAMwAAMwAAMwAAMwAAMTJkBRIo1VJamDCR1o8OFARiAARiAARiAARiAARiAgc1lAJECkYItUDAAAzAAAzAAAzAAAzAAAzAAAzAwCgYmJVIcPnxY7e7ujsKxKH+bq/wRe2IPAzAAAzAAAzAAAzAAAzAAA/MxMCmR4siRI+rs2bOIFCiAMAADMAADMAADMAADMAADMAADMLCGDCBSrGHQUOTmU+TwG36DARiAARiAARiAARiAARiAgXEzgEiBSIG6CAMwAAMwAAMwAAMwAAMwAAMwAAOjYGBSIsX29rbSj3ygjI1bGSM+xAcGYAAGYAAGYAAGYAAGYAAGYCDHwKREilwFeQ/wYQAGYAAGYAAGYAAGYAAGYAAGYGA9GECkYEsPO09gAAZgAAZgAAZgAAZgAAZgAAZgYBQMIFIA4ihARNVcD1WTOBEnGIABGIABGIABGIABGICBZTIwKZGCnyClsSyzsZA3fMEADMAADMAADMAADMAADMDAchlApGAnBTspYAAGYAAGYAAGYAAGYAAGYAAGYGAUDCBSAOIoQESNXK4aiX/xLwzAAAzAAAzAAAzAAAzAwDowMCmRYmdnR505c4ZFN8ILDMAADMAADMAADMAADMAADMAADKwhA5MSKdZBFcJG1EsYgAEYgAEYgAEYgAEYgAEYgAEYyDOASLGGyhIw52HGL/gFBmAABmAABmAABmAABmAABtabAUQKRAq2QMEADMAADMAADMAADMAADMAADMDAKBiYlEhx+PBhtbu7OwrHot6tt3pH/IgfDMAADMAADMAADMAADMAADKyegUmJFEeOHFFnz55FpEABhAEYgAEYgAEYgAEYgAEYgAEYgIE1ZACRYg2Dhpq3ejUPn+NzGIABGIABGIABGIABGIABGFg+A4gUiBSoizAAAzAAAzAAAzAAAzAAAzAAAzAwCgYmJVJsb28r/cgH6tby1S18jI9hAAZgAAZgAAZgAAZgAAZgAAYWzcCkRIpFO4f8aHAwAAMwAAMwAAMwAAMwAAMwAAMwsDoGRi9SAMPqYMDX+BoGYAAGYAAGYAAGYAAGYAAGYOAgGRiVSPGUpzxFxf8vvPBCdfTo0eT9g3Tawsq+9GfU7oPfUFe8dByN4MLXf0Wd/sR5dTHPYvHIEAzAAAzAAAzAAAzAAAzAAAzAwAEwMCqR4s4771Tnzp1r+n/LLbckwKzdT5AiUiQxXJgAdACNCdvHIbYRB+IAAzAAAzAAAzAAAzAAA+vLwOhECr1r4tChQ9X/Og0ixeKhYyfF4n1K54hPYQAGYAAGYAAGYAAGYAAGYKCdgdGJFM94xjMGv13XacYuUjztFV9Q1z/4uDrd/e8f60g/69O96ifvVofcLoBONLjo7erKj/s0fT5bWyfV0Q88ruQ9/r1XvPXNoR+DPHRev6euueU6tbV1qbrk7d8QdvpyZJp2oGh8+AoGYAAGYAAGYAAGYAAGYAAGYGBeBiYlUuzs7KgzZ86Ei/OD2Pbf+hjHQDojUhiRwwsTTlDozo1oFClMObGYkTaaThQ5CJ9R5sFzSwyIAQzAAAzAAAzAAAzAAAzAwAEzMFqR4sSJE+r6669P/ms1prSTYl6lZuH3OVEg2c0QB7tJpPAChRUVzC6MT/6aev4L9d8tIkUsbKTihK8/IkXZN95HvOIjGIABGIABGIABGIABGIABGFgeA6MVKR599FH1zW9+M/mvYRi9SKHFCCdU+Mc9soJFi0jRCRI5CNpFivCRkFxeWwqRIu8XOiD8AgMwAAMwAAMwAAMwAAMwAAOrYWC0IkUNgLUQKeSuidLOCkQKtlJJTriGBxiAARiAARiAARiAARiAgQ1nYFIixeHDh9Xu7u4IobY7HpLdFO4wy+R9B6XZ2VDdSRE/ymHL0bs3ZJ7+oE75Xk4EsunCx0ty6XhvNQoifsbPMAADMAADMAADMAADMAADm8bApESKI0eOqLNnzx64SOFFAf+oh34tPW4Rp5XphkWKLbUV/WrHK976HvNrHYkgET1+0v+6h2z08S99+F8AkWm43rROgvrCPAzAAAzAAAzAAAzAAAzAwKoYGJ1IcfToUXXo0KHqf51m7D9BuqoAUg6dBQzAAAzAAAzAAAzAAAzAAAzAwFQYGJ1Ice7cOdXyH5GCRjiVRkg9YBkGYAAGYAAGYAAGYAAGYAAGLAOjEin2G5Tt7W2lH/nYbz7cTwcBAzAAAzAAAzAAAzAAAzAAAzAAA6tnYPQixU033WR2VgDH6uHA5/gcBmAABmAABmAABmAABmAABmBglQwgUmz4z7usEjbKonODARiAARiAARiAARiAARiAARioMYBIgUjB4zEwAAMwAAMwAAMwAAMwAAMwAAMwMAoGJiVSjOUnSGuqEJ+hGsIADMAADMAADMAADMAADMAADMBAngFECtSyUahlNNB8A8Uv+AUGYAAGYAAGYAAGYAAGYGCTGECkQKRApIABGIABGIABGIABGIABGIABGICBUTAwKZFiZ2dHnTlzZhSO3SSli7qi7MIADMAADMAADMAADMAADMAADCyCgUmJFItwyKLzeNE7Pq329vbU3t4X1AdvAtpF+5f8YAoGYAAGYAAGYAAGYAAGYAAGpsMAIsUyt/S86B3q04gT7GxZJmPkDV8wAAMwAAMwAAMwAAMwAAMTYgCRYonBvPgHPqw+/4UPqpuWWAaK4XQUQ2JJLGEABmAABmAABmAABmAABjadgUmJFIcPH1a7u7ujUdEQKehgNr2Dof60ARiAARiAARiAARiAARiAgVkYmJRIceTIEXX27FlECnZujIaBWRojaem8YQAGYAAGYAAGYAAGYAAGNp0BRIqlLegvVj/w4c+rL37qdnV8aWXQgDe9AVN/2gAMwAAMwAAMwAAMwAAMwMCUGECkWLiAYMWJvb0vqk/dfpxv9BfuXzqgKXVA1AWeYQAGYAAGYAAGYAAGYAAGJAOTEim2t7eVfuRDVvDgrtlJcXC+p5HjexiAARiAARiAARiAARiAARhYRwYmJVKMLQAcnEmnMDYmsQcmYQAGYAAGYAAGYAAGYAAGxswAIsUSH0dApKDxj7nxYxt8wgAMwAAMwAAMwAAMwAAMjI0BRApEipE8HkPnMLbOAXtgEgZgAAZgAAZgAAZgAAZgYNUMTEqk4CdIaUCrbkCUB3MwAAMwAAMwAAMwAAMwAAMwsDgGECmWuJNi60XvUJ/mVz7YqbFMxsgbvmAABmAABmAABmAABmAABibEACLFkoNpzqXY21N7e19QH7xpceoSSh2+hAEYgAEYgAEYgAEYgAEYgAEYmBoDkxIpdnZ21JkzZ1DRliy8TK0RUB86dhiAARiAARiAARiAARiAARgYBwOTEimAahxQEQfiAAMwAAMwAAMwAAMwAAMwAAMwMA8DiBTsOmDnCQzAAAzAAAzAAAzAAAzAAAzAAAyMggFECkAcBYjzKGzcgzILAzAAAzAAAzAAAzAAAzAAA9NiYFIixeHDh9Xu7i6LboQXGIABGIABGIABGIABGIABGIABGFhDBiYlUhw5ckSdPXt2NCBub28rbRPK3rSUPeJJPGEABmAABmAABmAABmAABmBgOQwgUixRWRqbaEIjWk4jwq/4FQZgAAZgAAZgAAZgAAZgAAYWwwAixSaKFNvPVFd88lr10h89lOzy+L6XPV9dd89z1UUVvzz19Zer17x/J7l3KY3y0HPUS86fUjf6/w+9UB2p2DarDbouNz58XL3oqsU0qFnLT9JH9V2Znxfo06ROM+X9fep5P6XjvatOvG7JMTHt4JS6ccFMzVz/lpi3pJnJz0v27by2VPqmmf06ow2673t5K3eenVX0HT72B81pgz+tD31/nR9jbByfonbedZW68XwtTY1Re//pgbFq2cwsOv/RjUcNMV+KD86fWt0cY6l19OOZaxNr0IYXHU/fJxxoW3X99ebNp2p9aOYzN9asKlamv/Nz+xG3+dDO2tx0v+NaJiZL7Z90eRepY58+pl74grayL37P1erGu4+oZyzdLmvPpESKsT1eMdadFKbBBYOlblgnrGhx6DnqajPx04OrbIz933rQeZkWKXTHf9+MC3w/uRcdkxUgZFmusSxiYDF5lCfC450U2snNugyqKVNtHV46IfKTugwPC+8UXVlBWxB2D7CT2i7uncvWlpi3pNmvHW33Ly7moryl+rzuO0QKEYe5+BX3D8Zxv5O5RYoUi8xL+CDrwzqD4x2Phuq1uM+ND0a8YJm3319Kf5llbAGxGGy/7WWsSqQw5ZREY1OfqQhf7b6fmVXnp1WIFDONt8vifNZ8jYhTm5vud1zTsdWiwSl17Zuevtwvgm94gbrBiA0Xqhd85MVGpDj0Iy9W173vWeppJb9cfom65nMn1fHTT12ubaL8SYkUMzdI4Yhl3DvOgzz1JCmzaHcK6mvuukydvOsys3sh7qhsp3KteplJc7l6+b4mEsMTw+qg0xq7gcF2vJPC+mR2GbzuJ8+1moB17Fgfx5x3fhhgp0vX5bffyUNLzFvS7NeOtvuXEvOl+rzuu7WcNC2MvbaYNzO/1DhqW4fHj2ZbF5rXkB/rDI53PBqqF58P8baU/nJZ7X/p7XfxvFTni6Y+iBRDjJovHj+5Cj8tsv9ePEtFPw2KFIuwZUUixZYWJ65RNz7wYrPmO/nxa9SN5+s7KrSI8eoV7qLQcUCkWFYnP9J8qx351pYaniQ5pbD07XNzvYc7qSFbix2JtGFgsB2u7yI6nXnyqE9mm+ou/bDk67WagHW+sD5GpJiHT9dX7LsfiMoeaK/7477ephApolh07WSO95caR23P8PjRzsoi8xryVZ3B8Y5HQ/Xi8yHe1mqMXHr7XTwv1fmiqc8qFt+Lr9cQVwv9fGV+WmWfu8CYTEqkcH4xuyNadm6sSjwJ44VIsZ+J2NrdazuG7CMEbifF6ftOmJ0S+hyIePFmJ/Gn1On7jquTdy1rJ4WdxHVnUASPhWR2gJRi4OqTzUcsrPyk8LIf1s+j+2epM9u54vxEHrMMEt6H3q7Yx31eDZPZzt5w8DVlPPRCdak+b0Onia77Mz0sD96W5PnwbqJy2J0TYf3T2xzf7/2nX2eIlYlhlFdp2+ZWykdvz5bqJiqn5FkmM9oSx1r4ea7zK+L8BuqWbZ8d5zUuIh9m2rDhy01EinH3YqWod+/jtIxyPnHaXBziNPOwEw5qfRty7yf1FZyKWNi2uatO3FJjJ+Kv1A/EMZ+5PWzZx+k+2dvaxyCsb9ynzHuei+kLszEPy0v827Ep0nV9R3ruUVhOpq/t7i31O7ocy430SZdvKSaJnVEsRd0THybxzNid5B/7o49l32ZOBWcirW486v33bD9O6PqL9qDj3PWnV0lfpe24873zoezDLJ+Fe0R5IcdpesudtMP6U5aV/Sa440mymOl3mrkRcU3GozIXxkelMuI+Svhly5RxrXrpW5+jrjD9QXQtzxaLOY3K8zY815y/43kUNsf3yzYR5TXYD0R5BXEybcXG8jXvv9idT+PsmbGcmD3ZtroynX91WfbMK1uW7D9sfWIuShxKBnLXMadxPr7uO7aNeT8HdW9Jk44TYd/l7Ajy7e9J65+ri3gviunM87zkfs9g2Pe09jthn5GuWXRMYz46Jmr9dekzY79oLyJdWE4+jR+3JKPdnNKJBcFnnosHjqpLni3iIModbIfFtG4nxfmT6roPX6YGd1Lox0OWYke9XpMSKcZ6BsT8ENWDN3O+xQamO+YVnUnRNZh+klQ6pLPvqPbhh+wEpc+v61i6Tjxjl/GbHGTcQNbd0+dXi4ntUGXnZQeQ/EDRD1BxnsZmOYnpBmB7mKnvuE2+flDQtgbxz9Qhrmc3cRJ1j9O4eBqbZvRHXC//dznumdh0PNkY+LrLyXbir+geX27yOsBOkj6Xr87jZ+Rhr4VJg7m3HPO+rFKaTDxd/AK+HA/Be5Hd2ofmzBn/vrsnHtzrMc/Yk7CTSbMIn3u7k9eS7wbYKXBdrP/C61Dh3vhU9iltfVHPU1/3lpjH9xX/bvFByXbHbTABLrBjOXZtSvaJSexrfqn4V+eTlO0nvvP4vc6gYUpPTDvmMrYl9mTa0WD93T1BWdY22Td0/akQ2eL+NP47FQrSfO3COxTXO5aK7GTyMb4Q+Th2gr4qk1+x7Q76TXKU2mP9leeiWGbG5tCnthy7+PRxs2OyPny2i1cDFybfIOYFdjI+6+Izk4+0v6z9QUxMHr5eA/FrLM/4vtQHOB+nfYqMVcYXiU9l/EvXOp/jwcHf1u+yrL7uXVtPOGhM80/kuXCuDsIPOSarvir5e6FMWDs7dqMyrc1awOjnnmGbcAJqcNC19ZfMM74n7ZtKMSy8b3iQccykq6Qx9nR9e+Ze44cV7ViY6UwKK2i8onZeRRTD+fuL0C+IFEtyrA7Qzs6OOnPmzMoOGBmCoqWB6M5hNb/uUe+kdF3m6kjjeA50rEkn5pXXriMp2FnpiPJxsB1oPFCX65hPbzvZvuP2ZcnY2g7edaTSztJ157Oorsmg6RX4evnepnlfyz6x9kkBIi4jqLurVzm/sDOM8yr5OknX+W8gP5dOxirMqxDzIP9CGhPbNC5h3Z3/Orbb7C1NMsv18Au7eDCP+JI8+joOtNfQX632+3QF37myZ2WnWH/XbuRkaX92R37zvtKvxodiki8/29d13VeD9WmJYy7+2uamfsex7L5p2p+vK/51Oza6hUTn03n9U7/PMCUWGNrPIWcFW0u+7Oz1bcC/Ov9FfUHYX/iFQNSvyLIKcQ5tzozlMo/YxkKeufaZ+KeJnf2ITN5/mTqZepTjG/vEt6Hs+4EPbJ6WcRn/0nVvo+0f+n7YlFXly90blC/yi2PV9HfJJ7JevoxSWv95+TVm1/vXvLZwkWVS+rhcdlBWzidJ3raeYb8Sl9WSJrUp9UPsU1tOPBcdrIPz4f76Wm9vXFf/vn21bb3S7xSEr6DuBYaz7S0Xs9x7SRxDu40PK2lM2YGwkrl/VQdndvXTokj9LIqtAzgw0/OISNEFKgfL/t4b1c6OQoP1IKz+td5JaXuCDmfeOA3Ue3jQtnZmt2ANdjaSHzfguEl1kF80abCxiAcWl5cbKIL7fZ5uwmk7+BaRQmy183nIRwRcWcFgVvDnvjr+KLb1uEfxiHwX1N3lW89Pxii6LtR1trYS2ev9HC0OqjEP/FPgojAwhv4YbnPGjgJjAQfJ4inynbGnzlc2LgvxeWRL57+C7yQnUZvO2ujSV5mPfLi/id1A3CJfx3Fq4jWy1/cvc+Wl/dMSxwKzs4gUp+95nnqx/sniqB9oqnPHRc2/pc8sS7PHtc7g6sYjW69wkeRFiX5RG/YfmXZV4MbwI/s4l87yVPKpy7/ATqktBj4LyqnnZ+7z/XHU7lv4sb7J93G5dlPqL0I7ZH5+kSZZk75Lr327DV/7eAa+qvVjhRi0+CVNU2Je1suzVUrrPy+/lvgw9rRwEfWj0oeztvM8G30cvPBfzzfnn7T+WX6i/jDwTanf7frDtIwups6P3jd1+yv5ZB7X68rwc/9qm7S+8XYEr77uka1BGtk3tdTbp2nx3UCaMF6SCe+vFe2k8HVqeF31z45KFiYlUoxt58KYRIqgk2qAUkKynGs5wPrGGb4uxOaBwXZ40B62s80/sw6+hfQD9dG22AHSdX6ywyxdl3hwnXww4SqUb/w4b8cfld8edxsbuUAJ6u7ybc8v5K9poRXZHrMwzJcssxDzoIxCGhlbkT6sewvLNv9w8pEvsxrzgj2Bf3JpCnwF94n6zfZ+vh4+j1nZqdZf2ujaUehTGfeh65a4uTyMT2fdWdEec++rwdeWOObir/3m/FXvd6RPrP3xgnvQxi5GMq84FqXP6iyVy67fN9xflOyJ7R762+YT+yzsL6KxpPOXyLslzu6+rr0M3VP4PLbN+7jLt5kdYb+0rbooSu8p2ePtil8DO4UvS+/398v2KeNfuk5t9XmZsvwiTtY9HrsLMfD5zPZaYl7Wy9tcSus/L79W42HqE/WLcR1L/ZGIVVO9TT5eYHL2Jnnn6h7XbTiNqXPEbdYPoq6agfnHImGj8+l8eUl2RZ7O17l6hb5v4ETUObw3La/58ySOmbxa0si2F8VvZT8OyxDbAAAgAElEQVRB2sz1wYomkxIpmkFrDk4GwBnuHY9I0dCgZ6jXYvxc76R0GdnOdmY76x19y6BtO8xo0JnZjlm3mJZiZv0mF+ZxPIIOXnaY8tof+BVPTmS93CBUXyzYNhKUKfOY43qWuMdpc3bEaWJ/lf+us1O+r+83Er5MDOQz531a/+1K4O/EfyUu7PvBoiMTP+ufaLIWlJHW2dQh83PDOV/3PsnYE5STWYw6e+VzqF1+/rNogt19Hued/du1nQLzufrU2DF+KeQV2jXc14XpJRP6epb7S3zEecq/22Net1PkaeI10GcG/VF8b8Rokl/kE89HUzxEWY6TpJ0KfiwXYV1q6es+qjOYyzfmLGdPvcy0vp6ptv4i922fz9PVp6VdmhjtqpNve756eS1OSaxdWS7GwaLIMCRjE7HsuRDPtmd9VWJRcJDcl7Onkj6OY5efGxPK/b6sk+ReXntBSfrCx6h/beHL2iXL7O/vbK7UM01j80rrlyujlLbBhoQFcY+LVWCDeU/6y5YdtImZ6unKS+xw+QaL0Vzdhb2m3OE0yZjlec+0Rxv7E+q6T9bac2xD7e+QvzTu89+b1CsTB1OfwKdxeTP0TZn8s/Vp6Sda0vjysmndgZYDP/Vpfg5U7wRb8mGWppwll5H1tfMRIoWHZcqv2YYQN+gV/e070W6bpd/emHacpqPKdLY1oLOfmfr7csIFYuugbTtNkYe2vzbRKvBkO9YwHznpyn1utqkFZbnON/KhH4CDDl7GXl4b+/zgKe0Rg3bTwO65iW0S+RR8EcSqyIXMJ2dvyE1Qd1fuvjiqsBPYX6pjXK+HjyvzSzIini0xb0njRQ65rdEzEdga1ymawMesn77nUvW8d12l0ryGYp6Ll4xnf6aCtVnHUt8TpYlYTe3wDDa8ZuLxoqvsfU3sJL7zbUdwmEsj4h3EosSNF2mjNm78JPrEOFb6c9mfzFtWOeY1H8c8eN9Im3JM2HRdXJv6HVtWUFfvd+Gf1vqnbUfEMxeLucpwvqswaNp5lLd5L+InF/fZxqNcrNJ2l2sTqU9zeUUik+Hcp0vL6USTDO9BjGPfRX2Xsc1zYPLSZelfiZFlejt6PrPCaKVtdj5I7NF5CnYCW2R5Io0uJ5eu48C2GesHa3t6LfswWU44T2nlK/VjmE9X/4qPhscsWS/fr9j3ur6gkn/OhrjMLp+mPkXbkOufJDveztprzJf/NRYZ81zd4zzb0/Rjvvt1qo4dkafzQdCeZvFvjtGoX8rFJP+e5FjY6Oxp63f8F38h72H94ljYtB0XTfXPMRHn05ImZ0uBrfiXPjIiwWpEioM7MNNzg0jRBGnaiLwDx/9a7wzGb/86+x7b4QsGFsWAnbgUBvXJ9+NwtCiOyEez5CbMcy8y4BGOYGCtGDAiBePnWsXsoOc1+hdAzg8cqrlkGyclUhw+fFjt7u6O5tc0RtEY6JjgYcmdyCg4p44T59x9U5H7hojYTzz2LIYW38ciUizep3CKT8fKQMuujLHajl0H1a4O8sBMX+dJiRTjOQPCNqrt7W2lbfLO5pXOBgZgAAZmY6Dbwsu3vowlCFILYgCRgn54tn4Yf62hv9wjHvM+BkjM1zDmExsjESmWGNCxiSZ0OHQ4MAADMAADMAADMAADMAADMAADY2YAkQKRYkHfzNDQx9zQsQ0+YQAGYAAGYAAGYAAGYAAG1oGBSYkUY3u8gp0UdALr0AlgI5zCAAzAAAzAAAzAAAzAAAyMhYFJiRRjcaq3g4M8aeieBV5hAQZgAAZgAAZgAAZgAAZgAAaGGUCkWOLjHgA4DCA+wkcwAAMwAAMwAAMwAAMwAAMwAAOeAUQKRArOpIABGIABGIABGIABGIABGIABGICBUTAwKZGCMyBQ37z6xisswAAMwAAMwAAMwAAMwAAMwMD6MYBIsUS1bGdnR505c2YUapRunD/x839HqT/8FvUX93/PaGyi01izTuPio+oTv/hG9XNvezYMLbHvoF2sWbuABfoDGIABGIABGIABGFgYA4gUS4RpbDs7FiFS6Dz+w298p3pz1m9PVr/82AVK/aH4//vfrj4Tp935B+pfD6WJ74n+fs4t16tHH7tNfVX+//KN6t3HD2hxYxbvkT2P3aYee+CEOhnZvvwF6NPV6z/6Q6FvnJ++/KHn76/zQKTYn/9WzsIBtQfqCScwAAMwAAMwAAMwAANzMjApkWJsOxfGJlIsYnFcFyniBZEVLQJR4xlPUv/z1+VujkyaBpitSPHD6u7X+jL9wly+5z9bwetIF+/GT4sUb0Zaz0WwTR4raCcNbZs4EAcYgAEYgAEYgAEY2GwGJiVSjA1mRIot9f0f/s+Uyu2mEIsVk+Z/+Xvqn3eCw3CjTEWKLbXldjPse7eAsK2ZqZEu3hEphllqjvE8XHAP3yDAAAzAAAzAAAzAAAzAwEwMIFJsADBGBOger/hW9UfvixZu3e6GJwWPa/Q7IDKPcdTy8z41+V6g/vaL312FcrEihTgvQQgHL373zd3jD8kjGJedVD8vHxv5pevUGV8HJ3zk78mXVVr09oLBM9UdP+sfDRF5uDKtAOM/zz8yIuujH3kpCTN9mVHMt6wNX/7Qi8JHQ2TdjT1+h0pvz1cfi22O04Sf+/oEPnR+/WpS3hvU3V/aU3t796m3HI5t5u8SW7wPGzAAAzAAAzAAAzAAA1NhAJHCL0Y34dWcBVESKfQ5EuIxDJNW/O38M/y4Ryho9EJHqdNY8OMe8tEGvxCWZ0MYQUIsouO/t9yCWyyejSAg893aUuY9kcbu4hD5Znjyi3W5yI/ztmnkIytWTJAL/Pie2g6SIZEiEDicv3rBI/VFWs9MmsSnW2oreM+JNNJ/nb8QKaYyuFCPUp/H+7ABAzAAAzAAAzAAAzUGJiVSHD58WO3u7la/ta85Y/KfDYgUwY6HbndF+EsgwyJF2OB0elV5lMN8/ocZ4aRbtIb5+Rj1C/7+G365kDfpsrsg/A4CfYCkXWAn95kFtRAKTD5SgJB5OPuEICIP8+wX/FvK2izz8Yt3X1Ym3y13nxdJElts+Ylo4vw3JFKEdY/Kj/2g84zLz6Up+NXb8k9+6mb1VV+fgTj7ePOabwf4Bb/AAAzAAAzAAAzAAAxMjYFJiRRjOwNie3tbaZtGA80BiBRbBbFD+2RegULfaxf8fnFf6JiccCCFgjAWbheAfNSju5Z5h7sF/GI7+CWRePGeWXwP22xFAilydNd+Ue/q1L3f2XubSh+diASOwCZbVk2kaKqnESl6oUjaFeatY+T9LX1biF1gK2lCbvEH/oABGIABGIABGIABGJguA4gUS1wMjU002ToIkaJQ5n4ECt0hDS/4/bf+5fMa/KI5XUxnGny3Y6Cw+2KBIkVZVPF1inZjVBjOCg0m/bBIYR/RiASFuJ6dXzI+i+zyuz1+RP98rBddojQMNsN+xEf4CAZgAAZgAAZgAAZgYMoMIFIscZE0RZFitkMu3fkU0a977Feg0A1yMSKFz6dl0W/FiS//9LXqE78YLdw1Q/HiPcNVi81mIf9YJv8uP7cboXGRvy+Rwu3a6EQT97c8U2PLHcCZ28UhO86w7q4O1TMpHlZ3vmp7PLuQOv8zIMq4cg0PMAADMAADMAADMAADi2ZgUiLF2B6vGIdIER5kqbpf5RC/upH7FY7iYxpxfuI8CZdPtgy/yDM7K/Qhnen/4UM2+w4gXPT27wcNJF5kexuiV5tX9MhCZgHt02V3XixIpND2W6EitCcs0y3y5aMewS985D/Xj2J0goMTF8J8ozMptJ+Cxzm0eKLTxKKOvU8+6iGFDF+fvmwv6tyWPZviDXd/Se3t7amH73yV2o5iFcSXzxBxYAAGYAAGYAAGYAAGYGByDExKpBjbAoaDPAviAR3J5DqShba9N9ytvoRIASP0EzAAAzAAAzAAAzAAAxvJACIF4G8k+AtdVMPQAhm6Vv3YZ7+s9vbuU285jMgFpzAAAzAAAzAAAzAAAzCwaQwgUrDAXOACkw5k0zqQhdbX7aDYe/hO9aptWFqob+nn6OdgAAZgAAZgAAZgAAbWhIFJiRTjOAOCxRWLKxiAARiAARiAARiAARiAARiAARiYhwFEiiWqSTs7O+rMmTModkv08TzQcw+dJQzAAAzAAAzAAAzAAAzAAAyMkwFEiiUuoNnZMU7o6YyICwzAAAzAAAzAAAzAAAzAAAyMk4FJiRRj27mASDFO6OmMiAsMwAAMwAAMwAAMwAAMwAAMjJOBSYkUY4MMkWKc0I+NE+yBExiAARiAARiAARiAARiAARiwDCBSLPFxDyCjo4EBGIABGIABGIABGIABGIABGICBdgYQKRApONgTBmAABmAABmAABmAABmAABmAABkbBwKREisOHD6vd3d1ROBalrF0pw1f4CgZgAAZgAAZgAAZgAAZgAAZgQDMwKZFibGdAbG9vK20TjY3GBgMwAAMwAAMwAAMwAAMwAAMwAAPDDCBSLHFLz9hEExrEcIPAR/gIBmAABmAABmAABmAABmAABg6OAUQKRAp2eiyRATq3g+vc8D2+hwEYgAEYgAEYgAEYgIH1Y2BSIsXYHq9gJ8X6NQg6MWIGAzAAAzAAAzAAAzAAAzAAAwfHwKREirGBxEGeBwf22FjAHliAARiAARiAARiAARiAARiAgWEGECnY6s/jHjAAAzAAAzAAAzAAAzAAAzAAAzAwCgYQKQBxFCCiKA4rivgIH8EADMAADMAADMAADMAADEydgUmJFJwBQYOdeoOlfjAOAzAAAzAAAzAAAzAAAzAwZQYQKZa4k2JnZ0edOXOGnQpL9PGUGyd1Y/CBARiAARiAARiAARiAARjYNAYQKZa4gGZnBx3KpnUo1BfmYQAGYAAGYAAGYAAGYAAG9sPApESKse1cQKSgce6ncXIv/MAADMAADMAADMAADMAADGwaA5MSKcYWPEQKOpSxMYk9MAkDMAADMAADMAADMAADMDBmBhAplvi4x5gDj210TDAAAzAAAzAAAzAAAzAAAzAAA2NjAJECkYKDPWEABmAABmAABmAABmAABmAABmBgFAxMSqQ4fPiw2t3dHYVjx6ZGYQ8KKQzAAAzAAAzAAAzAAAzAAAzAwNgZmJRIMbYzILa3t5W2aewQYB8dFQzAAAzAAAzAAAzAAAzAAAzAwBgYQKRY4paesYkmYwAOG+j4YAAGYAAGYAAGYAAGYAAGYAAGSgwgUiBSsNNjiQyUGh7v0ynDAAzAAAzAAAzAAAzAAAzAQMrApESKsT1ewU6KFDgaIT6BARiAARiAARiAARiAARiAARgoMTApkaJUyYN6n4M8aXgHxR7lwh4MwAAMwAAMwAAMwAAMwMA6MoBIwVZ/HveAARiAARiAARiAARiAARiAARiAgVEwgEixiSBuP1Nd8clr1Ut/9FAC4fe97Pnqunueqy6q+OWpr79cveb9O8m9S1HpDj1HveT8KXWj///QC9WRim2z2qDrcuPDx9WLrhqJyhrVd2V+XqBPZ41BmP771PN+Ssd7V5143ZJjYtrBKXXjgpkK69NQh5aYt6QZTQwb6lyytdI3zezXUhmF93Xf9/JW7jw7q+g7fOwPmtOC32RcrA99f50fY2z6p6idd12lbjxfS1PjyN5/emCskratw/XoxqOGmI/Nr8aHfr7Q2p7XsJ5Fv4+iv3Dtew36rKIfV8KEm++sYhzR9fFs+PYx1vhEdtbmwX7MWaexoGWd5bk89CMvVq9+4Ki65Nm18XC6n01KpOAMiDZQzSAedE56QDlhRYtDz1FXm4mf7jzlQrH/Wzewl2mRQk/U75txge8n976T7F5lWa4eLm2tg/INufhq8ihPhMc7KbSD177qvpJB1sYqZaqNxTRubtBeyeTSlRW0BWH3ADup7eLeuXzfEvOWNPu1o+3+xcVclLdUn9d9Zyc7mX4oF0vXN61E4PQTthKnOfsO+r3BOI5JpFil4FFncLzjkWijc7Jl2teqFmPaRtNuGtvznHVa3BhQ52KmclbVX1T9i0jRFjPnp1W0Czdmrcuc0vpvuF3YcfuU2o9IsZq+Scd6aJ0V97MXqWOfPqWufdPTV/Ol8IH3g3H9txQixRKDsrOzo86cOTMyuHSjzyza3cD2mrsuUyfvuszsXogbve0MrlUvM2kuVy8/f2ofOyqGJ4YL6TgGJsvjnRQOd85tg2Da6Jdx31IWrEtsm3IAjDnv/DPATpduYXa2xLwlzRrHfKk+r/vO9m/rsqhZTYznZnypcdR1Hx4/2m1fZF5DcakzON7xaKhew58vZDyfpa+tLqKH7W3nZxF51blYrS2N9an617apA9+lOAsvB5J2dX5aeftbiD9X0y5W5puGdVbQ1m94gbphg3dRaF8gUiykIeU79THu7BhqjMOTpEV1qsMTwyFbg8ZciuPAZHm4vvnYNpVdsqnp/dV0zouqByLFIjhpiXlLmkXYMpzHUmI+0F73x2vdd6a/WckOnmHf7q+eI8h/qXHU9RseP9p9uMi8hnxfZ3C849FQvYY/X8h43jR2Oluqi+hhe9v5WURedS5Wa0tjfar+XdQ8sdGWWbgYVdrV+Wnl7W8hfl5Nu1i1b9r6+QvVCz5yjXrF+56lnrYQX65nW5qUSDG2nQvjEylsh5jd7uUUvtP3nTA7JfQ5EPE3zHYSf0qdvu+4OnnXsnZS2E6pO4OiexxEP+ec2QFSaryuPtl8xLZp31lc9sP6eXT/LHXm29Q4P5HHLBMI70NvV+zjPq9652zs7uwNd7SYMh56obpUn7eh00TX/ZkeboDs8on82y00DrtzIqx/epvj+73/ZoyViWGUV3H7Y8pHb8+W6gabU/Isk6heJWb8+3GsO//MeX5FnN9A3bLt09u2VeMi8mGmDRu+TFzrsYr56n2cluFZTttnnDYXhzjNPOwMDL5JfUXdRSxs29xVJ26psRPxV+oH4pjP0nf5WEd29zEI6xv3KfOe51KOeVhe30dV3u/6jvTco7CcTF/b3Vvqd3S5lhvpky7fUky8X7vXKJayncdiVRLPjN1dvhm/RLHs28yp4EwkU4eHj6vlj0e9/57txwldf9EefJxjvqTPu2fcA587v7q8urgE/rVtsN7XZfzo4t77L9enuPtMzEpxivsdmY/97DXvv7gb98JreR5XzFBY3uB41MiFj0X1NcoriJNj08TioReq55rzd3w/GNpcLWPLjbGZWOqY9GU6/8q5R4GvmI/ZmbDxjvPpbdGf97xfJNtywHtLmj6vnkE5/3L1DvLV9zhOgnZi7a77O+ZL+ni++3u7BfNdW3H2u/gmsZC+02ly9WlJU+srg89s/RM7dJqonGyarS0VcyH7uOQzwXUpv3q8BmLibK6ts7r8L79EXfO5Y+qFLxjIM/DX9NJOSqTogjuSoI1OpDANJDcg6Y5p6Fkp3VnYe/XAO/eZFF1sxIDQvRc2sG6A38+hlt2EN50sa166TqrrbDN2Gb+JDt1PlLp7QrtLHNrJnvS/7YDDwdTnVe6cjc1yEHSTE9+p2nLcYOY7cm1rEH83GMk6xPXsJj2i7nEaFztjk8yrENOSb+T75bhnYhOV4+ueDETSX9E9suzgeoCdIG0pT53Hz8jDXm1cs4N7VYAY4iITTxe/gC/HQ/BeZLv2oWnf/n13j+fL17se84w9CTuZNIvwubc7eS23KV2nIjsFrov1X3gdKtwbn8o+xXMy22trzH3sB19bfFCy3XEbiF4FdizHrk3N08YNIxX/6s+Tsv24MY/f6wwapoLJf8a2xJ5MO0rYj3lw9wQLS2ub7Btsm5D1TNOYs6k+6RdqLt9MLExemfcHWerqkqln4gtRT/OZtN1/NpSP940d93xMdP8XtvnUF7G/7N+h+GPySPxQ56LdR7qO1n4ZR3+/r0s//mR80fnb+6vwWvRvb0MoXKR1THzh2n481nj7S6/az/Uxy8dUxiKOX0sa2/blofM2xgNzpKqvCv6txLHkh9r7xs6EO1e2sS8UDm29RPsxaUQ9c/PgljStfJl0KTNpHctpqnUWdrSmS8suxS73vuZraJ3V33fxe65WN959RD1D2Lm/8vu81ykfRIoNAiAcYPPA6sa6ml/3sANCbiD1DWghHcfAZDkZJL1w0S1MCnbOPOjkO9JyHfPp7YRQDhQ2jjK2Jk//TaC0s3TdtYGorrkJQ8Gfsnwfv3lfyz6x9kkBIi4jqLurVzm/fBvo8izUtfu889tAPlG6sq8KMQ/uL6RJJgfWprDuzn8d261258ss18Mv7MQEx9Qh4kvy6Ou4JJ/bmOXr4eM5KzvF+rt2U+vbfJltr5HfvK/0q/GhXyC2xrMlXd1Xg3a3xDEXf10n579goZLk51h233ztz9cV/+Ym4sb/8/qnfp9hKlpIhJwVbC35UrISXDv/BX1BnHfe1rBPcSy58k++rfwLOdn7ApsGuMzWMbZZ5JFN79tMrW8KfSP9L6/z9Ql91t6nhPcNtq+q38o+GeZL+K9aRsmP/v7Qh7Y+kV1Jm7b3Sh/P74fYn86ehrYVzy8G7UnqEdXTzSln76PyNs/rkzyvLl6mrUTjSFCvtE7GjqCNtaTxfLS+xnHM3VdOY9tfOl+OfVj1zVA7mONzXV59ncWBmT5GiBRzAOadt1avQYeTa+irfq/QoYl4LKTjGKj38KDtBgqxDazfLhdPdGo+tB1pf6/faimVfXl/oeM19RH3SrvchNN2zM42OYgk1/l8usHUlVVfLFibBwdyEdehdlOPexSPaNIR1N2VWc9P+jy6HmBnqB7288heH69gceDLLcQ88F0hjYytSB/6Y7jNGZsLjAUcJGKer4N7NfbU+crGZSE+j2zp/FHwneTEi3vyvYgxH/cq85EPuzbV2VKyMff+QNwiX8dx8vZWXyN7fT81V166ji1xLDA7i0hx+p7nqRfrnywuxKha5y4WNf+WPrMszR7XOoOrG49svfpv1DV3cV2trZ6F4DXjb2N75bGmbHvvYpDjPnov4lzak41Dia/BfELfyHYur23fmu/jfLsJ+19bn7wf6ly0cez9FcfRv+92AEWxk3WaqZySf01MQx/afCO7Cn2OiWt2fOzrkdhZyMvHwbMd8h7nl7M5TuPFmTju0UJY+qalLyy2A2eTnzdEsUv8UMxHPAqb25ls7I3qEOQV2eHtMa9+HtySJuPPoJz485Z2UU8TttN8HfNtMrZldX9v+s+OSq4nJVIcPnxY7e7ujuzXNFYHtgxsfD22RugHjezkwnVaC7F5YIAwA3TU8YeDtu14a3bGvs7/Xe9I03sK6Qfqo/OxnXKLSOEHlwKjbuDvB/ry4iP0WSG/6mDU39MedzcoivgFdd8vRw2+TuPW10N/NsyXTF+IeeC3Qho5KRLpQ1+2sGzzD3nPl1mNecGewF+5NAvweVCG8IV/LjjgWXw+KzvV+ot8/aI79KmM+9B1S9xcHsan0Tdi0pbsdXvMy76N6tASx1z8tX1N/Y70ibW/vgCJ7Av8IPOK05U+y7eJYf/U7xvuL0r2xHYP/W3zCX0W5123Vda162fMWUD5caVLk1skBfEo2F7ipXRvKX3p/S6f0Deyncvrlvq09yntvpZ+z1/Hcez9OcxXnzaft/i86sfQhzavyK6WPqKLiSg3ec/6LuxfY3/m7InzbEjT1DfpfPvyDQOzii5JHXWezj4x3xmMkcinyquJZX4Bn42dyLe3IYpvNk3s86G/ez/25cT3tKSx99j2mNaz6puF1CO2ufY3B2bKWE9KpBjbGRDb29tK2yQdfjDX7Y14dfYNd2iL6Ths3cMBrO8gWgbtUsc2q69MWdE3teU8SjEbHqisvQMiRctBTs0DciSM7LNTnyXucdqg7s6OOE3Z5z0XNk2dnZZ8Er7MZKBw4JSY2JTzLnFh3w8WHZn4Wf/UFrFpnS236T05X/d2Z+yJuYjtc38HZxH4e/xnc07QrF2u7RQmjLn61Ngxfink1ftBMzXc14XpYw5nub/ER5yn/Ls95nU7RZ4mXulkMLi/tMiJudAMJPlFPvF8NMVD2On4Stqp564TfcO61NIHdRT52PfrDObyjTmznIb21MtM6+uZDPqLDKem7KExK1rg5Opg7IvSzW5zQ58i/V3ia3DsC2Mk/S+vvZhWmlvo+rX3KWGZs/tGxjhqG8InudgEdRJpB23ItdPu/lx9Yrtcmn316breLf1Xzh7pM33dkCaps7sns4PIjh0n1HWf3G9b7e2sjUdD8are29A2Lcv1urSkGbIz/LxlPGtJ43yYjCPu/Yb6+/aenZ903PexCusxw/v6Z0fPc2Cm9x8ixSLhivIajWhSHKxnaDhR3TxAM7/6yWSwXUxvnUu/fal2qrPYY+ovtueJiWzroG07X5GHtl/k0+oHU15UdznJyX2ebn/0A2Noj/+G2No6JFLo2LtJX2CPGISSATm3WPAMxTaJfFpiVeRC5pOzN+QmqLsrd18cVdhpinlcL39yv2CnJeYtaXLx9EwEtsZ1iiZYMeun77lUPe9dV6k0r6GY5+Il4xlvndWx1PdEaUwc+7xSOzyDDa+ZeLzIfbPbxE7iO98GBYe5NCLeQSwqbSOOQ7e9XUzqc2lkfzJvWeWY13wc8+B9I0+k7+PY1cf1P11cm/odW9b/3979vEhyFXAAjx5EELyISAQ7yIiMkBkxoAwRWVZymCyECAGzBmbDqkGHICGsBAK6CIHELGFlAoHV4A82GdlkFjcuBXsK6MmLN5F49eyfIPKkqquqq6qru6ZnprdfV30Ow2xPVVe9eu9TNfu+897r2rUW9V6pn+Ne//S9U2nPsrM5uZ5TTS+ZYzC7zxvlz37W8NPW7ov9PsrbqnbcljotRoPVfkdM2rMoR60dyt8r9TpM26L5HCvbfM59UG/DNj/V50Xb9nG71c/Vtl9xnHrdVOu/+u+sXM22zOppct3j+pm8Tt+T/azRxq3HattnTj0VbdG8r6pWs/I3jjt1TU/azbAAABChSURBVHPOUW+LIoSZ3BcTB/U6HL+vzVe+X8NXva3mPXPG25rXPv38aitP87jH2afNcPopMIWd6jFzY7V7rLq9699tRuuWmu0x7/VMd2l7Z8/Otmuol7FZz9P/N5020bbPvHKm2zKTDRPN45x0n1m2mseb2q+817vrqev65m23YGbdnJBigQfyPFht2+IIKdp+MdQRtJXdz9QRAwzEZGD8H6Tl/gchputVFvcfAwwwsK4GxiHDVGd3iX0OVtbVSl7u7GNHHwvnv/vFCEbgx1GXvQop4pleMW7cKEKKLP3zH3sP7zgeONpBO5zMQP5XpcZfAU92LG2g3hhggAEGlmXgeKMy1P+y6n89j2vBzOl261VIEdsNbyHPaXCxtZHyaCMG4jZQDsM88bDZuK+PP+3DAAMM9MFAZYqG31dGAxg1c2oDQgqITo3IL9c+/HJ1DRwzwAADDDDAAAMMMMDA6g0IKYQUQgoGGGCAAQYYYIABBhhggAEGojDQq5AiijUgwI4CtgR09QmoNtAGDDDAAAMMMMAAAwwwsKgBIcUSQ4Wtra2wt7en077EOl4UvP09JBlggAEGGGCAAQYYYICBeA0IKZbYgTayI174HkrahgEGGGCAAQYYYIABBhiIz0CvQorYRi4IKeID7yGkTRhggAEGGGCAAQYYYICBeA30KqSIDZqQIl74sVlRHlYYYIABBhhggAEGGGCAgVEQUixxukdswH7xzidC+Ohj4T+//rx1MgbU7mfqcHsnvPn+j8IffvowQwwxwAADDDDAAAMMMMDAmRsQUgwI1VmEFOkx/vfXz4SftNbbF8Kf7j0QwkeVr398Ovy2ue/WZ8O/u/Zpvqfx+lsvPxM+vPd8uPv6NyY3xTI70F3HzrY/n5UpLVfxde833w6PNcp+pqFB67G/FH74xvfLMhRlmaqv1vd2pNdd9XCSY3rPxLC6UBcMMMAAAwwwwAADAzfQq5Bic3Mz7O7uQr1E1PNDimYHdxxa1EKNLz8Y/v636miOln2OUf4spLj7bLj9x6fDy+fz8y6zA9117K7tx7imZYQXX738ZPjz3UodnbYckV7nMurOMZv3s9dMMMAAAwwwwAADDCzfQK9CitjWgNjY2AhpmfoEebGQYhS+du1TIbSNpqh0lrN9/vnJ8JfvHR98FlLc/k547Y1nJ1MPltmB7jp21/bK9d5PD0KK45u6n+3iXNqFAQYYYIABBhhggIF2A0KKJXYeYwlNshCgnF7x8fCvnzcwlKMbHqxN15iMgGiZxjHveEWdZsd9IPz3zufmBjUnDymeCHvffCy8c/uJsJeesy0oyH42mX7xYW1UwVfC1d+l234QrlcCkvFUknzdhfT4lekb1akTHxbnnXXuoh7y75PAoDhveu7p9R2y/SrnbJsyUkx3KcpTm/ZSOe/knI02H43LcPf1R+tTQ6rXlB2nbepIs8zNferbi+upXUfRLlPney5c/yAJSfJWeGGzWWav/SJjgAEGGGCAAQYYYKDvBoQUlQ7dWTd2LCFFeV3ZWhCzQop0HYnKNIxs38rrvJ66R1LUA41J0DHrYXKK6R5ZBzftbOchQzOkyDvC1Q78eJpIdfpD3sHOO8vjDnW9k53VX/PYTTdd20ejUHTWq8FEszzjfaqhyThMqHbwm+8ZhzON9Tny8mXHqwUzRTtMgpKyfqbqq1437fXQsk8W7DTqsPaz/NxTAUVaNiFFeb82jXk9N+xUb8W97TsLDDDAAAMMMLDeBnoVUsQ2vWLdQoraiIdydEX9k0C6Q4r6DZHuH+ZM5ci2f9QSnHR0yLKOeiVYuJ0uUNkICqr7lA+qxj7jn487zXd/9Xh48/32zn7rKI1qGfMOfjGyofheBgBlSNHWeS9Cibwc1cVAi/cVQUNr+Ueh9Vqb762WNx9JUQ0/RuXoinwx0ixYKMqWt2vz/G37jMbBRf3YeUhz9+nw2i+fCfURLXUzZVvVymsf9cIAAwwwwAADDDDAwBAM9CqkiK3BolvIs2MkxTJCitGMsCNtq5MGFOl7a53ytOOcLqD5ZP3jMbN9KtMmiuCgOpKhNJN1tp8PzY51ub3ZOW92oLu2F4FBY2pJefzseJPRDZOy5lNVaiFFZfpK9fpaRiZ0jaSoX289JGl9b/M683qbKu+9trrMR13MrQO/eOom1If6YIABBhhggAEGGBiWASFFs7PZ59erCClmnPM0AUX6kKqFFPnr8UiIyUiF5j4zH25lx/vr2RoV1dEP5XvKfR5uH3LetX2BkKL1/IXLY5ynLHNxziLgKI6RfR8HEvNCilHbKInm+dv2qZ1n8kAt2uPHZ/2JIzPOV60H/560g7pQFwwwwAADDDDAAAMxG3jgoYfibqCLFy+Gw8PD9o6hzsli9TIjMBiPdmgscDljBMRii1zm61M0Pt3jtAFFekMVHd5swczUQdpZTj+S9P1JSDHuZM+YvlHaaXTWs0535Riz9it/nt8/zc57c3sRGHSMIsiua+4++WiE1uBh+l5uHQ2Rla1x3ZWflSFJdk2V+stf10eijI9TW0S089pb1rEo31OsSfFueOWpjcV8l8eYroeYH8LKpr0YYIABBhhggAEGGJgY6NVIiujWgIii01RfyDKUn8pRCSXaPoVjRkgxGjWPV1lPIj9O6zmKusiCknSRzumv7kU2J3CnQop8HYR6BzoPL6pTItJ/Fx38otNdvM7LOA4KKp3zouxZgFGZalGdXnFGIUX6cCrOX51CUR/xUEybqJTlXrW87dvT45UBxHHWpEivu3bN6foUaSjRDHHyoKJWz5N9iuuZnLv4JJZKWxR1PBqF565/EJIkCe++8lTYqPzcg3viX12oCwYYYIABBhhggIG+GhBSLLETtLW1Ffb29vw1eIl13Ncbc9DX9dz18IGQwnPDc4MBBhhggAEGGGBgkAaEFEuEb2SHdHPQYcOJ7q3Hw89+fzckyVvhhU1++GGAAQYYYIABBhhgYGgGehVSxDZyQUjhgTK0B8qprjcfQZG8+0p4aoOdU9XliQIida7OGWCAAQYYYIABBlZvoFchRWyghBSrBx6bCeVhggEGGGCAAQYYYIABBhiYbUBI4S+Og5zn5KEw+6GgbtQNAwwwwAADDDDAAAMMrMqAkEJIIaRggAEGGGCAAQYYYIABBhhgIAoDvQopNjc3w+7ubhQVu6rUyXklngwwwAADDDDAAAMMMMAAA+tqoFchhTUg3IjreiMqN7sMMMAAAwwwwAADDDDAwCgIKQzpMfKEAQYYYIABBhhggAEGGGCAgSgMCClAjAKixFBqzAADDDDAAAMMMMAAAwww0KuQYmNjI6RTPlYOe/tSuHYrCUmShDs3roTzgpDVt4k20AYMMMAAAwwwwAADDDDAQPQGehVSrDycaIJ/9KXwdnIn3LhyPnoI0dVdsy69ZogBBhhggAEGGGCAAQYY6L0BIcVSkW+HS9duhfdevdh7SEIOw7IYYIABBhhggAEGGGCAAQZOa0BIIaQQoCzVgIfUaR9S3s8QAwwwwAADDDDAAAPDMdCrkCK+jyDtHknx6EtvZ2tXGG0xnJvOA1ZbM8AAAwwwwAADDDDAAAPtBoQUS/4rehZCvPdquDjjPEKKdphuWPXCAAMMMMAAAwwwwAADDAzPgJBiRnhwpjdDtoCmT/o40zq9H+3mHKYCMcAAAwwwwAADDDDAAAP31UCvQoqtra2wt7d3Xyuwq+PdNZKi6/22Dy851ObanAEGGGCAAQYYYIABBoZqoFchRXyN2L0mRXxl9jDQJgwwwAADDDDAAAMMMMAAA6sxIKRY6tCd7pCiWJPizo0r4fxSy7IaYG5s9c4AAwwwwAADDDDAAAMMMHBcA0KKpQYD3SHFKF+vIrlzI1w5D+5x4dqPFQYYYIABBhhggAEGGGCgfwZ6FVJsbm6G3d3diNakOEZIMXo0vPR2EoQU/bu5PDC1KQMMMMAAAwwwwAADDDCwmIFehRSPPPJIePHFF+MJKbJREnfCjSvnZ5Zp+9K1cCtJwnuvXpy5D9SLoVZf6osBBhhggAEGGGCAAQYYWE8DQoplTPfYvhSu3UpCMjd8yEdQJPNDDDfWet5Y2k27McAAAwwwwAADDDDAAAOLGxBSLCOkcEyjQhhggAEGGGCAAQYYYIABBhhY2ECvQoqNjY2QTvmQVi2eVqkzdcYAAwwwwAADDDDAAAMMMLBqA70KKVZdmc7vhmaAAQYYYIABBhhggAEGGGDg5AbWJqQ4d+5cqH5tb28bMWHoEAMMMMAAAwwwwAADDDDAAAM9MrA2IcXh4WGofl2+fBnEHkGUNJ48aVR36o4BBhhggAEGGGCAAQb6YiD6kCIdPZGGE32pcNfh4cEAAwwwwAADDDDAAAMMMMBAuwEhhdEIAiAGGGCAAQYYYIABBhhggAEGojAgpAAxCohSxPYUUb2oFwYYYIABBhhggAEGGBiSgZ6EFDth/+AoJEkSkqODsL8D8ZAQu1beGWCAAQYYYIABBhhggIF+GOhJSFE0xoVw9WYSjg72w44REkZIMMAAAwwwwAADDDDAAAMMMLBWBnoWUozCzv5BOLp5NVwAca0gSj2LoM13FhhggAEGGGCAAQYYYGC4BoQUwgxhBgMMMMAAAwwwwAADDDDAAANRGBheSHHhariZrl1htEUUACWkw01Itb22Z4ABBhhggAEGGGCAgaaB3oUUoyyEuBmuXpjR2EIK4YSElAEGGGCAAQYYYIABBhhgIEoD/QspMmjjBTR90seMoMbNGOXN2EwQveaXAQYYYIABBhhggAEGhmagfyFF10gKHXQddAYYYIABBhhggAEGGGCAAQaiNNC7kMKne0gah5Y0ul7mGWCAAQYYYIABBhhgoC8GhhdSFGtSHB2E/R2Q+wLZdbDMAAMMMMAAAwwwwAADDKy/geGFFKN8vYrkKBzs70Q5vMWNtf43ljbUhgwwwAADDDDAAAMMMMDA4gYGGFKMwoWrN0MipBDQmIPGAAMMMMAAAwwwwAADDDAQlYGehRTjURJHB/thZxa0nf1wcJSE5ObVcGHWPn4eFVLp4+LpozpTZwwwwAADDDDAAAMMMLCOBnoSUuyE/YOjkCTzw4fxCIokzA0xBBQCCgYYYIABBhhggAEGGGCAAQZWYqAnIYWEbB0TMmXmlgEGGGCAAQYYYIABBhhgoGpASCEdW0k6VkXo3x5KDDDAAAMMMMAAAwwwwAADqYG1CSnOnTsXql/b29s61wIWBhhggAEGGGCAAQYYYIABBnpkYG1CisPDw1D9unz5Mog9gig1lZoywAADDDDAAAMMMMAAAwxEH1JACikDDDDAAAMMMMAAAwwwwAADwzAgpDAawYgUBhhggAEGGGCAAQYYYIABBqIwIKQAMQqIUtFhpKLaWTszwAADDDDAAAMMMMDAPANCCiGFkIIBBhhggAEGGGCAAQYYYICBKAwIKUCMAuK8JM02SSsDDDDAAAMMMMAAAwwwMAwDQgohhZCCAQYYYIABBhhggAEGGGCAgSgMCClAjAKiVHQYqah21s4MMMAAAwwwwAADDDAwz4CQQkghpGCAAQYYYIABBhhggAEGGGAgCgNCChCjgDgvSbNN0soAAwwwwAADDDDAAAMMDMOAkEJIIaRggAEGGGCAAQYYYIABBhhgIAoDQgoQo4AoFR1GKqqdtTMDDDDAAAMMMMAAAwzMM/B/QT8Afui3YZoAAAAASUVORK5CYII=;" parent="PRGtmp1JzX0yJuuBO5fG-1" vertex="1">
                    <mxGeometry x="1110" y="66" width="1065" height="388" as="geometry"/>
                </mxCell>
                <mxCell id="PRGtmp1JzX0yJuuBO5fG-8" value="Add" style="shape=step;perimeter=stepPerimeter;whiteSpace=wrap;html=1;fixedSize=1;" parent="PRGtmp1JzX0yJuuBO5fG-1" vertex="1">
                    <mxGeometry x="137.5" y="710" width="120" height="80" as="geometry"/>
                </mxCell>
                <mxCell id="PRGtmp1JzX0yJuuBO5fG-9" value="AddUninitialized" style="shape=step;perimeter=stepPerimeter;whiteSpace=wrap;html=1;fixedSize=1;" parent="PRGtmp1JzX0yJuuBO5fG-1" vertex="1">
                    <mxGeometry x="352.5" y="720" width="120" height="80" as="geometry"/>
                </mxCell>
                <mxCell id="PRGtmp1JzX0yJuuBO5fG-10" value="&lt;div&gt;为数组中的元素分配空间。元素没有初始化，必须使用相应的放置new操作符&lt;/div&gt;&lt;div&gt;&lt;br&gt;&lt;/div&gt;&lt;div&gt;在已分配内存中构造元素。&lt;/div&gt;" style="text;html=1;align=center;verticalAlign=middle;resizable=0;points=[];autosize=1;strokeColor=none;fillColor=none;" parent="PRGtmp1JzX0yJuuBO5fG-1" vertex="1">
                    <mxGeometry x="212.5" y="650" width="420" height="50" as="geometry"/>
                </mxCell>
                <mxCell id="PRGtmp1JzX0yJuuBO5fG-11" value="判断有没有剩余位置" style="text;html=1;align=center;verticalAlign=middle;resizable=0;points=[];autosize=1;strokeColor=none;fillColor=none;" parent="PRGtmp1JzX0yJuuBO5fG-1" vertex="1">
                    <mxGeometry x="282.5" y="820" width="120" height="20" as="geometry"/>
                </mxCell>
                <mxCell id="PRGtmp1JzX0yJuuBO5fG-12" value="通过一个简单的链表去找空余的位置" style="text;html=1;align=center;verticalAlign=middle;resizable=0;points=[];autosize=1;strokeColor=none;fillColor=none;" parent="PRGtmp1JzX0yJuuBO5fG-1" vertex="1">
                    <mxGeometry x="247.5" y="840" width="210" height="20" as="geometry"/>
                </mxCell>
                <mxCell id="PRGtmp1JzX0yJuuBO5fG-14" value="没有空余的就创建一个新的" style="text;html=1;align=center;verticalAlign=middle;resizable=0;points=[];autosize=1;strokeColor=none;fillColor=none;" parent="PRGtmp1JzX0yJuuBO5fG-1" vertex="1">
                    <mxGeometry x="252.5" y="880" width="160" height="20" as="geometry"/>
                </mxCell>
                <mxCell id="PRGtmp1JzX0yJuuBO5fG-15" value="标记初始化" style="text;html=1;align=center;verticalAlign=middle;resizable=0;points=[];autosize=1;strokeColor=none;fillColor=none;" parent="PRGtmp1JzX0yJuuBO5fG-1" vertex="1">
                    <mxGeometry x="292.5" y="900" width="80" height="20" as="geometry"/>
                </mxCell>
                <mxCell id="PRGtmp1JzX0yJuuBO5fG-16" value="AllocateIndex" style="shape=step;perimeter=stepPerimeter;whiteSpace=wrap;html=1;fixedSize=1;" parent="PRGtmp1JzX0yJuuBO5fG-1" vertex="1">
                    <mxGeometry x="532.5" y="730" width="120" height="80" as="geometry"/>
                </mxCell>
                <mxCell id="PRGtmp1JzX0yJuuBO5fG-17" value="将索引标记为已分配，并返回有关分配的信息。" style="text;html=1;align=center;verticalAlign=middle;resizable=0;points=[];autosize=1;strokeColor=none;fillColor=none;" parent="PRGtmp1JzX0yJuuBO5fG-1" vertex="1">
                    <mxGeometry x="532.5" y="690" width="270" height="20" as="geometry"/>
                </mxCell>
                <mxCell id="PRGtmp1JzX0yJuuBO5fG-18" value="GetData" style="shape=step;perimeter=stepPerimeter;whiteSpace=wrap;html=1;fixedSize=1;" parent="PRGtmp1JzX0yJuuBO5fG-1" vertex="1">
                    <mxGeometry x="100" y="220" width="120" height="80" as="geometry"/>
                </mxCell>
                <mxCell id="PRGtmp1JzX0yJuuBO5fG-19" value="获取位置&lt;br&gt;" style="text;html=1;align=center;verticalAlign=middle;resizable=0;points=[];autosize=1;strokeColor=none;fillColor=none;" parent="PRGtmp1JzX0yJuuBO5fG-1" vertex="1">
                    <mxGeometry x="120" y="180" width="60" height="20" as="geometry"/>
                </mxCell>
                <mxCell id="PRGtmp1JzX0yJuuBO5fG-20" value="RemoveAt" style="shape=step;perimeter=stepPerimeter;whiteSpace=wrap;html=1;fixedSize=1;" parent="PRGtmp1JzX0yJuuBO5fG-1" vertex="1">
                    <mxGeometry x="145" y="990" width="120" height="80" as="geometry"/>
                </mxCell>
                <mxCell id="PRGtmp1JzX0yJuuBO5fG-21" value="RemoveAtUninitialized" style="shape=step;perimeter=stepPerimeter;whiteSpace=wrap;html=1;fixedSize=1;" parent="PRGtmp1JzX0yJuuBO5fG-1" vertex="1">
                    <mxGeometry x="315" y="1000" width="120" height="80" as="geometry"/>
                </mxCell>
                <mxCell id="PRGtmp1JzX0yJuuBO5fG-22" value="移除元素 只调用析构函数" style="text;html=1;align=center;verticalAlign=middle;resizable=0;points=[];autosize=1;strokeColor=none;fillColor=none;" parent="PRGtmp1JzX0yJuuBO5fG-1" vertex="1">
                    <mxGeometry x="100" y="1100" width="150" height="20" as="geometry"/>
                </mxCell>
                <mxCell id="PRGtmp1JzX0yJuuBO5fG-23" value="标记未分配，并形成链状" style="text;html=1;align=center;verticalAlign=middle;resizable=0;points=[];autosize=1;strokeColor=none;fillColor=none;" parent="PRGtmp1JzX0yJuuBO5fG-1" vertex="1">
                    <mxGeometry x="300" y="1100" width="150" height="20" as="geometry"/>
                </mxCell>
                <mxCell id="lZAB32ZSX20O8viDxf8F-0" value="TSparseArray" style="swimlane;fontStyle=1;align=center;verticalAlign=top;childLayout=stackLayout;horizontal=1;startSize=26;horizontalStack=0;resizeParent=1;resizeParentMax=0;resizeLast=0;collapsible=1;marginBottom=0;" parent="PRGtmp1JzX0yJuuBO5fG-1" vertex="1">
                    <mxGeometry x="460" y="380" width="510" height="200" as="geometry"/>
                </mxCell>
                <mxCell id="lZAB32ZSX20O8viDxf8F-1" value="typedef TArray&lt;FElementOrFreeListLink,typename Allocator::ElementAllocator&gt; DataType;&#10;&#9;DataType Data;" style="text;strokeColor=none;fillColor=none;align=left;verticalAlign=top;spacingLeft=4;spacingRight=4;overflow=hidden;rotatable=0;points=[[0,0.5],[1,0.5]];portConstraint=eastwest;" parent="lZAB32ZSX20O8viDxf8F-0" vertex="1">
                    <mxGeometry y="26" width="510" height="44" as="geometry"/>
                </mxCell>
                <mxCell id="lZAB32ZSX20O8viDxf8F-4" value="typedef TBitArray&lt;typename Allocator::BitArrayAllocator&gt; AllocationBitArrayType;&#10;&#9;AllocationBitArrayType AllocationFlags;" style="text;strokeColor=none;fillColor=none;align=left;verticalAlign=top;spacingLeft=4;spacingRight=4;overflow=hidden;rotatable=0;points=[[0,0.5],[1,0.5]];portConstraint=eastwest;" parent="lZAB32ZSX20O8viDxf8F-0" vertex="1">
                    <mxGeometry y="70" width="510" height="44" as="geometry"/>
                </mxCell>
                <mxCell id="lZAB32ZSX20O8viDxf8F-6" value="int32 FirstFreeIndex;" style="text;strokeColor=none;fillColor=none;align=left;verticalAlign=top;spacingLeft=4;spacingRight=4;overflow=hidden;rotatable=0;points=[[0,0.5],[1,0.5]];portConstraint=eastwest;" parent="lZAB32ZSX20O8viDxf8F-0" vertex="1">
                    <mxGeometry y="114" width="510" height="26" as="geometry"/>
                </mxCell>
                <mxCell id="lZAB32ZSX20O8viDxf8F-3" value="int32 NumFreeIndices;" style="text;strokeColor=none;fillColor=none;align=left;verticalAlign=top;spacingLeft=4;spacingRight=4;overflow=hidden;rotatable=0;points=[[0,0.5],[1,0.5]];portConstraint=eastwest;" parent="lZAB32ZSX20O8viDxf8F-0" vertex="1">
                    <mxGeometry y="140" width="510" height="26" as="geometry"/>
                </mxCell>
                <mxCell id="lZAB32ZSX20O8viDxf8F-2" value="" style="line;strokeWidth=1;fillColor=none;align=left;verticalAlign=middle;spacingTop=-1;spacingLeft=3;spacingRight=3;rotatable=0;labelPosition=right;points=[];portConstraint=eastwest;" parent="lZAB32ZSX20O8viDxf8F-0" vertex="1">
                    <mxGeometry y="166" width="510" height="8" as="geometry"/>
                </mxCell>
                <mxCell id="lZAB32ZSX20O8viDxf8F-5" value="+ method(type): type" style="text;strokeColor=none;fillColor=none;align=left;verticalAlign=top;spacingLeft=4;spacingRight=4;overflow=hidden;rotatable=0;points=[[0,0.5],[1,0.5]];portConstraint=eastwest;" parent="lZAB32ZSX20O8viDxf8F-0" vertex="1">
                    <mxGeometry y="174" width="510" height="26" as="geometry"/>
                </mxCell>
                <mxCell id="lZAB32ZSX20O8viDxf8F-7" value="第一个空位" style="text;html=1;align=center;verticalAlign=middle;resizable=0;points=[];autosize=1;strokeColor=none;fillColor=none;" parent="PRGtmp1JzX0yJuuBO5fG-1" vertex="1">
                    <mxGeometry x="310" y="500" width="80" height="20" as="geometry"/>
                </mxCell>
                <mxCell id="lZAB32ZSX20O8viDxf8F-8" value="一共有多少个空位" style="text;html=1;align=center;verticalAlign=middle;resizable=0;points=[];autosize=1;strokeColor=none;fillColor=none;" parent="PRGtmp1JzX0yJuuBO5fG-1" vertex="1">
                    <mxGeometry x="340" y="530" width="110" height="20" as="geometry"/>
                </mxCell>
                <mxCell id="lZAB32ZSX20O8viDxf8F-9" value="TSparseArrayElementOrFreeListLink" style="swimlane;fontStyle=1;align=center;verticalAlign=top;childLayout=stackLayout;horizontal=1;startSize=26;horizontalStack=0;resizeParent=1;resizeParentMax=0;resizeLast=0;collapsible=1;marginBottom=0;" parent="PRGtmp1JzX0yJuuBO5fG-1" vertex="1">
                    <mxGeometry x="680" y="130" width="310" height="86" as="geometry"/>
                </mxCell>
                <mxCell id="lZAB32ZSX20O8viDxf8F-10" value="+ field: type" style="text;strokeColor=none;fillColor=none;align=left;verticalAlign=top;spacingLeft=4;spacingRight=4;overflow=hidden;rotatable=0;points=[[0,0.5],[1,0.5]];portConstraint=eastwest;" parent="lZAB32ZSX20O8viDxf8F-9" vertex="1">
                    <mxGeometry y="26" width="310" height="26" as="geometry"/>
                </mxCell>
                <mxCell id="lZAB32ZSX20O8viDxf8F-11" value="" style="line;strokeWidth=1;fillColor=none;align=left;verticalAlign=middle;spacingTop=-1;spacingLeft=3;spacingRight=3;rotatable=0;labelPosition=right;points=[];portConstraint=eastwest;" parent="lZAB32ZSX20O8viDxf8F-9" vertex="1">
                    <mxGeometry y="52" width="310" height="8" as="geometry"/>
                </mxCell>
                <mxCell id="lZAB32ZSX20O8viDxf8F-12" value="+ method(type): type" style="text;strokeColor=none;fillColor=none;align=left;verticalAlign=top;spacingLeft=4;spacingRight=4;overflow=hidden;rotatable=0;points=[[0,0.5],[1,0.5]];portConstraint=eastwest;" parent="lZAB32ZSX20O8viDxf8F-9" vertex="1">
                    <mxGeometry y="60" width="310" height="26" as="geometry"/>
                </mxCell>
                <mxCell id="lZAB32ZSX20O8viDxf8F-13" value="&lt;span style=&quot;color: rgb(18 , 18 , 18) ; font-family: , &amp;#34;blinkmacsystemfont&amp;#34; , &amp;#34;helvetica neue&amp;#34; , &amp;#34;pingfang sc&amp;#34; , &amp;#34;microsoft yahei&amp;#34; , &amp;#34;source han sans sc&amp;#34; , &amp;#34;noto sans cjk sc&amp;#34; , &amp;#34;wenquanyi micro hei&amp;#34; , sans-serif ; font-size: medium ; background-color: rgb(255 , 255 , 255)&quot;&gt;在分配的时候，这个元素就是元素本身，&lt;br&gt;而没有分配的时候，这个元素就变成了一个结构体，&lt;br&gt;结构体是前一个和后一个空索引，这不就是一个链表结构吗&lt;/span&gt;" style="text;html=1;align=center;verticalAlign=middle;resizable=0;points=[];autosize=1;strokeColor=none;fillColor=none;" parent="PRGtmp1JzX0yJuuBO5fG-1" vertex="1">
                    <mxGeometry x="650" y="75" width="430" height="50" as="geometry"/>
                </mxCell>
                <mxCell id="lZAB32ZSX20O8viDxf8F-14" value="是否被分配" style="text;html=1;align=center;verticalAlign=middle;resizable=0;points=[];autosize=1;strokeColor=none;fillColor=none;" parent="PRGtmp1JzX0yJuuBO5fG-1" vertex="1">
                    <mxGeometry x="370" y="470" width="80" height="20" as="geometry"/>
                </mxCell>
                <mxCell id="lZAB32ZSX20O8viDxf8F-15" value="当被标记就是使用元素，没有就使用结构体&lt;br&gt;表示链表中的节点" style="text;html=1;align=center;verticalAlign=middle;resizable=0;points=[];autosize=1;strokeColor=none;fillColor=none;" parent="PRGtmp1JzX0yJuuBO5fG-1" vertex="1">
                    <mxGeometry x="220" y="415" width="240" height="30" as="geometry"/>
                </mxCell>
                <mxCell id="lZAB32ZSX20O8viDxf8F-16" value="相当于链头" style="text;html=1;align=center;verticalAlign=middle;resizable=0;points=[];autosize=1;strokeColor=none;fillColor=none;" parent="PRGtmp1JzX0yJuuBO5fG-1" vertex="1">
                    <mxGeometry x="380" y="500" width="80" height="20" as="geometry"/>
                </mxCell>
                <mxCell id="lZAB32ZSX20O8viDxf8F-17" value="&lt;div&gt;&lt;span&gt;&#9;&lt;/span&gt;typedef TSparseArrayElementOrFreeListLink&amp;lt;&lt;/div&gt;&lt;div&gt;&lt;span&gt;&#9;&#9;&lt;/span&gt;TAlignedBytes&amp;lt;sizeof(ElementType), alignof(ElementType)&amp;gt;&lt;/div&gt;&lt;div&gt;&lt;span&gt;&#9;&#9;&lt;/span&gt;&amp;gt; FElementOrFreeListLink;&lt;/div&gt;" style="text;html=1;align=center;verticalAlign=middle;resizable=0;points=[];autosize=1;strokeColor=none;fillColor=none;" parent="PRGtmp1JzX0yJuuBO5fG-1" vertex="1">
                    <mxGeometry x="630" y="260" width="340" height="50" as="geometry"/>
                </mxCell>
                <mxCell id="lZAB32ZSX20O8viDxf8F-18" value="从链头插入" style="text;html=1;align=center;verticalAlign=middle;resizable=0;points=[];autosize=1;strokeColor=none;fillColor=none;" parent="PRGtmp1JzX0yJuuBO5fG-1" vertex="1">
                    <mxGeometry x="472.5" y="1100" width="80" height="20" as="geometry"/>
                </mxCell>
            </root>
        </mxGraphModel>
    </diagram>
    <diagram id="X9rzrP645WGhMujLA_7q" name="Set 和 Map">
        <mxGraphModel dx="937" dy="776" grid="1" gridSize="10" guides="1" tooltips="1" connect="1" arrows="1" fold="1" page="1" pageScale="1" pageWidth="827" pageHeight="1169" math="0" shadow="0">
            <root>
                <mxCell id="D0d5PBvJCMut8AnMBSer-0"/>
                <mxCell id="D0d5PBvJCMut8AnMBSer-1" parent="D0d5PBvJCMut8AnMBSer-0"/>
                <mxCell id="b8kOa5jIIpnnM0d8-yyg-0" value="TSet" style="swimlane;fontStyle=1;align=center;verticalAlign=top;childLayout=stackLayout;horizontal=1;startSize=26;horizontalStack=0;resizeParent=1;resizeParentMax=0;resizeLast=0;collapsible=1;marginBottom=0;" parent="D0d5PBvJCMut8AnMBSer-1" vertex="1">
                    <mxGeometry x="430" y="440" width="680" height="156" as="geometry"/>
                </mxCell>
                <mxCell id="b8kOa5jIIpnnM0d8-yyg-1" value="typedef TSparseArray&lt;SetElementType,typename Allocator::SparseArrayAllocator&gt;     ElementArrayType;&#10;&#9;ElementArrayType Elements;" style="text;strokeColor=none;fillColor=none;align=left;verticalAlign=top;spacingLeft=4;spacingRight=4;overflow=hidden;rotatable=0;points=[[0,0.5],[1,0.5]];portConstraint=eastwest;" parent="b8kOa5jIIpnnM0d8-yyg-0" vertex="1">
                    <mxGeometry y="26" width="680" height="44" as="geometry"/>
                </mxCell>
                <mxCell id="b8kOa5jIIpnnM0d8-yyg-5" value="mutable HashType Hash;" style="text;strokeColor=none;fillColor=none;align=left;verticalAlign=top;spacingLeft=4;spacingRight=4;overflow=hidden;rotatable=0;points=[[0,0.5],[1,0.5]];portConstraint=eastwest;" parent="b8kOa5jIIpnnM0d8-yyg-0" vertex="1">
                    <mxGeometry y="70" width="680" height="26" as="geometry"/>
                </mxCell>
                <mxCell id="b8kOa5jIIpnnM0d8-yyg-4" value="mutable int32&#9; HashSize;" style="text;strokeColor=none;fillColor=none;align=left;verticalAlign=top;spacingLeft=4;spacingRight=4;overflow=hidden;rotatable=0;points=[[0,0.5],[1,0.5]];portConstraint=eastwest;" parent="b8kOa5jIIpnnM0d8-yyg-0" vertex="1">
                    <mxGeometry y="96" width="680" height="26" as="geometry"/>
                </mxCell>
                <mxCell id="b8kOa5jIIpnnM0d8-yyg-2" value="" style="line;strokeWidth=1;fillColor=none;align=left;verticalAlign=middle;spacingTop=-1;spacingLeft=3;spacingRight=3;rotatable=0;labelPosition=right;points=[];portConstraint=eastwest;" parent="b8kOa5jIIpnnM0d8-yyg-0" vertex="1">
                    <mxGeometry y="122" width="680" height="8" as="geometry"/>
                </mxCell>
                <mxCell id="b8kOa5jIIpnnM0d8-yyg-3" value="+ method(type): type" style="text;strokeColor=none;fillColor=none;align=left;verticalAlign=top;spacingLeft=4;spacingRight=4;overflow=hidden;rotatable=0;points=[[0,0.5],[1,0.5]];portConstraint=eastwest;" parent="b8kOa5jIIpnnM0d8-yyg-0" vertex="1">
                    <mxGeometry y="130" width="680" height="26" as="geometry"/>
                </mxCell>
                <mxCell id="b8kOa5jIIpnnM0d8-yyg-6" value="typedef TSetElement&amp;lt;InElementType&amp;gt; SetElementType;" style="text;html=1;align=center;verticalAlign=middle;resizable=0;points=[];autosize=1;strokeColor=none;fillColor=none;" parent="D0d5PBvJCMut8AnMBSer-1" vertex="1">
                    <mxGeometry x="500" y="390" width="320" height="20" as="geometry"/>
                </mxCell>
                <mxCell id="b8kOa5jIIpnnM0d8-yyg-7" value="TSetElement" style="swimlane;fontStyle=1;align=center;verticalAlign=top;childLayout=stackLayout;horizontal=1;startSize=26;horizontalStack=0;resizeParent=1;resizeParentMax=0;resizeLast=0;collapsible=1;marginBottom=0;" parent="D0d5PBvJCMut8AnMBSer-1" vertex="1">
                    <mxGeometry x="650" y="260" width="160" height="86" as="geometry"/>
                </mxCell>
                <mxCell id="b8kOa5jIIpnnM0d8-yyg-8" value="+ field: type" style="text;strokeColor=none;fillColor=none;align=left;verticalAlign=top;spacingLeft=4;spacingRight=4;overflow=hidden;rotatable=0;points=[[0,0.5],[1,0.5]];portConstraint=eastwest;" parent="b8kOa5jIIpnnM0d8-yyg-7" vertex="1">
                    <mxGeometry y="26" width="160" height="26" as="geometry"/>
                </mxCell>
                <mxCell id="b8kOa5jIIpnnM0d8-yyg-9" value="" style="line;strokeWidth=1;fillColor=none;align=left;verticalAlign=middle;spacingTop=-1;spacingLeft=3;spacingRight=3;rotatable=0;labelPosition=right;points=[];portConstraint=eastwest;" parent="b8kOa5jIIpnnM0d8-yyg-7" vertex="1">
                    <mxGeometry y="52" width="160" height="8" as="geometry"/>
                </mxCell>
                <mxCell id="b8kOa5jIIpnnM0d8-yyg-10" value="+ method(type): type" style="text;strokeColor=none;fillColor=none;align=left;verticalAlign=top;spacingLeft=4;spacingRight=4;overflow=hidden;rotatable=0;points=[[0,0.5],[1,0.5]];portConstraint=eastwest;" parent="b8kOa5jIIpnnM0d8-yyg-7" vertex="1">
                    <mxGeometry y="60" width="160" height="26" as="geometry"/>
                </mxCell>
                <mxCell id="b8kOa5jIIpnnM0d8-yyg-11" value="TSetElementBase" style="swimlane;fontStyle=1;align=center;verticalAlign=top;childLayout=stackLayout;horizontal=1;startSize=26;horizontalStack=0;resizeParent=1;resizeParentMax=0;resizeLast=0;collapsible=1;marginBottom=0;" parent="D0d5PBvJCMut8AnMBSer-1" vertex="1">
                    <mxGeometry x="630" y="100" width="250" height="138" as="geometry"/>
                </mxCell>
                <mxCell id="b8kOa5jIIpnnM0d8-yyg-15" value="ElementType Value;" style="text;strokeColor=none;fillColor=none;align=left;verticalAlign=top;spacingLeft=4;spacingRight=4;overflow=hidden;rotatable=0;points=[[0,0.5],[1,0.5]];portConstraint=eastwest;" parent="b8kOa5jIIpnnM0d8-yyg-11" vertex="1">
                    <mxGeometry y="26" width="250" height="26" as="geometry"/>
                </mxCell>
                <mxCell id="b8kOa5jIIpnnM0d8-yyg-16" value="mutable FSetElementId HashNextId;" style="text;strokeColor=none;fillColor=none;align=left;verticalAlign=top;spacingLeft=4;spacingRight=4;overflow=hidden;rotatable=0;points=[[0,0.5],[1,0.5]];portConstraint=eastwest;" parent="b8kOa5jIIpnnM0d8-yyg-11" vertex="1">
                    <mxGeometry y="52" width="250" height="26" as="geometry"/>
                </mxCell>
                <mxCell id="b8kOa5jIIpnnM0d8-yyg-12" value="mutable int32 HashIndex;" style="text;strokeColor=none;fillColor=none;align=left;verticalAlign=top;spacingLeft=4;spacingRight=4;overflow=hidden;rotatable=0;points=[[0,0.5],[1,0.5]];portConstraint=eastwest;" parent="b8kOa5jIIpnnM0d8-yyg-11" vertex="1">
                    <mxGeometry y="78" width="250" height="26" as="geometry"/>
                </mxCell>
                <mxCell id="b8kOa5jIIpnnM0d8-yyg-13" value="" style="line;strokeWidth=1;fillColor=none;align=left;verticalAlign=middle;spacingTop=-1;spacingLeft=3;spacingRight=3;rotatable=0;labelPosition=right;points=[];portConstraint=eastwest;" parent="b8kOa5jIIpnnM0d8-yyg-11" vertex="1">
                    <mxGeometry y="104" width="250" height="8" as="geometry"/>
                </mxCell>
                <mxCell id="b8kOa5jIIpnnM0d8-yyg-14" value="+ method(type): type" style="text;strokeColor=none;fillColor=none;align=left;verticalAlign=top;spacingLeft=4;spacingRight=4;overflow=hidden;rotatable=0;points=[[0,0.5],[1,0.5]];portConstraint=eastwest;" parent="b8kOa5jIIpnnM0d8-yyg-11" vertex="1">
                    <mxGeometry y="112" width="250" height="26" as="geometry"/>
                </mxCell>
                <mxCell id="b8kOa5jIIpnnM0d8-yyg-17" value="冲突时下一个元素在散列中的下标" style="text;html=1;align=center;verticalAlign=middle;resizable=0;points=[];autosize=1;strokeColor=none;fillColor=none;" parent="D0d5PBvJCMut8AnMBSer-1" vertex="1">
                    <mxGeometry x="416" y="160" width="200" height="20" as="geometry"/>
                </mxCell>
                <mxCell id="b8kOa5jIIpnnM0d8-yyg-18" value="自己的id" style="text;html=1;align=center;verticalAlign=middle;resizable=0;points=[];autosize=1;strokeColor=none;fillColor=none;" parent="D0d5PBvJCMut8AnMBSer-1" vertex="1">
                    <mxGeometry x="550" y="186" width="60" height="20" as="geometry"/>
                </mxCell>
                <mxCell id="b8kOa5jIIpnnM0d8-yyg-19" value="FSetElementId" style="swimlane;fontStyle=1;align=center;verticalAlign=top;childLayout=stackLayout;horizontal=1;startSize=26;horizontalStack=0;resizeParent=1;resizeParentMax=0;resizeLast=0;collapsible=1;marginBottom=0;" parent="D0d5PBvJCMut8AnMBSer-1" vertex="1">
                    <mxGeometry x="1040" y="114" width="160" height="86" as="geometry"/>
                </mxCell>
                <mxCell id="b8kOa5jIIpnnM0d8-yyg-20" value="int32 Index;" style="text;strokeColor=none;fillColor=none;align=left;verticalAlign=top;spacingLeft=4;spacingRight=4;overflow=hidden;rotatable=0;points=[[0,0.5],[1,0.5]];portConstraint=eastwest;" parent="b8kOa5jIIpnnM0d8-yyg-19" vertex="1">
                    <mxGeometry y="26" width="160" height="26" as="geometry"/>
                </mxCell>
                <mxCell id="b8kOa5jIIpnnM0d8-yyg-21" value="" style="line;strokeWidth=1;fillColor=none;align=left;verticalAlign=middle;spacingTop=-1;spacingLeft=3;spacingRight=3;rotatable=0;labelPosition=right;points=[];portConstraint=eastwest;" parent="b8kOa5jIIpnnM0d8-yyg-19" vertex="1">
                    <mxGeometry y="52" width="160" height="8" as="geometry"/>
                </mxCell>
                <mxCell id="b8kOa5jIIpnnM0d8-yyg-22" value="+ method(type): type" style="text;strokeColor=none;fillColor=none;align=left;verticalAlign=top;spacingLeft=4;spacingRight=4;overflow=hidden;rotatable=0;points=[[0,0.5],[1,0.5]];portConstraint=eastwest;" parent="b8kOa5jIIpnnM0d8-yyg-19" vertex="1">
                    <mxGeometry y="60" width="160" height="26" as="geometry"/>
                </mxCell>
                <mxCell id="b8kOa5jIIpnnM0d8-yyg-23" value="FindId" style="shape=step;perimeter=stepPerimeter;whiteSpace=wrap;html=1;fixedSize=1;" parent="D0d5PBvJCMut8AnMBSer-1" vertex="1">
                    <mxGeometry x="770" y="800" width="120" height="80" as="geometry"/>
                </mxCell>
                <mxCell id="b8kOa5jIIpnnM0d8-yyg-24" value="查找" style="text;html=1;align=center;verticalAlign=middle;resizable=0;points=[];autosize=1;strokeColor=none;fillColor=none;" parent="D0d5PBvJCMut8AnMBSer-1" vertex="1">
                    <mxGeometry x="770" y="760" width="40" height="20" as="geometry"/>
                </mxCell>
                <mxCell id="b8kOa5jIIpnnM0d8-yyg-25" value="EmplaceImpl" style="shape=step;perimeter=stepPerimeter;whiteSpace=wrap;html=1;fixedSize=1;" parent="D0d5PBvJCMut8AnMBSer-1" vertex="1">
                    <mxGeometry x="700" y="940" width="120" height="80" as="geometry"/>
                </mxCell>
                <mxCell id="b8kOa5jIIpnnM0d8-yyg-27" value="元素的包装" style="text;html=1;align=center;verticalAlign=middle;resizable=0;points=[];autosize=1;strokeColor=none;fillColor=none;" parent="D0d5PBvJCMut8AnMBSer-1" vertex="1">
                    <mxGeometry x="840" y="260" width="80" height="20" as="geometry"/>
                </mxCell>
                <mxCell id="b8kOa5jIIpnnM0d8-yyg-28" value="代表具体的元素" style="text;html=1;align=center;verticalAlign=middle;resizable=0;points=[];autosize=1;strokeColor=none;fillColor=none;" parent="D0d5PBvJCMut8AnMBSer-1" vertex="1">
                    <mxGeometry x="515" y="133" width="100" height="20" as="geometry"/>
                </mxCell>
                <mxCell id="b8kOa5jIIpnnM0d8-yyg-29" value="Emplace" style="shape=step;perimeter=stepPerimeter;whiteSpace=wrap;html=1;fixedSize=1;" parent="D0d5PBvJCMut8AnMBSer-1" vertex="1">
                    <mxGeometry x="530" y="940" width="120" height="80" as="geometry"/>
                </mxCell>
                <mxCell id="b8kOa5jIIpnnM0d8-yyg-30" value="会从散列数组中申请一个内存块，然后调用构造" style="text;html=1;align=center;verticalAlign=middle;resizable=0;points=[];autosize=1;strokeColor=none;fillColor=none;" parent="D0d5PBvJCMut8AnMBSer-1" vertex="1">
                    <mxGeometry x="416" y="1020" width="270" height="20" as="geometry"/>
                </mxCell>
                <mxCell id="b8kOa5jIIpnnM0d8-yyg-31" value="KeyFuncs" style="text;html=1;align=center;verticalAlign=middle;resizable=0;points=[];autosize=1;strokeColor=none;fillColor=none;" parent="D0d5PBvJCMut8AnMBSer-1" vertex="1">
                    <mxGeometry x="195" y="160" width="70" height="20" as="geometry"/>
                </mxCell>
                <mxCell id="b8kOa5jIIpnnM0d8-yyg-32" value="用来自定义 key，hash" style="text;html=1;align=center;verticalAlign=middle;resizable=0;points=[];autosize=1;strokeColor=none;fillColor=none;" parent="D0d5PBvJCMut8AnMBSer-1" vertex="1">
                    <mxGeometry x="130" y="200" width="140" height="20" as="geometry"/>
                </mxCell>
                <mxCell id="b8kOa5jIIpnnM0d8-yyg-33" value="DefaultKeyFuncs" style="swimlane;fontStyle=1;align=center;verticalAlign=top;childLayout=stackLayout;horizontal=1;startSize=26;horizontalStack=0;resizeParent=1;resizeParentMax=0;resizeLast=0;collapsible=1;marginBottom=0;" parent="D0d5PBvJCMut8AnMBSer-1" vertex="1">
                    <mxGeometry x="120" y="227" width="160" height="86" as="geometry"/>
                </mxCell>
                <mxCell id="b8kOa5jIIpnnM0d8-yyg-34" value="+ field: type" style="text;strokeColor=none;fillColor=none;align=left;verticalAlign=top;spacingLeft=4;spacingRight=4;overflow=hidden;rotatable=0;points=[[0,0.5],[1,0.5]];portConstraint=eastwest;" parent="b8kOa5jIIpnnM0d8-yyg-33" vertex="1">
                    <mxGeometry y="26" width="160" height="26" as="geometry"/>
                </mxCell>
                <mxCell id="b8kOa5jIIpnnM0d8-yyg-35" value="" style="line;strokeWidth=1;fillColor=none;align=left;verticalAlign=middle;spacingTop=-1;spacingLeft=3;spacingRight=3;rotatable=0;labelPosition=right;points=[];portConstraint=eastwest;" parent="b8kOa5jIIpnnM0d8-yyg-33" vertex="1">
                    <mxGeometry y="52" width="160" height="8" as="geometry"/>
                </mxCell>
                <mxCell id="b8kOa5jIIpnnM0d8-yyg-36" value="+ method(type): type" style="text;strokeColor=none;fillColor=none;align=left;verticalAlign=top;spacingLeft=4;spacingRight=4;overflow=hidden;rotatable=0;points=[[0,0.5],[1,0.5]];portConstraint=eastwest;" parent="b8kOa5jIIpnnM0d8-yyg-33" vertex="1">
                    <mxGeometry y="60" width="160" height="26" as="geometry"/>
                </mxCell>
                <mxCell id="r0nYEZfcRvNP4G7jGjAI-0" value="在散列数组的下标" style="text;html=1;align=center;verticalAlign=middle;resizable=0;points=[];autosize=1;strokeColor=none;fillColor=none;" parent="D0d5PBvJCMut8AnMBSer-1" vertex="1">
                    <mxGeometry x="1200" y="144" width="110" height="20" as="geometry"/>
                </mxCell>
                <mxCell id="r0nYEZfcRvNP4G7jGjAI-1" value="LinkElement" style="shape=step;perimeter=stepPerimeter;whiteSpace=wrap;html=1;fixedSize=1;" parent="D0d5PBvJCMut8AnMBSer-1" vertex="1">
                    <mxGeometry x="840" y="1010" width="120" height="80" as="geometry"/>
                </mxCell>
                <mxCell id="r0nYEZfcRvNP4G7jGjAI-2" value="检查" style="text;html=1;align=center;verticalAlign=middle;resizable=0;points=[];autosize=1;strokeColor=none;fillColor=none;" parent="D0d5PBvJCMut8AnMBSer-1" vertex="1">
                    <mxGeometry x="730" y="1030" width="40" height="20" as="geometry"/>
                </mxCell>
                <mxCell id="r0nYEZfcRvNP4G7jGjAI-4" value="没有满" style="text;html=1;align=center;verticalAlign=middle;resizable=0;points=[];autosize=1;strokeColor=none;fillColor=none;" parent="D0d5PBvJCMut8AnMBSer-1" vertex="1">
                    <mxGeometry x="825" y="1090" width="50" height="20" as="geometry"/>
                </mxCell>
                <mxCell id="r0nYEZfcRvNP4G7jGjAI-5" value="类似一个数组 哈希值对应散列下标" style="text;html=1;align=center;verticalAlign=middle;resizable=0;points=[];autosize=1;strokeColor=none;fillColor=none;" parent="D0d5PBvJCMut8AnMBSer-1" vertex="1">
                    <mxGeometry x="216" y="520" width="200" height="20" as="geometry"/>
                </mxCell>
                <mxCell id="r0nYEZfcRvNP4G7jGjAI-6" value="嘻哈的大小为了取余" style="text;html=1;align=center;verticalAlign=middle;resizable=0;points=[];autosize=1;strokeColor=none;fillColor=none;" parent="D0d5PBvJCMut8AnMBSer-1" vertex="1">
                    <mxGeometry x="270" y="540" width="120" height="20" as="geometry"/>
                </mxCell>
                <mxCell id="r0nYEZfcRvNP4G7jGjAI-7" value="GetTypedHash" style="shape=step;perimeter=stepPerimeter;whiteSpace=wrap;html=1;fixedSize=1;" parent="D0d5PBvJCMut8AnMBSer-1" vertex="1">
                    <mxGeometry x="530" y="690" width="120" height="80" as="geometry"/>
                </mxCell>
                <mxCell id="r0nYEZfcRvNP4G7jGjAI-8" value="&lt;span style=&quot;text-align: left&quot;&gt;Hash 用嘻哈值来取 在散列数组的下标&lt;/span&gt;" style="text;html=1;align=center;verticalAlign=middle;resizable=0;points=[];autosize=1;strokeColor=none;fillColor=none;" parent="D0d5PBvJCMut8AnMBSer-1" vertex="1">
                    <mxGeometry x="450" y="660" width="220" height="20" as="geometry"/>
                </mxCell>
                <mxCell id="r0nYEZfcRvNP4G7jGjAI-10" value="这个用来形成链表" style="text;html=1;align=center;verticalAlign=middle;resizable=0;points=[];autosize=1;strokeColor=none;fillColor=none;" parent="D0d5PBvJCMut8AnMBSer-1" vertex="1">
                    <mxGeometry x="845" y="160" width="110" height="20" as="geometry"/>
                </mxCell>
                <mxCell id="r0nYEZfcRvNP4G7jGjAI-11" value="TMap 存的是键值对 哈希映射的时候用键来映射" style="text;html=1;align=center;verticalAlign=middle;resizable=0;points=[];autosize=1;strokeColor=none;fillColor=none;" parent="D0d5PBvJCMut8AnMBSer-1" vertex="1">
                    <mxGeometry x="65" y="326" width="270" height="20" as="geometry"/>
                </mxCell>
            </root>
        </mxGraphModel>
    </diagram>
    <diagram id="nuHfghwGsWQrnJNpOn83" name="Tuple">
        <mxGraphModel dx="1086" dy="779" grid="1" gridSize="10" guides="1" tooltips="1" connect="1" arrows="1" fold="1" page="1" pageScale="1" pageWidth="827" pageHeight="1169" math="0" shadow="0">
            <root>
                <mxCell id="0"/>
                <mxCell id="1" parent="0"/>
                <mxCell id="fhxawlDFndlilYmF_yzM-1" value="TTuple" style="swimlane;fontStyle=1;align=center;verticalAlign=top;childLayout=stackLayout;horizontal=1;startSize=26;horizontalStack=0;resizeParent=1;resizeParentMax=0;resizeLast=0;collapsible=1;marginBottom=0;" vertex="1" parent="1">
                    <mxGeometry x="334" y="210" width="160" height="86" as="geometry"/>
                </mxCell>
                <mxCell id="fhxawlDFndlilYmF_yzM-2" value="+ field: type" style="text;strokeColor=none;fillColor=none;align=left;verticalAlign=top;spacingLeft=4;spacingRight=4;overflow=hidden;rotatable=0;points=[[0,0.5],[1,0.5]];portConstraint=eastwest;" vertex="1" parent="fhxawlDFndlilYmF_yzM-1">
                    <mxGeometry y="26" width="160" height="26" as="geometry"/>
                </mxCell>
                <mxCell id="fhxawlDFndlilYmF_yzM-3" value="" style="line;strokeWidth=1;fillColor=none;align=left;verticalAlign=middle;spacingTop=-1;spacingLeft=3;spacingRight=3;rotatable=0;labelPosition=right;points=[];portConstraint=eastwest;strokeColor=inherit;" vertex="1" parent="fhxawlDFndlilYmF_yzM-1">
                    <mxGeometry y="52" width="160" height="8" as="geometry"/>
                </mxCell>
                <mxCell id="fhxawlDFndlilYmF_yzM-4" value="+ method(type): type" style="text;strokeColor=none;fillColor=none;align=left;verticalAlign=top;spacingLeft=4;spacingRight=4;overflow=hidden;rotatable=0;points=[[0,0.5],[1,0.5]];portConstraint=eastwest;" vertex="1" parent="fhxawlDFndlilYmF_yzM-1">
                    <mxGeometry y="60" width="160" height="26" as="geometry"/>
                </mxCell>
                <mxCell id="fhxawlDFndlilYmF_yzM-5" value="TTupleBase" style="swimlane;fontStyle=1;align=center;verticalAlign=top;childLayout=stackLayout;horizontal=1;startSize=26;horizontalStack=0;resizeParent=1;resizeParentMax=0;resizeLast=0;collapsible=1;marginBottom=0;" vertex="1" parent="1">
                    <mxGeometry x="370" y="80" width="160" height="86" as="geometry"/>
                </mxCell>
                <mxCell id="fhxawlDFndlilYmF_yzM-6" value="+ field: type" style="text;strokeColor=none;fillColor=none;align=left;verticalAlign=top;spacingLeft=4;spacingRight=4;overflow=hidden;rotatable=0;points=[[0,0.5],[1,0.5]];portConstraint=eastwest;" vertex="1" parent="fhxawlDFndlilYmF_yzM-5">
                    <mxGeometry y="26" width="160" height="26" as="geometry"/>
                </mxCell>
                <mxCell id="fhxawlDFndlilYmF_yzM-7" value="" style="line;strokeWidth=1;fillColor=none;align=left;verticalAlign=middle;spacingTop=-1;spacingLeft=3;spacingRight=3;rotatable=0;labelPosition=right;points=[];portConstraint=eastwest;strokeColor=inherit;" vertex="1" parent="fhxawlDFndlilYmF_yzM-5">
                    <mxGeometry y="52" width="160" height="8" as="geometry"/>
                </mxCell>
                <mxCell id="fhxawlDFndlilYmF_yzM-8" value="+ method(type): type" style="text;strokeColor=none;fillColor=none;align=left;verticalAlign=top;spacingLeft=4;spacingRight=4;overflow=hidden;rotatable=0;points=[[0,0.5],[1,0.5]];portConstraint=eastwest;" vertex="1" parent="fhxawlDFndlilYmF_yzM-5">
                    <mxGeometry y="60" width="160" height="26" as="geometry"/>
                </mxCell>
                <mxCell id="fhxawlDFndlilYmF_yzM-9" value="TTupleBaseElement" style="swimlane;fontStyle=1;align=center;verticalAlign=top;childLayout=stackLayout;horizontal=1;startSize=26;horizontalStack=0;resizeParent=1;resizeParentMax=0;resizeLast=0;collapsible=1;marginBottom=0;" vertex="1" parent="1">
                    <mxGeometry x="190" y="42" width="160" height="86" as="geometry"/>
                </mxCell>
                <mxCell id="fhxawlDFndlilYmF_yzM-10" value="+ field: type" style="text;strokeColor=none;fillColor=none;align=left;verticalAlign=top;spacingLeft=4;spacingRight=4;overflow=hidden;rotatable=0;points=[[0,0.5],[1,0.5]];portConstraint=eastwest;" vertex="1" parent="fhxawlDFndlilYmF_yzM-9">
                    <mxGeometry y="26" width="160" height="26" as="geometry"/>
                </mxCell>
                <mxCell id="fhxawlDFndlilYmF_yzM-11" value="" style="line;strokeWidth=1;fillColor=none;align=left;verticalAlign=middle;spacingTop=-1;spacingLeft=3;spacingRight=3;rotatable=0;labelPosition=right;points=[];portConstraint=eastwest;strokeColor=inherit;" vertex="1" parent="fhxawlDFndlilYmF_yzM-9">
                    <mxGeometry y="52" width="160" height="8" as="geometry"/>
                </mxCell>
                <mxCell id="fhxawlDFndlilYmF_yzM-12" value="+ method(type): type" style="text;strokeColor=none;fillColor=none;align=left;verticalAlign=top;spacingLeft=4;spacingRight=4;overflow=hidden;rotatable=0;points=[[0,0.5],[1,0.5]];portConstraint=eastwest;" vertex="1" parent="fhxawlDFndlilYmF_yzM-9">
                    <mxGeometry y="60" width="160" height="26" as="geometry"/>
                </mxCell>
            </root>
        </mxGraphModel>
    </diagram>
</mxfile>